Exo-Thin.ufo
<glyph name=".notdef" format="2">
  <advance width="651"/>
  <unicode hex="0000"/>
  <outline>
    <contour>
      <point x="60" y="0" type="line"/>
      <point x="591" y="0" type="line"/>
      <point x="591" y="531" type="line"/>
      <point x="60" y="531" type="line"/>
    </contour>
    <contour>
      <point x="493" y="115" type="line"/>
      <point x="343" y="265" type="line"/>
      <point x="493" y="415" type="line"/>
      <point x="476" y="432" type="line"/>
      <point x="326" y="282" type="line"/>
      <point x="176" y="432" type="line"/>
      <point x="159" y="415" type="line"/>
      <point x="309" y="265" type="line"/>
      <point x="159" y="115" type="line"/>
      <point x="176" y="98" type="line"/>
      <point x="326" y="248" type="line"/>
      <point x="476" y="98" type="line"/>
    </contour>
    <contour>
      <point x="84" y="24" type="line"/>
      <point x="84" y="507" type="line"/>
      <point x="567" y="507" type="line"/>
      <point x="567" y="24" type="line"/>
    </contour>
  </outline>
</glyph>
<glyph name="exclam" format="2">
  <advance width="260"/>
  <unicode hex="0021"/>
  <note>
GF Latin Plus glyph
</note>
  <outline>
    <contour>
      <point x="120" y="196" type="line"/>
      <point x="136" y="196" type="line"/>
      <point x="140" y="731" type="line"/>
      <point x="116" y="731" type="line"/>
    </contour>
    <component base="period" xOffset="42"/>
  </outline>
</glyph>
<glyph name="numbersign" format="2">
  <advance width="654"/>
  <unicode hex="0023"/>
  <note>
GF Latin Plus glyph
</note>
  <outline>
    <contour>
      <point x="220" y="261" type="line"/>
      <point x="252" y="467" type="line"/>
      <point x="437" y="467" type="line"/>
      <point x="405" y="261" type="line"/>
    </contour>
    <contour>
      <point x="28" y="249" type="line"/>
      <point x="205" y="249" type="line"/>
      <point x="166" y="0" type="line"/>
      <point x="178" y="0" type="line"/>
      <point x="217" y="249" type="line"/>
      <point x="403" y="249" type="line"/>
      <point x="364" y="0" type="line"/>
      <point x="376" y="0" type="line"/>
      <point x="415" y="249" type="line"/>
      <point x="593" y="249" type="line"/>
      <point x="595" y="261" type="line"/>
      <point x="417" y="261" type="line"/>
      <point x="449" y="467" type="line"/>
      <point x="628" y="467" type="line"/>
      <point x="630" y="479" type="line"/>
      <point x="452" y="479" type="line"/>
      <point x="492" y="732" type="line"/>
      <point x="480" y="732" type="line"/>
      <point x="440" y="479" type="line"/>
      <point x="254" y="479" type="line"/>
      <point x="295" y="732" type="line"/>
      <point x="283" y="732" type="line"/>
      <point x="242" y="479" type="line"/>
      <point x="64" y="479" type="line"/>
      <point x="61" y="467" type="line"/>
      <point x="240" y="467" type="line"/>
      <point x="208" y="261" type="line"/>
      <point x="30" y="261" type="line"/>
    </contour>
  </outline>
</glyph>
<glyph name="percent" format="2">
  <advance width="954"/>
  <unicode hex="0025"/>
  <note>
GF Latin Plus glyph
</note>
  <outline>
    <contour>
      <point x="557" y="128" type="curve" smooth="yes"/>
      <point x="557" y="261" type="line" smooth="yes"/>
      <point x="557" y="350"/>
      <point x="591" y="370"/>
      <point x="670" y="370" type="curve" smooth="yes"/>
      <point x="771" y="370" type="line" smooth="yes"/>
      <point x="857" y="370"/>
      <point x="882" y="339"/>
      <point x="882" y="261" type="curve" smooth="yes"/>
      <point x="882" y="128" type="line" smooth="yes"/>
      <point x="882" y="39"/>
      <point x="846" y="19"/>
      <point x="769" y="19" type="curve" smooth="yes"/>
      <point x="668" y="19" type="line" smooth="yes"/>
      <point x="590" y="19"/>
      <point x="557" y="42"/>
    </contour>
    <contour>
      <point x="541" y="128" type="line" smooth="yes"/>
      <point x="541" y="43"/>
      <point x="570" y="3"/>
      <point x="668" y="3" type="curve" smooth="yes"/>
      <point x="769" y="3" type="line" smooth="yes"/>
      <point x="870" y="3"/>
      <point x="898" y="43"/>
      <point x="898" y="128" type="curve" smooth="yes"/>
      <point x="898" y="261" type="line" smooth="yes"/>
      <point x="898" y="346"/>
      <point x="869" y="386"/>
      <point x="771" y="386" type="curve" smooth="yes"/>
      <point x="670" y="386" type="line" smooth="yes"/>
      <point x="569" y="386"/>
      <point x="541" y="346"/>
      <point x="541" y="261" type="curve" smooth="yes"/>
    </contour>
    <contour>
      <point x="242" y="0" type="line"/>
      <point x="263" y="0" type="line"/>
      <point x="701" y="732" type="line"/>
      <point x="680" y="732" type="line"/>
    </contour>
    <contour>
      <point x="73" y="474" type="curve" smooth="yes"/>
      <point x="73" y="607" type="line" smooth="yes"/>
      <point x="73" y="696"/>
      <point x="107" y="716"/>
      <point x="186" y="716" type="curve" smooth="yes"/>
      <point x="287" y="716" type="line" smooth="yes"/>
      <point x="373" y="716"/>
      <point x="398" y="685"/>
      <point x="398" y="607" type="curve" smooth="yes"/>
      <point x="398" y="474" type="line" smooth="yes"/>
      <point x="398" y="385"/>
      <point x="362" y="365"/>
      <point x="285" y="365" type="curve" smooth="yes"/>
      <point x="184" y="365" type="line" smooth="yes"/>
      <point x="106" y="365"/>
      <point x="73" y="388"/>
    </contour>
    <contour>
      <point x="57" y="474" type="line" smooth="yes"/>
      <point x="57" y="389"/>
      <point x="86" y="349"/>
      <point x="184" y="349" type="curve" smooth="yes"/>
      <point x="285" y="349" type="line" smooth="yes"/>
      <point x="386" y="349"/>
      <point x="414" y="389"/>
      <point x="414" y="474" type="curve" smooth="yes"/>
      <point x="414" y="607" type="line" smooth="yes"/>
      <point x="414" y="692"/>
      <point x="385" y="732"/>
      <point x="287" y="732" type="curve" smooth="yes"/>
      <point x="186" y="732" type="line" smooth="yes"/>
      <point x="85" y="732"/>
      <point x="57" y="692"/>
      <point x="57" y="607" type="curve" smooth="yes"/>
    </contour>
  </outline>
</glyph>
<glyph name="quotesingle" format="2">
  <advance width="113"/>
  <unicode hex="0027"/>
  <note>
GF Latin Plus glyph
</note>
  <outline>
    <contour>
      <point x="44" y="673" type="line"/>
      <point x="51" y="515" type="line"/>
      <point x="63" y="515" type="line"/>
      <point x="69" y="673" type="line"/>
      <point x="69" y="740" type="line"/>
      <point x="44" y="740" type="line"/>
    </contour>
  </outline>
</glyph>
<glyph name="parenright" format="2">
  <advance width="314"/>
  <unicode hex="0029"/>
  <note>
GF Latin Plus glyph
</note>
  <outline>
    <contour>
      <point x="27" y="-210" type="curve"/>
      <point x="54" y="-210" type="line"/>
      <point x="162" y="-25"/>
      <point x="213" y="130"/>
      <point x="213" y="326" type="curve" smooth="yes"/>
      <point x="213" y="519"/>
      <point x="160" y="677"/>
      <point x="54" y="860" type="curve"/>
      <point x="27" y="860" type="line"/>
      <point x="133" y="677"/>
      <point x="189" y="519"/>
      <point x="189" y="326" type="curve" smooth="yes"/>
      <point x="189" y="131"/>
      <point x="134" y="-25"/>
    </contour>
  </outline>
</glyph>
<glyph name="plus" format="2">
  <advance width="609"/>
  <unicode hex="002B"/>
  <note>
GF Latin Plus glyph
</note>
  <outline>
    <contour>
      <point x="80" y="344" type="line"/>
      <point x="528" y="344" type="line"/>
      <point x="528" y="368" type="line"/>
      <point x="80" y="368" type="line"/>
    </contour>
    <contour>
      <point x="316" y="132" type="line"/>
      <point x="316" y="580" type="line"/>
      <point x="292" y="580" type="line"/>
      <point x="292" y="132" type="line"/>
    </contour>
  </outline>
</glyph>
<glyph name="comma" format="2">
  <advance width="172"/>
  <unicode hex="002C"/>
  <note>
GF Latin Plus glyph
</note>
  <outline>
    <contour>
      <point x="69" y="13" type="line" smooth="yes"/>
      <point x="69" y="5"/>
      <point x="74" y="0"/>
      <point x="81" y="0" type="curve" smooth="yes"/>
      <point x="87" y="0" type="line"/>
      <point x="87" y="-47" type="line" smooth="yes"/>
      <point x="87" y="-58"/>
      <point x="83" y="-62"/>
      <point x="71" y="-62" type="curve"/>
      <point x="71" y="-68" type="line"/>
      <point x="71" y="-68"/>
      <point x="74" y="-69"/>
      <point x="78" y="-69" type="curve" smooth="yes"/>
      <point x="88" y="-69"/>
      <point x="103" y="-65"/>
      <point x="103" y="-37" type="curve" smooth="yes"/>
      <point x="103" y="73" type="line" smooth="yes"/>
      <point x="103" y="81"/>
      <point x="100" y="86"/>
      <point x="91" y="86" type="curve" smooth="yes"/>
      <point x="81" y="86" type="line" smooth="yes"/>
      <point x="73" y="86"/>
      <point x="69" y="82"/>
      <point x="69" y="73" type="curve" smooth="yes"/>
    </contour>
  </outline>
</glyph>
<glyph name="hyphen" format="2">
  <advance width="338"/>
  <unicode hex="002D"/>
  <note>
GF Latin Plus glyph
</note>
  <outline>
    <contour>
      <point x="27" y="278" type="line"/>
      <point x="311" y="278" type="line"/>
      <point x="311" y="302" type="line"/>
      <point x="27" y="302" type="line"/>
    </contour>
  </outline>
</glyph>
<glyph name="zero" format="2">
  <advance width="662"/>
  <unicode hex="0030"/>
  <note>
GF Latin Plus glyph
</note>
  <outline>
    <contour>
      <point x="118" y="162" type="curve" smooth="yes"/>
      <point x="118" y="576" type="line" smooth="yes"/>
      <point x="118" y="664.0"/>
      <point x="177.0" y="716"/>
      <point x="266" y="716" type="curve" smooth="yes"/>
      <point x="400" y="716" type="line" smooth="yes"/>
      <point x="496" y="716"/>
      <point x="544" y="666.0"/>
      <point x="544" y="576" type="curve" smooth="yes"/>
      <point x="544" y="162" type="line" smooth="yes"/>
      <point x="544" y="77"/>
      <point x="504" y="22"/>
      <point x="400" y="22" type="curve" smooth="yes"/>
      <point x="266" y="22" type="line" smooth="yes"/>
      <point x="176.0" y="22"/>
      <point x="118" y="70.0"/>
    </contour>
    <contour>
      <point x="94" y="162" type="line" smooth="yes"/>
      <point x="94" y="42.0"/>
      <point x="175.0" y="0"/>
      <point x="266" y="0" type="curve" smooth="yes"/>
      <point x="400" y="0" type="line" smooth="yes"/>
      <point x="499" y="0"/>
      <point x="568" y="43"/>
      <point x="568" y="162" type="curve" smooth="yes"/>
      <point x="568" y="576" type="line" smooth="yes"/>
      <point x="568" y="667.0"/>
      <point x="522" y="738"/>
      <point x="400" y="738" type="curve" smooth="yes"/>
      <point x="266" y="738" type="line" smooth="yes"/>
      <point x="171.0" y="738"/>
      <point x="94" y="684.0"/>
      <point x="94" y="576" type="curve" smooth="yes"/>
    </contour>
  </outline>
</glyph>
<glyph name="one" format="2">
  <advance width="354"/>
  <unicode hex="0031"/>
  <note>
GF Latin Plus glyph
</note>
  <outline>
    <contour>
      <point x="54" y="652" type="line"/>
      <point x="222" y="713" type="line"/>
      <point x="222" y="0" type="line"/>
      <point x="246" y="0" type="line"/>
      <point x="246" y="740" type="line"/>
      <point x="222" y="740" type="line"/>
      <point x="54" y="668" type="line"/>
    </contour>
  </outline>
</glyph>
<glyph name="two" format="2">
  <advance width="598"/>
  <unicode hex="0032"/>
  <note>
GF Latin Plus glyph
</note>
  <outline>
    <contour>
      <point x="94" y="716" type="line"/>
      <point x="287" y="716" type="line" smooth="yes"/>
      <point x="451" y="716"/>
      <point x="487" y="647"/>
      <point x="487" y="561" type="curve" smooth="yes"/>
      <point x="487" y="458"/>
      <point x="455" y="390"/>
      <point x="353" y="295" type="curve" smooth="yes"/>
      <point x="61" y="22" type="line"/>
      <point x="61" y="0" type="line"/>
      <point x="541" y="0" type="line"/>
      <point x="541" y="24" type="line"/>
      <point x="97" y="24" type="line"/>
      <point x="369" y="281" type="line" smooth="yes"/>
      <point x="473" y="379"/>
      <point x="511" y="453"/>
      <point x="511" y="559" type="curve" smooth="yes"/>
      <point x="511" y="660"/>
      <point x="459" y="738"/>
      <point x="295" y="738" type="curve" smooth="yes"/>
      <point x="227" y="738"/>
      <point x="152" y="734"/>
      <point x="94" y="732" type="curve"/>
    </contour>
  </outline>
</glyph>
<glyph name="four" format="2">
  <advance width="575"/>
  <unicode hex="0034"/>
  <note>
GF Latin Plus glyph
</note>
  <outline>
    <contour>
      <point x="29" y="235" type="line"/>
      <point x="39" y="212" type="line"/>
      <point x="404" y="212" type="line"/>
      <point x="404" y="2" type="line"/>
      <point x="428" y="2" type="line"/>
      <point x="428" y="212" type="line"/>
      <point x="548" y="218" type="line"/>
      <point x="548" y="234" type="line"/>
      <point x="428" y="234" type="line"/>
      <point x="428" y="527" type="line"/>
      <point x="412" y="527" type="line"/>
      <point x="404" y="472" type="line"/>
      <point x="404" y="234" type="line"/>
      <point x="54" y="234" type="line"/>
      <point x="361" y="732" type="line"/>
      <point x="336" y="732" type="line"/>
    </contour>
  </outline>
</glyph>
<glyph name="five" format="2">
  <advance width="649"/>
  <unicode hex="0035"/>
  <note>
GF Latin Plus glyph
</note>
  <outline>
    <contour>
      <point x="103" y="2" type="line"/>
      <point x="166" y="-4"/>
      <point x="259" y="-4"/>
      <point x="357" y="-4" type="curve" smooth="yes"/>
      <point x="474" y="-4"/>
      <point x="570" y="55"/>
      <point x="570" y="166" type="curve" smooth="yes"/>
      <point x="570" y="275" type="line" smooth="yes"/>
      <point x="570" y="367.3253012048193"/>
      <point x="502.0" y="433"/>
      <point x="387" y="433" type="curve" smooth="yes"/>
      <point x="294" y="433" type="line" smooth="yes"/>
      <point x="216" y="433"/>
      <point x="172" y="396"/>
      <point x="159" y="364" type="curve"/>
      <point x="176" y="710" type="line"/>
      <point x="549" y="710" type="line"/>
      <point x="549" y="732" type="line"/>
      <point x="154" y="732" type="line"/>
      <point x="133" y="304" type="line"/>
      <point x="155" y="304" type="line"/>
      <point x="169" y="378"/>
      <point x="216" y="411"/>
      <point x="291" y="411" type="curve" smooth="yes"/>
      <point x="386" y="411" type="line" smooth="yes"/>
      <point x="491.0" y="411"/>
      <point x="546" y="358.06849315068496"/>
      <point x="546" y="273" type="curve" smooth="yes"/>
      <point x="546" y="168" type="line" smooth="yes"/>
      <point x="546" y="68"/>
      <point x="457" y="18"/>
      <point x="355" y="18" type="curve" smooth="yes"/>
      <point x="103" y="18" type="line"/>
    </contour>
  </outline>
</glyph>
<glyph name="six" format="2">
  <advance width="636"/>
  <unicode hex="0036"/>
  <note>
GF Latin Plus glyph
</note>
  <outline>
    <contour>
      <point x="112" y="369" type="curve"/>
      <point x="345" y="369" type="line" smooth="yes"/>
      <point x="459.0" y="369"/>
      <point x="533" y="351"/>
      <point x="533" y="249" type="curve" smooth="yes"/>
      <point x="533" y="146" type="line" smooth="yes"/>
      <point x="533" y="42"/>
      <point x="467" y="21"/>
      <point x="395" y="21" type="curve" smooth="yes"/>
      <point x="276" y="21" type="line" smooth="yes"/>
      <point x="175.0" y="21"/>
      <point x="112.0" y="91.19318181818176"/>
    </contour>
    <contour>
      <point x="88" y="374" type="curve" smooth="yes"/>
      <point x="88" y="71"/>
      <point x="167" y="-1"/>
      <point x="276" y="-1" type="curve" smooth="yes"/>
      <point x="395" y="-1" type="line" smooth="yes"/>
      <point x="479" y="-1"/>
      <point x="556" y="36"/>
      <point x="556" y="148" type="curve" smooth="yes"/>
      <point x="556" y="249" type="line" smooth="yes"/>
      <point x="556" y="367"/>
      <point x="466.0" y="391.0"/>
      <point x="344" y="391" type="curve" smooth="yes"/>
      <point x="297" y="391"/>
      <point x="183" y="389"/>
      <point x="112" y="385" type="curve"/>
      <point x="112.0" y="609.7155963302753"/>
      <point x="198.19780219780222" y="716"/>
      <point x="324" y="716" type="curve" smooth="yes"/>
      <point x="512" y="716" type="line"/>
      <point x="512" y="732" type="line"/>
      <point x="459.7457915490727" y="733.713252736096"/>
      <point x="382.67464114832535" y="738.0"/>
      <point x="333" y="738" type="curve" smooth="yes"/>
      <point x="179.1627906976744" y="738.0"/>
      <point x="88" y="618"/>
    </contour>
  </outline>
</glyph>
<glyph name="seven" format="2">
  <advance width="535"/>
  <unicode hex="0037"/>
  <note>
GF Latin Plus glyph
</note>
  <outline>
    <contour>
      <point x="40" y="708" type="line"/>
      <point x="456" y="708" type="line"/>
      <point x="168" y="0" type="line"/>
      <point x="196" y="0" type="line"/>
      <point x="484" y="709" type="line"/>
      <point x="468" y="732" type="line"/>
      <point x="40" y="732" type="line"/>
    </contour>
  </outline>
</glyph>
<glyph name="eight" format="2">
  <advance width="655"/>
  <unicode hex="0038"/>
  <note>
GF Latin Plus glyph
</note>
  <outline>
    <contour>
      <point x="139" y="494" type="curve" smooth="yes"/>
      <point x="139" y="582" type="line" smooth="yes"/>
      <point x="139" y="672.0"/>
      <point x="175" y="715"/>
      <point x="267" y="715" type="curve" smooth="yes"/>
      <point x="403" y="715" type="line" smooth="yes"/>
      <point x="480.2258064516129" y="715"/>
      <point x="517" y="678.0"/>
      <point x="517" y="582" type="curve" smooth="yes"/>
      <point x="517" y="494" type="line" smooth="yes"/>
      <point x="517" y="448"/>
      <point x="482" y="384"/>
      <point x="395" y="384" type="curve" smooth="yes"/>
      <point x="266" y="384" type="line" smooth="yes"/>
      <point x="179" y="384"/>
      <point x="139" y="437"/>
    </contour>
    <contour>
      <point x="125" y="131" type="curve" smooth="yes"/>
      <point x="125" y="246" type="line" smooth="yes"/>
      <point x="125" y="336"/>
      <point x="220" y="362"/>
      <point x="266" y="362" type="curve" smooth="yes"/>
      <point x="395" y="362" type="line" smooth="yes"/>
      <point x="495" y="362"/>
      <point x="531" y="332"/>
      <point x="531" y="246" type="curve" smooth="yes"/>
      <point x="531" y="131" type="line" smooth="yes"/>
      <point x="531" y="58.33333333333334"/>
      <point x="486.45323741007195" y="22"/>
      <point x="402" y="22" type="curve" smooth="yes"/>
      <point x="267" y="22" type="line" smooth="yes"/>
      <point x="188" y="22"/>
      <point x="125" y="52.418604651162795"/>
    </contour>
    <contour>
      <point x="101" y="134" type="line" smooth="yes"/>
      <point x="101" y="46.116883116883116"/>
      <point x="161" y="0"/>
      <point x="267" y="0" type="curve" smooth="yes"/>
      <point x="402" y="0" type="line" smooth="yes"/>
      <point x="499.6196319018405" y="0"/>
      <point x="555" y="46.98701298701299"/>
      <point x="555" y="134" type="curve" smooth="yes"/>
      <point x="555" y="252" type="line" smooth="yes"/>
      <point x="555" y="315.0"/>
      <point x="520" y="367"/>
      <point x="459" y="377" type="curve"/>
      <point x="509" y="395"/>
      <point x="541" y="445.3939393939394"/>
      <point x="541" y="499" type="curve" smooth="yes"/>
      <point x="541" y="584" type="line" smooth="yes"/>
      <point x="541" y="693"/>
      <point x="494.3783783783784" y="737"/>
      <point x="403" y="737" type="curve" smooth="yes"/>
      <point x="267" y="737" type="line" smooth="yes"/>
      <point x="178" y="737"/>
      <point x="115" y="693"/>
      <point x="115" y="584" type="curve" smooth="yes"/>
      <point x="115" y="499" type="line" smooth="yes"/>
      <point x="115" y="446"/>
      <point x="141" y="395"/>
      <point x="205" y="369" type="curve"/>
      <point x="168.66823845697485" y="360.69559736159425"/>
      <point x="101" y="326.0"/>
      <point x="101" y="243" type="curve" smooth="yes"/>
    </contour>
  </outline>
</glyph>
<glyph name="greater" format="2">
  <advance width="609"/>
  <unicode hex="003E"/>
  <note>
GF Latin Plus glyph
</note>
  <outline>
    <contour>
      <point x="98" y="200" type="line"/>
      <point x="513" y="336" type="line"/>
      <point x="513" y="360" type="line"/>
      <point x="98" y="496" type="line"/>
      <point x="98" y="476" type="line"/>
      <point x="493" y="347" type="line"/>
      <point x="98" y="220" type="line"/>
    </contour>
  </outline>
</glyph>
<glyph name="question" format="2">
  <advance width="532"/>
  <unicode hex="003F"/>
  <note>
GF Latin Plus glyph
</note>
  <outline>
    <contour>
      <point x="47" y="675" type="line"/>
      <point x="123" y="705"/>
      <point x="183" y="717"/>
      <point x="258" y="717" type="curve" smooth="yes"/>
      <point x="369" y="717"/>
      <point x="414" y="671"/>
      <point x="414" y="544" type="curve" smooth="yes"/>
      <point x="414" y="463" type="line" smooth="yes"/>
      <point x="414" y="355"/>
      <point x="362" y="321"/>
      <point x="222" y="321" type="curve" smooth="yes"/>
      <point x="187" y="321" type="line"/>
      <point x="187" y="195" type="line"/>
      <point x="209" y="195" type="line"/>
      <point x="209" y="297" type="line"/>
      <point x="374" y="297"/>
      <point x="438" y="350"/>
      <point x="438" y="463" type="curve" smooth="yes"/>
      <point x="438" y="544" type="line" smooth="yes"/>
      <point x="438" y="668"/>
      <point x="400" y="741"/>
      <point x="259" y="739" type="curve" smooth="yes"/>
      <point x="186" y="738"/>
      <point x="115" y="728"/>
      <point x="47" y="689" type="curve"/>
    </contour>
    <component base="period" xOffset="111"/>
  </outline>
</glyph>
<glyph name="at" format="1">
  <advance width="866"/>
  <unicode hex="0040"/>
  <note>
    GF Latin Plus glyph
  </note>
  <outline>
    <contour>
      <point x="257" y="144" type="curve" smooth="yes"/>
      <point x="257" y="189" type="line" smooth="yes"/>
      <point x="257" y="269"/>
      <point x="327" y="278"/>
      <point x="367" y="280" type="curve" smooth="yes"/>
      <point x="585" y="290" type="line"/>
      <point x="585" y="108" type="line"/>
      <point x="535" y="84"/>
      <point x="427" y="45"/>
      <point x="368" y="45" type="curve" smooth="yes"/>
      <point x="300" y="45"/>
      <point x="257" y="84"/>
    </contour>
    <contour>
      <point x="88" y="30" type="line" smooth="yes"/>
      <point x="88" y="-86"/>
      <point x="154" y="-148"/>
      <point x="256" y="-148" type="curve" smooth="yes"/>
      <point x="575" y="-148" type="line" smooth="yes"/>
      <point x="713" y="-148"/>
      <point x="752" y="-68"/>
      <point x="752" y="30" type="curve" smooth="yes"/>
      <point x="752" y="542" type="line" smooth="yes"/>
      <point x="752" y="667"/>
      <point x="681" y="730"/>
      <point x="575" y="730" type="curve" smooth="yes"/>
      <point x="474" y="730" type="line" smooth="yes"/>
      <point x="348" y="730"/>
      <point x="234" y="730"/>
      <point x="186" y="720" type="curve"/>
      <point x="186" y="706" type="line"/>
      <point x="575" y="706" type="line" smooth="yes"/>
      <point x="679" y="706"/>
      <point x="728" y="636"/>
      <point x="728" y="542" type="curve" smooth="yes"/>
      <point x="728" y="30" type="line" smooth="yes"/>
      <point x="728" y="-72"/>
      <point x="678" y="-123"/>
      <point x="575" y="-123" type="curve" smooth="yes"/>
      <point x="256" y="-123" type="line" smooth="yes"/>
      <point x="188" y="-123"/>
      <point x="112" y="-88"/>
      <point x="112" y="30" type="curve" smooth="yes"/>
      <point x="112" y="378" type="line" smooth="yes"/>
      <point x="112" y="481"/>
      <point x="170" y="518"/>
      <point x="256" y="518" type="curve" smooth="yes"/>
      <point x="453" y="518" type="line" smooth="yes"/>
      <point x="533" y="518"/>
      <point x="585" y="482"/>
      <point x="585" y="400" type="curve" smooth="yes"/>
      <point x="585" y="304" type="line"/>
      <point x="362" y="304" type="line" smooth="yes"/>
      <point x="279" y="304"/>
      <point x="233" y="259"/>
      <point x="233" y="191" type="curve" smooth="yes"/>
      <point x="233" y="138" type="line" smooth="yes"/>
      <point x="233" y="70"/>
      <point x="287" y="21"/>
      <point x="361" y="21" type="curve" smooth="yes"/>
      <point x="452" y="21"/>
      <point x="584" y="94"/>
      <point x="586" y="94" type="curve"/>
      <point x="593" y="30" type="line"/>
      <point x="609" y="30" type="line"/>
      <point x="609" y="402" type="line" smooth="yes"/>
      <point x="609" y="512"/>
      <point x="527" y="542"/>
      <point x="456" y="542" type="curve" smooth="yes"/>
      <point x="256" y="542" type="line" smooth="yes"/>
      <point x="90" y="542"/>
      <point x="88" y="414"/>
      <point x="88" y="378" type="curve" smooth="yes"/>
    </contour>
  </outline>
</glyph>
<glyph name="A" format="2">
  <advance width="666"/>
  <unicode hex="0041"/>
  <note>
GF Latin Plus glyph
</note>
  <anchor x="333" y="810" name="top"/>
  <anchor x="333" y="-150" name="bottom"/>
  <anchor x="608" y="0" name="ogonek"/>
  <outline>
    <contour>
      <point x="174" y="277" type="line"/>
      <point x="333" y="708" type="line"/>
      <point x="489" y="277" type="line"/>
    </contour>
    <contour>
      <point x="48" y="0" type="line"/>
      <point x="74" y="0" type="line"/>
      <point x="167" y="255" type="line"/>
      <point x="498" y="255" type="line"/>
      <point x="592" y="0" type="line"/>
      <point x="618" y="0" type="line"/>
      <point x="350" y="732" type="line"/>
      <point x="316" y="732" type="line"/>
    </contour>
  </outline>
</glyph>
<glyph name="B" format="2">
  <advance width="584"/>
  <unicode hex="0042"/>
  <note>
GF Latin Plus glyph
</note>
  <anchor x="293" y="810" name="top"/>
  <anchor x="293" y="-150" name="bottom"/>
  <outline>
    <contour>
      <point x="112" y="390" type="line"/>
      <point x="112" y="710" type="line"/>
      <point x="334" y="710" type="line" smooth="yes"/>
      <point x="424.7814569536424" y="710"/>
      <point x="486.9997238325182" y="667.9917149755464"/>
      <point x="483" y="548" type="curve" smooth="yes"/>
      <point x="480.0001458061023" y="450.00476299934087"/>
      <point x="421" y="390"/>
      <point x="341" y="390" type="curve" smooth="yes"/>
    </contour>
    <contour>
      <point x="112" y="22" type="line"/>
      <point x="112" y="368" type="line"/>
      <point x="341" y="368" type="line" smooth="yes"/>
      <point x="433" y="368"/>
      <point x="510.0" y="309.0"/>
      <point x="510" y="206" type="curve" smooth="yes"/>
      <point x="510" y="54"/>
      <point x="440" y="22"/>
      <point x="341" y="22" type="curve" smooth="yes"/>
    </contour>
    <contour>
      <point x="88" y="0" type="line"/>
      <point x="341" y="0" type="line" smooth="yes"/>
      <point x="455" y="0"/>
      <point x="534" y="42"/>
      <point x="534" y="204" type="curve" smooth="yes"/>
      <point x="534.0" y="328.0"/>
      <point x="446" y="370"/>
      <point x="402" y="380" type="curve"/>
      <point x="453" y="395"/>
      <point x="507.0" y="453.0"/>
      <point x="507" y="548" type="curve" smooth="yes"/>
      <point x="507.0" y="676.0"/>
      <point x="443.7314285714286" y="732"/>
      <point x="334" y="732" type="curve" smooth="yes"/>
      <point x="88" y="732" type="line"/>
    </contour>
  </outline>
</glyph>
<glyph name="C" format="2">
  <advance width="577"/>
  <unicode hex="0043"/>
  <note>
GF Latin Plus glyph
</note>
  <anchor x="330" y="810" name="top"/>
  <anchor x="330" y="-150" name="bottom"/>
  <outline>
    <contour>
      <point x="70" y="368" type="curve" smooth="yes"/>
      <point x="70" y="54"/>
      <point x="141" y="-6"/>
      <point x="323" y="-6" type="curve" smooth="yes"/>
      <point x="373" y="-6"/>
      <point x="460" y="2"/>
      <point x="527" y="14" type="curve"/>
      <point x="527" y="30" type="line"/>
      <point x="486" y="23"/>
      <point x="424" y="16"/>
      <point x="324" y="16" type="curve" smooth="yes"/>
      <point x="159" y="16"/>
      <point x="94" y="66"/>
      <point x="94" y="368" type="curve" smooth="yes"/>
      <point x="94" y="650"/>
      <point x="160" y="716"/>
      <point x="329" y="716" type="curve" smooth="yes"/>
      <point x="405" y="716"/>
      <point x="496" y="707"/>
      <point x="527" y="702" type="curve"/>
      <point x="527" y="718" type="line"/>
      <point x="457" y="731"/>
      <point x="365" y="738"/>
      <point x="331" y="738" type="curve" smooth="yes"/>
      <point x="141" y="738"/>
      <point x="70" y="661"/>
    </contour>
  </outline>
</glyph>
<glyph name="D" format="2">
  <advance width="660"/>
  <unicode hex="0044"/>
  <note>
GF Latin Plus glyph
</note>
  <anchor x="310" y="810" name="top"/>
  <anchor x="310" y="-150" name="bottom"/>
  <outline>
    <contour>
      <point x="112" y="22" type="line"/>
      <point x="112" y="710" type="line"/>
      <point x="361" y="710" type="line" smooth="yes"/>
      <point x="508" y="710"/>
      <point x="566" y="606"/>
      <point x="566" y="366" type="curve" smooth="yes"/>
      <point x="566" y="165"/>
      <point x="500" y="22"/>
      <point x="361" y="22" type="curve" smooth="yes"/>
    </contour>
    <contour>
      <point x="88" y="0" type="line"/>
      <point x="361" y="0" type="line" smooth="yes"/>
      <point x="511" y="0"/>
      <point x="590" y="150"/>
      <point x="590" y="366" type="curve" smooth="yes"/>
      <point x="590" y="616"/>
      <point x="520" y="732"/>
      <point x="361" y="732" type="curve" smooth="yes"/>
      <point x="88" y="732" type="line"/>
    </contour>
  </outline>
</glyph>
<glyph name="E" format="1">
  <advance width="579.0"/>
  <unicode hex="0045"/>
  <note>
    GF Latin Plus glyph
  </note>
  <outline>
    <contour>
      <point x="88" y="123" type="line" smooth="yes"/>
      <point x="88" y="10"/>
      <point x="159" y="-4"/>
      <point x="225" y="-3" type="curve" smooth="yes"/>
      <point x="511" y="3" type="line"/>
      <point x="511" y="19" type="line"/>
      <point x="224" y="19" type="line" smooth="yes"/>
      <point x="169" y="19"/>
      <point x="112" y="29"/>
      <point x="112" y="123" type="curve" smooth="yes"/>
      <point x="112" y="352" type="line"/>
      <point x="471" y="355" type="line"/>
      <point x="471" y="371" type="line"/>
      <point x="112" y="374" type="line"/>
      <point x="112" y="602" type="line" smooth="yes"/>
      <point x="112" y="678"/>
      <point x="152" y="710"/>
      <point x="214" y="710" type="curve" smooth="yes"/>
      <point x="511" y="710" type="line"/>
      <point x="511" y="726" type="line"/>
      <point x="214" y="732" type="line" smooth="yes"/>
      <point x="150" y="733"/>
      <point x="88" y="700"/>
      <point x="88" y="602" type="curve" smooth="yes"/>
    </contour>
    <contour>
      <point x="310" y="810" type="move" name="top"/>
    </contour>
    <contour>
      <point x="310" y="-150" type="move" name="bottom"/>
    </contour>
    <contour>
      <point x="501" y="3" type="move" name="ogonek"/>
    </contour>
  </outline>
</glyph>
<glyph name="F" format="2">
  <advance width="555"/>
  <unicode hex="0046"/>
  <note>
GF Latin Plus glyph
</note>
  <anchor x="310" y="810" name="top"/>
  <outline>
    <contour>
      <point x="88" y="0" type="line"/>
      <point x="112" y="0" type="line"/>
      <point x="112" y="338" type="line"/>
      <point x="471" y="341" type="line"/>
      <point x="471" y="357" type="line"/>
      <point x="112" y="360" type="line"/>
      <point x="112" y="602" type="line" smooth="yes"/>
      <point x="112" y="677"/>
      <point x="152" y="710"/>
      <point x="214" y="710" type="curve" smooth="yes"/>
      <point x="511" y="710" type="line"/>
      <point x="511" y="726" type="line"/>
      <point x="412.099" y="727.998"/>
      <point x="214.0" y="732.0"/>
      <point x="214" y="732" type="curve" smooth="yes"/>
      <point x="150.0" y="733.0"/>
      <point x="88" y="700"/>
      <point x="88" y="602" type="curve" smooth="yes"/>
    </contour>
  </outline>
</glyph>
<glyph name="I" format="2">
  <advance width="200"/>
  <unicode hex="0049"/>
  <note>
GF Latin Plus glyph
</note>
  <anchor x="100" y="810" name="top"/>
  <anchor x="100" y="-150" name="bottom"/>
  <anchor x="102" y="0" name="ogonek"/>
  <outline>
    <contour>
      <point x="88" y="0" type="line"/>
      <point x="112" y="0" type="line"/>
      <point x="112" y="732" type="line"/>
      <point x="88" y="732" type="line"/>
    </contour>
  </outline>
</glyph>
<glyph name="J" format="1">
  <advance width="369.0"/>
  <unicode hex="004A"/>
  <note>
    GF Latin Plus glyph
  </note>
  <outline>
    <contour>
      <point x="27" y="19" type="line"/>
      <point x="54" y="5"/>
      <point x="100" y="-6"/>
      <point x="134" y="-6" type="curve" smooth="yes"/>
      <point x="227" y="-6"/>
      <point x="281" y="26"/>
      <point x="281" y="145" type="curve" smooth="yes"/>
      <point x="281" y="732" type="line"/>
      <point x="257" y="732" type="line"/>
      <point x="257" y="145" type="line" smooth="yes"/>
      <point x="257" y="37"/>
      <point x="205" y="16"/>
      <point x="134" y="16" type="curve" smooth="yes"/>
      <point x="103" y="16"/>
      <point x="56" y="26"/>
      <point x="27" y="35" type="curve"/>
    </contour>
    <contour>
      <point x="269" y="810" type="move" name="top"/>
    </contour>
  </outline>
</glyph>
<glyph name="K" format="2">
  <advance width="573"/>
  <unicode hex="004B"/>
  <note>
GF Latin Plus glyph
</note>
  <anchor x="270" y="810" name="top"/>
  <anchor x="270" y="-150" name="bottom"/>
  <outline>
    <contour>
      <point x="88" y="0" type="line"/>
      <point x="112" y="0" type="line"/>
      <point x="112" y="356" type="line"/>
      <point x="266" y="356" type="line"/>
      <point x="507" y="0" type="line"/>
      <point x="534" y="0" type="line"/>
      <point x="286" y="367" type="line"/>
      <point x="534" y="732" type="line"/>
      <point x="508" y="732" type="line"/>
      <point x="267" y="378" type="line"/>
      <point x="112" y="378" type="line"/>
      <point x="112" y="732" type="line"/>
      <point x="88" y="732" type="line"/>
    </contour>
  </outline>
</glyph>
<glyph name="L" format="2">
  <advance width="529"/>
  <unicode hex="004C"/>
  <note>
GF Latin Plus glyph
</note>
  <anchor x="100" y="810" name="top"/>
  <anchor x="260" y="-150" name="bottom"/>
  <anchor x="152" y="650" name="altcaron"/>
  <anchor x="342" y="400" name="dot"/>
  <outline>
    <contour>
      <point x="88" y="126" type="line" smooth="yes"/>
      <point x="88" y="23"/>
      <point x="151" y="0"/>
      <point x="214" y="0" type="curve" smooth="yes"/>
      <point x="500" y="0" type="line"/>
      <point x="500" y="24" type="line"/>
      <point x="214" y="24" type="line" smooth="yes"/>
      <point x="165" y="24"/>
      <point x="112" y="37"/>
      <point x="112" y="126" type="curve" smooth="yes"/>
      <point x="112" y="732" type="line"/>
      <point x="88" y="732" type="line"/>
    </contour>
  </outline>
</glyph>
<glyph name="O" format="2">
  <advance width="676"/>
  <unicode hex="004F"/>
  <note>
GF Latin Plus glyph
</note>
  <anchor x="338" y="810" name="top"/>
  <anchor x="338" y="-150" name="bottom"/>
  <anchor x="398" y="0" name="ogonek"/>
  <outline>
    <contour>
      <point x="94" y="361" type="curve" smooth="yes"/>
      <point x="94" y="678"/>
      <point x="180" y="716"/>
      <point x="338" y="716" type="curve" smooth="yes"/>
      <point x="508" y="716"/>
      <point x="582" y="678"/>
      <point x="582" y="361" type="curve" smooth="yes"/>
      <point x="582" y="59"/>
      <point x="509.0" y="16.0"/>
      <point x="338" y="16" type="curve" smooth="yes"/>
      <point x="159.0" y="16.0"/>
      <point x="94" y="59"/>
    </contour>
    <contour>
      <point x="70" y="361" type="curve" smooth="yes"/>
      <point x="70" y="37"/>
      <point x="158.0" y="-6.0"/>
      <point x="338" y="-6" type="curve" smooth="yes"/>
      <point x="518.0" y="-6.0"/>
      <point x="606" y="37"/>
      <point x="606" y="361" type="curve" smooth="yes"/>
      <point x="606" y="685"/>
      <point x="521" y="738"/>
      <point x="338" y="738" type="curve" smooth="yes"/>
      <point x="163" y="738"/>
      <point x="70" y="685"/>
    </contour>
  </outline>
</glyph>
<glyph name="P" format="2">
  <advance width="590"/>
  <unicode hex="0050"/>
  <note>
GF Latin Plus glyph
</note>
  <anchor x="278" y="810" name="top"/>
  <outline>
    <contour>
      <point x="112" y="307" type="line"/>
      <point x="112" y="710" type="line"/>
      <point x="364" y="710" type="line" smooth="yes"/>
      <point x="440.0" y="710"/>
      <point x="515.0" y="675.5168539325842"/>
      <point x="515" y="512" type="curve" smooth="yes"/>
      <point x="515.0" y="346.8918918918919"/>
      <point x="438.0" y="307"/>
      <point x="354" y="307" type="curve" smooth="yes"/>
    </contour>
    <contour>
      <point x="88" y="0" type="line"/>
      <point x="112" y="0" type="line"/>
      <point x="112" y="291" type="line"/>
      <point x="157" y="289"/>
      <point x="316" y="285"/>
      <point x="354" y="285" type="curve" smooth="yes"/>
      <point x="432.0" y="285.0"/>
      <point x="540.0" y="323.3816425120773"/>
      <point x="540" y="512" type="curve" smooth="yes"/>
      <point x="540.0" y="697.9"/>
      <point x="443.0" y="732"/>
      <point x="364" y="732" type="curve" smooth="yes"/>
      <point x="88" y="732" type="line"/>
    </contour>
  </outline>
</glyph>
<glyph name="Q" format="2">
  <advance width="676"/>
  <unicode hex="0051"/>
  <note>
GF Latin Plus glyph
</note>
  <outline>
    <contour>
      <point x="368" y="-33" type="line"/>
      <point x="383.91415667355284" y="-107.59760940727905"/>
      <point x="443.5526315789474" y="-148.0"/>
      <point x="500" y="-148" type="curve" smooth="yes"/>
      <point x="517" y="-148"/>
      <point x="533" y="-146"/>
      <point x="548" y="-140" type="curve"/>
      <point x="548" y="-116" type="line"/>
      <point x="535" y="-121"/>
      <point x="519" y="-123"/>
      <point x="503" y="-123" type="curve" smooth="yes"/>
      <point x="456.76978417266184" y="-123.0"/>
      <point x="406.6359129339432" y="-95.00271803645308"/>
      <point x="384" y="-33" type="curve"/>
    </contour>
    <component base="O"/>
  </outline>
</glyph>
<glyph name="R" format="2">
  <advance width="592"/>
  <unicode hex="0052"/>
  <note>
GF Latin Plus glyph
</note>
  <anchor x="288" y="810" name="top"/>
  <anchor x="288" y="-150" name="bottom"/>
  <outline>
    <contour>
      <point x="88" y="0" type="line"/>
      <point x="112" y="0" type="line"/>
      <point x="112" y="329" type="line"/>
      <point x="177.000483163" y="325.9999777"/>
      <point x="302.999933926" y="324.000001247"/>
      <point x="356" y="323" type="curve"/>
      <point x="518" y="0" type="line"/>
      <point x="542" y="0" type="line"/>
      <point x="381" y="323" type="line"/>
      <point x="444" y="326"/>
      <point x="540" y="354"/>
      <point x="540" y="532" type="curve" smooth="yes"/>
      <point x="540" y="711"/>
      <point x="443" y="732"/>
      <point x="364" y="732" type="curve" smooth="yes"/>
      <point x="88" y="732" type="line"/>
    </contour>
    <contour>
      <point x="112" y="345" type="line"/>
      <point x="112" y="710" type="line"/>
      <point x="364" y="710" type="line" smooth="yes"/>
      <point x="440" y="710"/>
      <point x="516" y="686"/>
      <point x="516" y="532" type="curve" smooth="yes"/>
      <point x="516" y="370"/>
      <point x="443" y="345"/>
      <point x="364" y="345" type="curve" smooth="yes"/>
    </contour>
  </outline>
</glyph>
<glyph name="T" format="2">
  <advance width="550"/>
  <unicode hex="0054"/>
  <note>
GF Latin Plus glyph
</note>
  <anchor x="275" y="810" name="top"/>
  <anchor x="275" y="-150" name="bottom"/>
  <outline>
    <contour>
      <point x="16" y="710" type="line"/>
      <point x="263" y="710" type="line"/>
      <point x="263" y="0" type="line"/>
      <point x="287" y="0" type="line"/>
      <point x="287" y="710" type="line"/>
      <point x="534" y="710" type="line"/>
      <point x="534" y="732" type="line"/>
      <point x="16" y="732" type="line"/>
    </contour>
  </outline>
</glyph>
<glyph name="U" format="2">
  <advance width="668"/>
  <unicode hex="0055"/>
  <note>
GF Latin Plus glyph
</note>
  <anchor x="334" y="810" name="top"/>
  <anchor x="334" y="-150" name="bottom"/>
  <anchor x="407" y="0" name="ogonek"/>
  <outline>
    <contour>
      <point x="78" y="220" type="line" smooth="yes"/>
      <point x="78" y="49"/>
      <point x="168" y="-6"/>
      <point x="334" y="-6" type="curve" smooth="yes"/>
      <point x="500" y="-6"/>
      <point x="590" y="49"/>
      <point x="590" y="220" type="curve" smooth="yes"/>
      <point x="590" y="732" type="line"/>
      <point x="566" y="732" type="line"/>
      <point x="566" y="220" type="line" smooth="yes"/>
      <point x="566" y="58"/>
      <point x="480" y="16"/>
      <point x="334" y="16" type="curve" smooth="yes"/>
      <point x="188" y="16"/>
      <point x="102" y="58"/>
      <point x="102" y="220" type="curve" smooth="yes"/>
      <point x="102" y="732" type="line"/>
      <point x="78" y="732" type="line"/>
    </contour>
  </outline>
</glyph>
<glyph name="W" format="2">
  <advance width="991"/>
  <unicode hex="0057"/>
  <note>
GF Latin Plus glyph
</note>
  <anchor x="492" y="810" name="top"/>
  <anchor x="492" y="-150" name="bottom"/>
  <outline>
    <contour>
      <point x="48" y="732" type="line"/>
      <point x="246" y="0" type="line"/>
      <point x="280" y="0" type="line"/>
      <point x="496" y="708" type="line"/>
      <point x="711" y="0" type="line"/>
      <point x="745" y="0" type="line"/>
      <point x="943" y="732" type="line"/>
      <point x="919" y="732" type="line"/>
      <point x="728" y="21" type="line"/>
      <point x="513" y="732" type="line"/>
      <point x="479" y="732" type="line"/>
      <point x="263" y="21" type="line"/>
      <point x="73" y="732" type="line"/>
    </contour>
  </outline>
</glyph>
<glyph name="X" format="2">
  <advance width="591"/>
  <unicode hex="0058"/>
  <note>
GF Latin Plus glyph
</note>
  <anchor x="295" y="810" name="top"/>
  <anchor x="295" y="-150" name="bottom"/>
  <outline>
    <contour>
      <point x="53" y="0" type="line"/>
      <point x="79" y="0" type="line"/>
      <point x="298" y="348" type="line"/>
      <point x="286" y="370" type="line"/>
    </contour>
    <contour>
      <point x="298" y="381" type="line"/>
      <point x="306" y="352" type="line"/>
      <point x="541" y="732" type="line"/>
      <point x="515" y="732" type="line"/>
    </contour>
    <contour>
      <point x="50" y="732" type="line"/>
      <point x="515" y="0" type="line"/>
      <point x="541" y="0" type="line"/>
      <point x="76" y="732" type="line"/>
    </contour>
  </outline>
</glyph>
<glyph name="Y" format="2">
  <advance width="610"/>
  <unicode hex="0059"/>
  <note>
GF Latin Plus glyph
</note>
  <anchor x="305" y="810" name="top"/>
  <anchor x="305" y="-150" name="bottom"/>
  <anchor x="311" y="0" name="ogonek"/>
  <outline>
    <contour>
      <point x="50" y="732" type="line"/>
      <point x="293" y="260" type="line"/>
      <point x="293" y="0" type="line"/>
      <point x="317" y="0" type="line"/>
      <point x="317" y="260" type="line"/>
      <point x="560" y="732" type="line"/>
      <point x="534" y="732" type="line"/>
      <point x="305" y="283" type="line"/>
      <point x="76" y="732" type="line"/>
    </contour>
  </outline>
</glyph>
<glyph name="Z" format="2">
  <advance width="549"/>
  <unicode hex="005A"/>
  <note>
GF Latin Plus glyph
</note>
  <anchor x="275" y="810" name="top"/>
  <anchor x="275" y="-150" name="bottom"/>
  <outline>
    <contour>
      <point x="47" y="0" type="line"/>
      <point x="510" y="0" type="line"/>
      <point x="510" y="22" type="line"/>
      <point x="76" y="22" type="line"/>
      <point x="510" y="710" type="line"/>
      <point x="510" y="732" type="line"/>
      <point x="47" y="732" type="line"/>
      <point x="47" y="710" type="line"/>
      <point x="481" y="710" type="line"/>
      <point x="47" y="22" type="line"/>
    </contour>
  </outline>
</glyph>
<glyph name="bracketleft" format="2">
  <advance width="327"/>
  <unicode hex="005B"/>
  <note>
GF Latin Plus glyph
</note>
  <outline>
    <contour>
      <point x="115" y="-38" type="line" smooth="yes"/>
      <point x="115" y="-98"/>
      <point x="130" y="-210"/>
      <point x="251" y="-210" type="curve" smooth="yes"/>
      <point x="301" y="-210" type="line"/>
      <point x="301" y="-188" type="line"/>
      <point x="251" y="-188" type="line" smooth="yes"/>
      <point x="168.0" y="-188"/>
      <point x="139" y="-119.08108108108108"/>
      <point x="139" y="-38" type="curve" smooth="yes"/>
      <point x="139" y="670" type="line" smooth="yes"/>
      <point x="139" y="776.418918918919"/>
      <point x="185.0" y="820"/>
      <point x="251" y="820" type="curve" smooth="yes"/>
      <point x="301" y="820" type="line"/>
      <point x="301" y="842" type="line"/>
      <point x="251" y="842" type="line" smooth="yes"/>
      <point x="130.0" y="842"/>
      <point x="115" y="730.0"/>
      <point x="115" y="670" type="curve" smooth="yes"/>
    </contour>
  </outline>
</glyph>
<glyph name="bracketright" format="2">
  <advance width="327"/>
  <unicode hex="005D"/>
  <note>
GF Latin Plus glyph
</note>
  <outline>
    <contour>
      <point x="27" y="-188" type="line"/>
      <point x="27" y="-210" type="line"/>
      <point x="77" y="-210" type="line" smooth="yes"/>
      <point x="198" y="-210"/>
      <point x="213" y="-98"/>
      <point x="213" y="-38" type="curve" smooth="yes"/>
      <point x="213" y="670" type="line" smooth="yes"/>
      <point x="213" y="730"/>
      <point x="198" y="842"/>
      <point x="77" y="842" type="curve" smooth="yes"/>
      <point x="27" y="842" type="line"/>
      <point x="27" y="820" type="line"/>
      <point x="77" y="820" type="line" smooth="yes"/>
      <point x="143.0" y="820"/>
      <point x="189" y="776.418918918919"/>
      <point x="189" y="670" type="curve" smooth="yes"/>
      <point x="189" y="-38" type="line" smooth="yes"/>
      <point x="189" y="-119.08108108108108"/>
      <point x="160.0" y="-188"/>
      <point x="77" y="-188" type="curve" smooth="yes"/>
    </contour>
  </outline>
</glyph>
<glyph name="a" format="2">
  <advance width="540"/>
  <unicode hex="0061"/>
  <note>
GF Latin Plus glyph
</note>
  <anchor x="270" y="650" name="top"/>
  <anchor x="270" y="-150" name="bottom"/>
  <anchor x="443" y="0" name="ogonek"/>
  <outline>
    <contour>
      <point x="78" y="131" type="curve" smooth="yes"/>
      <point x="78" y="157" type="line" smooth="yes"/>
      <point x="78" y="222"/>
      <point x="112" y="272"/>
      <point x="207" y="275" type="curve" smooth="yes"/>
      <point x="429" y="282" type="line"/>
      <point x="429" y="80" type="line"/>
      <point x="429" y="80"/>
      <point x="267" y="16"/>
      <point x="187" y="18" type="curve" smooth="yes"/>
      <point x="138.0" y="19.0"/>
      <point x="78" y="46"/>
    </contour>
    <contour>
      <point x="54" y="126" type="line" smooth="yes"/>
      <point x="54" y="41"/>
      <point x="111" y="-6"/>
      <point x="187" y="-6" type="curve" smooth="yes"/>
      <point x="285" y="-6"/>
      <point x="427" y="64"/>
      <point x="429" y="64" type="curve"/>
      <point x="437" y="0" type="line"/>
      <point x="453" y="0" type="line"/>
      <point x="453" y="387" type="line" smooth="yes"/>
      <point x="453" y="487.0"/>
      <point x="404.00015610873044" y="542.0000012195994"/>
      <point x="276" y="541" type="curve" smooth="yes"/>
      <point x="202.55022854804514" y="540.0702560575702"/>
      <point x="145.84430685467123" y="536.8597469713187"/>
      <point x="104" y="535" type="curve"/>
      <point x="104" y="519" type="line"/>
      <point x="274" y="519" type="line" smooth="yes"/>
      <point x="396" y="519"/>
      <point x="429" y="466.0"/>
      <point x="429" y="387" type="curve" smooth="yes"/>
      <point x="429" y="298" type="line"/>
      <point x="213" y="298" type="line" smooth="yes"/>
      <point x="109" y="298"/>
      <point x="54" y="242"/>
      <point x="54" y="157" type="curve" smooth="yes"/>
    </contour>
  </outline>
</glyph>
<glyph name="b" format="2">
  <advance width="572"/>
  <unicode hex="0062"/>
  <note>
GF Latin Plus glyph
</note>
  <anchor x="103" y="850" name="top"/>
  <outline>
    <contour>
      <point x="115" y="73" type="curve"/>
      <point x="115" y="458" type="line"/>
      <point x="183" y="493"/>
      <point x="233" y="515"/>
      <point x="310" y="515" type="curve" smooth="yes"/>
      <point x="411" y="515"/>
      <point x="478" y="468"/>
      <point x="478" y="263" type="curve" smooth="yes"/>
      <point x="478" y="109"/>
      <point x="425" y="16"/>
      <point x="310" y="16" type="curve" smooth="yes"/>
      <point x="231" y="16"/>
      <point x="168" y="46"/>
    </contour>
    <contour>
      <point x="91" y="0" type="line"/>
      <point x="107" y="0" type="line"/>
      <point x="115" y="57" type="line"/>
      <point x="156" y="31"/>
      <point x="232" y="-6"/>
      <point x="310" y="-6" type="curve" smooth="yes"/>
      <point x="451" y="-6"/>
      <point x="502" y="108"/>
      <point x="502" y="263" type="curve" smooth="yes"/>
      <point x="502" y="469"/>
      <point x="431" y="537"/>
      <point x="310" y="537" type="curve" smooth="yes"/>
      <point x="253" y="537"/>
      <point x="174" y="509"/>
      <point x="115" y="474" type="curve"/>
      <point x="115" y="763" type="line"/>
      <point x="91" y="763" type="line"/>
    </contour>
  </outline>
</glyph>
<glyph name="c" format="2">
  <advance width="490"/>
  <unicode hex="0063"/>
  <note>
GF Latin Plus glyph
</note>
  <anchor x="270" y="650" name="top"/>
  <anchor x="270" y="-150" name="bottom"/>
  <outline>
    <contour>
      <point x="70" y="266" type="curve" smooth="yes"/>
      <point x="70.0" y="42.0"/>
      <point x="158.69565217391306" y="-6.0"/>
      <point x="274" y="-6" type="curve" smooth="yes"/>
      <point x="344.9387755102041" y="-6.0"/>
      <point x="405.0934283364551" y="-1.796262866541796"/>
      <point x="450" y="0" type="curve"/>
      <point x="450" y="16" type="line"/>
      <point x="274" y="16" type="line" smooth="yes"/>
      <point x="172.75" y="16"/>
      <point x="94.0" y="63.0"/>
      <point x="94" y="262" type="curve" smooth="yes"/>
      <point x="94.0" y="470.0"/>
      <point x="164.94117647058823" y="514"/>
      <point x="274" y="514" type="curve" smooth="yes"/>
      <point x="442" y="514" type="line"/>
      <point x="442" y="530" type="line"/>
      <point x="391.01666298390757" y="533.7765434826736"/>
      <point x="318.35955056179773" y="536.0"/>
      <point x="274" y="536" type="curve" smooth="yes"/>
      <point x="154.12371134020617" y="536.0"/>
      <point x="70.0" y="488.0"/>
    </contour>
  </outline>
</glyph>
<glyph name="d" format="2">
  <advance width="568"/>
  <unicode hex="0064"/>
  <note>
GF Latin Plus glyph
</note>
  <anchor x="290" y="-150" name="bottom"/>
  <anchor x="501" y="650" name="altcaron"/>
  <anchor x="469" y="850" name="top"/>
  <outline>
    <contour>
      <point x="94" y="263" type="curve" smooth="yes"/>
      <point x="94" y="451"/>
      <point x="145" y="515"/>
      <point x="272" y="515" type="curve" smooth="yes"/>
      <point x="344.60752688172045" y="515.0"/>
      <point x="391.3327056174582" y="501.9143030985335"/>
      <point x="457" y="485" type="curve"/>
      <point x="457" y="73" type="line"/>
      <point x="404.21457762796405" y="46.109313131226955"/>
      <point x="340.56796116504853" y="16.0"/>
      <point x="262" y="16" type="curve" smooth="yes"/>
      <point x="141.84810126582278" y="16.0"/>
      <point x="94" y="94"/>
    </contour>
    <contour>
      <point x="70" y="263" type="curve" smooth="yes"/>
      <point x="70" y="85"/>
      <point x="125.91208791208791" y="-6.0"/>
      <point x="262" y="-6" type="curve" smooth="yes"/>
      <point x="329.20873786407765" y="-6.0"/>
      <point x="431.07153988430287" y="33.066036816279585"/>
      <point x="457" y="57" type="curve"/>
      <point x="465" y="0" type="line"/>
      <point x="481" y="0" type="line"/>
      <point x="481" y="763" type="line"/>
      <point x="457" y="763" type="line"/>
      <point x="457" y="501" type="line"/>
      <point x="408.69730302651294" y="517.7580785418221"/>
      <point x="339.8989361702128" y="537.0"/>
      <point x="272" y="537" type="curve" smooth="yes"/>
      <point x="130" y="537"/>
      <point x="70" y="461"/>
    </contour>
  </outline>
</glyph>
<glyph name="e" format="2">
  <advance width="544"/>
  <unicode hex="0065"/>
  <note>
GF Latin Plus glyph
</note>
  <anchor x="270.0" y="650.0" name="top"/>
  <anchor x="270.0" y="-150.0" name="bottom"/>
  <anchor x="454.0" y="23.0" name="ogonek"/>
  <outline>
    <contour>
      <point x="94" y="273" type="line"/>
      <point x="94" y="464"/>
      <point x="135" y="515"/>
      <point x="283" y="515" type="curve" smooth="yes"/>
      <point x="405" y="515"/>
      <point x="450.0" y="483.0"/>
      <point x="450" y="367" type="curve" smooth="yes"/>
      <point x="450" y="295"/>
      <point x="414" y="273"/>
      <point x="338" y="273" type="curve" smooth="yes"/>
    </contour>
    <contour>
      <point x="70" y="268" type="curve" smooth="yes"/>
      <point x="70.0" y="63.0"/>
      <point x="117.27272727272728" y="-6.0"/>
      <point x="278" y="-6" type="curve" smooth="yes"/>
      <point x="347.2755102040816" y="-6.0"/>
      <point x="396.60409465640674" y="-4.746190517154456"/>
      <point x="464" y="0" type="curve"/>
      <point x="464" y="16" type="line"/>
      <point x="280" y="16" type="line" smooth="yes"/>
      <point x="128.875" y="16"/>
      <point x="94.0" y="79.0"/>
      <point x="94" y="251" type="curve"/>
      <point x="338" y="251" type="line" smooth="yes"/>
      <point x="422" y="251"/>
      <point x="474" y="284"/>
      <point x="474" y="367" type="curve" smooth="yes"/>
      <point x="474.0" y="496.0"/>
      <point x="410" y="537"/>
      <point x="283" y="537" type="curve" smooth="yes"/>
      <point x="127" y="537"/>
      <point x="70" y="476"/>
    </contour>
  </outline>
</glyph>
<glyph name="g" format="2">
  <advance width="571"/>
  <unicode hex="0067"/>
  <note>
GF Latin Plus glyph
</note>
  <anchor x="288" y="650" name="top"/>
  <outline>
    <contour>
      <point x="95" y="364" type="curve" smooth="yes"/>
      <point x="95.0" y="472.61146496815286"/>
      <point x="157.0" y="511"/>
      <point x="253" y="511" type="curve" smooth="yes"/>
      <point x="311" y="511" type="line" smooth="yes"/>
      <point x="396.0" y="511"/>
      <point x="461.0" y="470.5748502994012"/>
      <point x="461" y="354" type="curve" smooth="yes"/>
      <point x="461.0" y="284.96644295302013"/>
      <point x="431.0" y="215"/>
      <point x="298" y="215" type="curve" smooth="yes"/>
      <point x="236" y="215" type="line" smooth="yes"/>
      <point x="151.0" y="215"/>
      <point x="95.0" y="258.1069182389937"/>
    </contour>
    <contour>
      <point x="71" y="364" type="curve" smooth="yes"/>
      <point x="71.0" y="305.73493975903614"/>
      <point x="90.51939206689975" y="236.8227956477636"/>
      <point x="175" y="208" type="curve"/>
      <point x="116.95381355040051" y="196.99124050093803"/>
      <point x="83.0" y="173.02061855670104"/>
      <point x="83" y="121" type="curve" smooth="yes"/>
      <point x="83.0" y="71.6764705882353"/>
      <point x="124.0" y="43"/>
      <point x="177" y="43" type="curve" smooth="yes"/>
      <point x="371" y="43" type="line" smooth="yes"/>
      <point x="492.16184971098266" y="43"/>
      <point x="524" y="-4"/>
      <point x="524" y="-73" type="curve" smooth="yes"/>
      <point x="524" y="-98" type="line" smooth="yes"/>
      <point x="524" y="-182"/>
      <point x="461" y="-221"/>
      <point x="356" y="-221" type="curve" smooth="yes"/>
      <point x="216" y="-221" type="line" smooth="yes"/>
      <point x="124" y="-221"/>
      <point x="62" y="-193"/>
      <point x="62" y="-108" type="curve" smooth="yes"/>
      <point x="62" y="-78" type="line" smooth="yes"/>
      <point x="62" y="10"/>
      <point x="137.90322580645162" y="43.0"/>
      <point x="209" y="43" type="curve"/>
      <point x="209" y="63" type="line"/>
      <point x="131.58100558659217" y="63.0"/>
      <point x="40" y="19.692857142857136"/>
      <point x="40" y="-78" type="curve" smooth="yes"/>
      <point x="40" y="-108" type="line" smooth="yes"/>
      <point x="40" y="-201"/>
      <point x="110" y="-243"/>
      <point x="216" y="-243" type="curve" smooth="yes"/>
      <point x="356" y="-243" type="line" smooth="yes"/>
      <point x="478" y="-243"/>
      <point x="546" y="-189"/>
      <point x="546" y="-98" type="curve" smooth="yes"/>
      <point x="546" y="-70" type="line" smooth="yes"/>
      <point x="546" y="16"/>
      <point x="495.7435897435897" y="65"/>
      <point x="371" y="65" type="curve" smooth="yes"/>
      <point x="171" y="65" type="line" smooth="yes"/>
      <point x="142.0" y="65"/>
      <point x="107.0" y="80.82608695652175"/>
      <point x="107" y="121" type="curve" smooth="yes"/>
      <point x="107.0" y="175.4390243902439"/>
      <point x="150.0" y="193"/>
      <point x="223" y="193" type="curve" smooth="yes"/>
      <point x="300" y="193" type="line" smooth="yes"/>
      <point x="444.0" y="193"/>
      <point x="485.0" y="279.6198830409357"/>
      <point x="485" y="354" type="curve" smooth="yes"/>
      <point x="485.0" y="467.7544910179641"/>
      <point x="426.6331110446962" y="495.1778855540867"/>
      <point x="394" y="511" type="curve"/>
      <point x="545" y="517" type="line"/>
      <point x="545" y="533" type="line"/>
      <point x="263" y="533" type="line" smooth="yes"/>
      <point x="158.0" y="533"/>
      <point x="71.0" y="491.4581005586592"/>
    </contour>
  </outline>
</glyph>
<glyph name="i" format="2">
  <advance width="206"/>
  <unicode hex="0069"/>
  <note>
GF Latin Plus glyph
</note>
  <anchor x="103" y="-150" name="bottom"/>
  <anchor x="105" y="0" name="ogonek"/>
  <outline>
    <contour>
      <point x="86" y="652" type="line" smooth="yes"/>
      <point x="86" y="645"/>
      <point x="91" y="640"/>
      <point x="98" y="640" type="curve" smooth="yes"/>
      <point x="109" y="640" type="line" smooth="yes"/>
      <point x="116" y="640"/>
      <point x="120" y="644"/>
      <point x="120" y="652" type="curve" smooth="yes"/>
      <point x="120" y="714" type="line" smooth="yes"/>
      <point x="120" y="721"/>
      <point x="117" y="726"/>
      <point x="109" y="726" type="curve" smooth="yes"/>
      <point x="98" y="726" type="line" smooth="yes"/>
      <point x="90" y="726"/>
      <point x="86" y="722"/>
      <point x="86" y="714" type="curve" smooth="yes"/>
    </contour>
    <component base="dotlessi"/>
  </outline>
</glyph>
<glyph name="j" format="2">
  <advance width="206"/>
  <unicode hex="006A"/>
  <note>
GF Latin Plus glyph
</note>
  <outline>
    <contour>
      <point x="86" y="652" type="line" smooth="yes"/>
      <point x="86" y="645"/>
      <point x="91" y="640"/>
      <point x="98" y="640" type="curve" smooth="yes"/>
      <point x="109" y="640" type="line" smooth="yes"/>
      <point x="116" y="640"/>
      <point x="120" y="644"/>
      <point x="120" y="652" type="curve" smooth="yes"/>
      <point x="120" y="714" type="line" smooth="yes"/>
      <point x="120" y="721"/>
      <point x="117" y="726"/>
      <point x="109" y="726" type="curve" smooth="yes"/>
      <point x="98" y="726" type="line" smooth="yes"/>
      <point x="90" y="726"/>
      <point x="86" y="722"/>
      <point x="86" y="714" type="curve" smooth="yes"/>
    </contour>
    <component base="jdotless"/>
  </outline>
</glyph>
<glyph name="k" format="2">
  <advance width="468"/>
  <unicode hex="006B"/>
  <note>
GF Latin Plus glyph
</note>
  <anchor x="240" y="-150" name="bottom"/>
  <outline>
    <contour>
      <point x="91" y="0" type="line"/>
      <point x="115" y="0" type="line"/>
      <point x="115" y="276" type="line"/>
      <point x="198" y="276" type="line"/>
      <point x="409" y="0" type="line"/>
      <point x="440" y="0" type="line"/>
      <point x="219" y="286" type="line"/>
      <point x="431" y="531" type="line"/>
      <point x="401" y="531" type="line"/>
      <point x="202" y="298" type="line"/>
      <point x="115" y="298" type="line"/>
      <point x="115" y="763" type="line"/>
      <point x="91" y="763" type="line"/>
    </contour>
  </outline>
</glyph>
<glyph name="l" format="2">
  <advance width="278"/>
  <unicode hex="006C"/>
  <note>
GF Latin Plus glyph
</note>
  <anchor x="150" y="-150" name="bottom"/>
  <anchor x="135" y="650" name="altcaron"/>
  <anchor x="103" y="900" name="top"/>
  <anchor x="214" y="350" name="dot"/>
  <outline>
    <contour>
      <point x="91" y="169" type="line" smooth="yes"/>
      <point x="91" y="35"/>
      <point x="135.47692307692307" y="0"/>
      <point x="209" y="0" type="curve" smooth="yes"/>
      <point x="269" y="0" type="line"/>
      <point x="269" y="16" type="line"/>
      <point x="205" y="23" type="line" smooth="yes"/>
      <point x="150.16541625418807" y="28.99753259719818"/>
      <point x="115" y="48"/>
      <point x="115" y="169" type="curve" smooth="yes"/>
      <point x="115" y="763" type="line"/>
      <point x="91" y="763" type="line"/>
    </contour>
  </outline>
</glyph>
<glyph name="m" format="2">
  <advance width="962"/>
  <unicode hex="006D"/>
  <note>
GF Latin Plus glyph
</note>
  <anchor x="480" y="650" name="top"/>
  <anchor x="480" y="-150" name="bottom"/>
  <outline>
    <contour>
      <point x="91" y="0" type="line"/>
      <point x="115" y="0" type="line"/>
      <point x="115" y="455" type="line"/>
      <point x="189.55551887301078" y="495.30028047189774"/>
      <point x="243.0" y="518.0"/>
      <point x="331" y="518" type="curve" smooth="yes"/>
      <point x="420.0" y="518.0"/>
      <point x="471" y="450.0821917808219"/>
      <point x="471" y="370" type="curve" smooth="yes"/>
      <point x="471" y="0" type="line"/>
      <point x="495" y="0" type="line"/>
      <point x="495" y="370" type="line" smooth="yes"/>
      <point x="495" y="397"/>
      <point x="489" y="422"/>
      <point x="479" y="446" type="curve"/>
      <point x="550.4940021912355" y="486.2783110936538"/>
      <point x="634.0" y="518.0"/>
      <point x="710" y="518" type="curve" smooth="yes"/>
      <point x="799.0" y="518.0"/>
      <point x="851" y="450.0821917808219"/>
      <point x="851" y="370" type="curve" smooth="yes"/>
      <point x="851" y="0" type="line"/>
      <point x="875" y="0" type="line"/>
      <point x="875" y="370" type="line" smooth="yes"/>
      <point x="875" y="458"/>
      <point x="816" y="540"/>
      <point x="710" y="540" type="curve" smooth="yes"/>
      <point x="630" y="540"/>
      <point x="526" y="497"/>
      <point x="474" y="458" type="curve"/>
      <point x="448" y="506"/>
      <point x="399" y="540"/>
      <point x="331" y="540" type="curve" smooth="yes"/>
      <point x="250" y="540"/>
      <point x="173" y="507"/>
      <point x="115" y="469" type="curve"/>
      <point x="105" y="531" type="line"/>
      <point x="91" y="531" type="line"/>
    </contour>
  </outline>
</glyph>
<glyph name="n" format="1">
  <advance width="582.0"/>
  <unicode hex="006E"/>
  <note>
    GF Latin Plus glyph
  </note>
  <outline>
    <contour>
      <point x="91" y="0" type="line"/>
      <point x="115" y="0" type="line"/>
      <point x="115" y="455" type="line"/>
      <point x="189.55551887301078" y="495.30028047189774"/>
      <point x="243.0" y="518.0"/>
      <point x="331" y="518" type="curve" smooth="yes"/>
      <point x="420.0" y="518.0"/>
      <point x="471" y="450.0821917808219"/>
      <point x="471" y="370" type="curve" smooth="yes"/>
      <point x="471" y="0" type="line"/>
      <point x="495" y="0" type="line"/>
      <point x="495" y="370" type="line" smooth="yes"/>
      <point x="495" y="458"/>
      <point x="437" y="540"/>
      <point x="331" y="540" type="curve" smooth="yes"/>
      <point x="250" y="540"/>
      <point x="173" y="507"/>
      <point x="115" y="469" type="curve"/>
      <point x="105" y="531" type="line"/>
      <point x="91" y="531" type="line"/>
    </contour>
    <contour>
      <point x="290" y="650" type="move" name="top"/>
    </contour>
    <contour>
      <point x="290" y="-150" type="move" name="bottom"/>
    </contour>
  </outline>
</glyph>
<glyph name="o" format="2">
  <advance width="578"/>
  <unicode hex="006F"/>
  <note>
GF Latin Plus glyph
</note>
  <anchor x="288" y="650" name="top"/>
  <anchor x="288" y="-150" name="bottom"/>
  <anchor x="322" y="0" name="ogonek"/>
  <outline>
    <contour>
      <point x="94" y="266" type="curve" smooth="yes"/>
      <point x="94" y="486"/>
      <point x="165" y="515"/>
      <point x="288" y="515" type="curve" smooth="yes"/>
      <point x="411" y="515"/>
      <point x="484" y="486"/>
      <point x="484" y="266" type="curve" smooth="yes"/>
      <point x="484" y="46"/>
      <point x="411" y="16"/>
      <point x="288" y="16" type="curve" smooth="yes"/>
      <point x="165" y="16"/>
      <point x="94" y="46"/>
    </contour>
    <contour>
      <point x="70" y="266" type="curve" smooth="yes"/>
      <point x="70" y="36"/>
      <point x="151" y="-6"/>
      <point x="288" y="-6" type="curve" smooth="yes"/>
      <point x="425" y="-6"/>
      <point x="508" y="36"/>
      <point x="508" y="266" type="curve" smooth="yes"/>
      <point x="508" y="496"/>
      <point x="425" y="537"/>
      <point x="288" y="537" type="curve" smooth="yes"/>
      <point x="151" y="537"/>
      <point x="70" y="496"/>
    </contour>
  </outline>
</glyph>
<glyph name="q" format="2">
  <advance width="568"/>
  <unicode hex="0071"/>
  <note>
GF Latin Plus glyph
</note>
  <outline>
    <contour>
      <point x="94" y="268" type="curve" smooth="yes"/>
      <point x="94" y="405"/>
      <point x="134" y="515"/>
      <point x="262" y="515" type="curve" smooth="yes"/>
      <point x="457" y="515" type="line"/>
      <point x="457" y="73" type="line"/>
      <point x="389" y="36"/>
      <point x="328" y="16"/>
      <point x="254" y="16" type="curve" smooth="yes"/>
      <point x="140" y="16"/>
      <point x="94" y="97"/>
    </contour>
    <contour>
      <point x="70" y="268" type="curve" smooth="yes"/>
      <point x="70" y="90"/>
      <point x="120" y="-6"/>
      <point x="254" y="-6" type="curve" smooth="yes"/>
      <point x="321" y="-6"/>
      <point x="395" y="18"/>
      <point x="457" y="57" type="curve"/>
      <point x="457" y="-237" type="line"/>
      <point x="481" y="-237" type="line"/>
      <point x="481" y="529" type="line"/>
      <point x="432" y="533"/>
      <point x="360" y="537"/>
      <point x="265" y="537" type="curve" smooth="yes"/>
      <point x="129" y="537"/>
      <point x="70" y="436"/>
    </contour>
  </outline>
</glyph>
<glyph name="r" format="2">
  <advance width="404"/>
  <unicode hex="0072"/>
  <note>
GF Latin Plus glyph
</note>
  <anchor x="200" y="650" name="top"/>
  <anchor x="103" y="-150" name="bottom"/>
  <outline>
    <contour>
      <point x="91" y="0" type="line"/>
      <point x="115" y="0" type="line"/>
      <point x="115" y="414" type="line"/>
      <point x="187.21555841746112" y="478.4084710209788"/>
      <point x="237.9090909090909" y="513.0"/>
      <point x="323" y="513" type="curve" smooth="yes"/>
      <point x="344.09375" y="513.0"/>
      <point x="362" y="510"/>
      <point x="377" y="507" type="curve"/>
      <point x="377" y="531" type="line"/>
      <point x="362.9247145136593" y="534.7040224964054"/>
      <point x="344.09375" y="537.0"/>
      <point x="323" y="537" type="curve" smooth="yes"/>
      <point x="236.85858585858585" y="537.0"/>
      <point x="170.9254303409777" y="492.7934656460101"/>
      <point x="115" y="430" type="curve"/>
      <point x="107" y="531" type="line"/>
      <point x="91" y="531" type="line"/>
    </contour>
  </outline>
</glyph>
<glyph name="s" format="2">
  <advance width="496"/>
  <unicode hex="0073"/>
  <note>
GF Latin Plus glyph
</note>
  <anchor x="235" y="650" name="top"/>
  <anchor x="235" y="-150" name="bottom"/>
  <outline>
    <contour>
      <point x="60" y="373" type="line" smooth="yes"/>
      <point x="60" y="279"/>
      <point x="120" y="252"/>
      <point x="218" y="252" type="curve" smooth="yes"/>
      <point x="286" y="252" type="line" smooth="yes"/>
      <point x="371" y="252"/>
      <point x="412" y="215.0"/>
      <point x="412" y="152" type="curve" smooth="yes"/>
      <point x="412" y="123" type="line" smooth="yes"/>
      <point x="412" y="27"/>
      <point x="349" y="16"/>
      <point x="266" y="16" type="curve" smooth="yes"/>
      <point x="62" y="16" type="line"/>
      <point x="62" y="0" type="line"/>
      <point x="90" y="-2"/>
      <point x="225" y="-6"/>
      <point x="266" y="-6" type="curve" smooth="yes"/>
      <point x="358" y="-6"/>
      <point x="436" y="15.680672268907557"/>
      <point x="436" y="123" type="curve" smooth="yes"/>
      <point x="436" y="152" type="line" smooth="yes"/>
      <point x="436" y="234.0"/>
      <point x="374" y="276"/>
      <point x="286" y="276" type="curve" smooth="yes"/>
      <point x="218" y="276" type="line" smooth="yes"/>
      <point x="139" y="276"/>
      <point x="84" y="288.264367816092"/>
      <point x="84" y="373" type="curve" smooth="yes"/>
      <point x="84" y="399" type="line" smooth="yes"/>
      <point x="84" y="488"/>
      <point x="135" y="513"/>
      <point x="226" y="513" type="curve" smooth="yes"/>
      <point x="417" y="513" type="line"/>
      <point x="417" y="529" type="line"/>
      <point x="370" y="534"/>
      <point x="273" y="536"/>
      <point x="226" y="536" type="curve" smooth="yes"/>
      <point x="118.0" y="536.0"/>
      <point x="60" y="497"/>
      <point x="60" y="399" type="curve" smooth="yes"/>
    </contour>
  </outline>
</glyph>
<glyph name="t" format="2">
  <advance width="350"/>
  <unicode hex="0074"/>
  <note>
GF Latin Plus glyph
</note>
  <anchor x="180" y="-150" name="bottom"/>
  <anchor x="155" y="650" name="altcaron"/>
  <anchor x="130" y="730" name="top"/>
  <outline>
    <contour>
      <point x="27" y="509" type="line"/>
      <point x="113" y="509" type="line"/>
      <point x="111" y="158" type="line" smooth="yes"/>
      <point x="110" y="47"/>
      <point x="160" y="0"/>
      <point x="246" y="0" type="curve" smooth="yes"/>
      <point x="301" y="0" type="line"/>
      <point x="301" y="16" type="line"/>
      <point x="237" y="22" type="line" smooth="yes"/>
      <point x="198.03342229097768" y="25.653116660220842"/>
      <point x="135" y="39"/>
      <point x="135" y="158" type="curve" smooth="yes"/>
      <point x="135" y="509" type="line"/>
      <point x="310" y="509" type="line"/>
      <point x="310" y="531" type="line"/>
      <point x="135" y="531" type="line"/>
      <point x="135" y="680" type="line"/>
      <point x="119" y="680" type="line"/>
      <point x="111" y="531" type="line"/>
      <point x="27" y="525" type="line"/>
    </contour>
  </outline>
</glyph>
<glyph name="u" format="2">
  <advance width="582"/>
  <unicode hex="0075"/>
  <note>
GF Latin Plus glyph
</note>
  <anchor x="280" y="650" name="top"/>
  <anchor x="280" y="-150" name="bottom"/>
  <anchor x="485" y="0" name="ogonek"/>
  <outline>
    <contour>
      <point x="91" y="159" type="line" smooth="yes"/>
      <point x="91" y="39"/>
      <point x="149" y="-6"/>
      <point x="255" y="-6" type="curve" smooth="yes"/>
      <point x="336" y="-6"/>
      <point x="413" y="24"/>
      <point x="471" y="62" type="curve"/>
      <point x="481" y="0" type="line"/>
      <point x="495" y="0" type="line"/>
      <point x="495" y="531" type="line"/>
      <point x="471" y="531" type="line"/>
      <point x="471" y="76" type="line"/>
      <point x="397" y="36"/>
      <point x="343" y="16"/>
      <point x="261" y="16" type="curve" smooth="yes"/>
      <point x="166" y="16"/>
      <point x="115" y="47"/>
      <point x="115" y="159" type="curve" smooth="yes"/>
      <point x="115" y="531" type="line"/>
      <point x="91" y="531" type="line"/>
    </contour>
  </outline>
</glyph>
<glyph name="v" format="2">
  <advance width="514"/>
  <unicode hex="0076"/>
  <note>
GF Latin Plus glyph
</note>
  <outline>
    <contour>
      <point x="24" y="531" type="line"/>
      <point x="242" y="0" type="line"/>
      <point x="268" y="0" type="line"/>
      <point x="490" y="531" type="line"/>
      <point x="466" y="531" type="line"/>
      <point x="255" y="23" type="line"/>
      <point x="48" y="531" type="line"/>
    </contour>
  </outline>
</glyph>
<glyph name="w" format="2">
  <advance width="774"/>
  <unicode hex="0077"/>
  <note>
GF Latin Plus glyph
</note>
  <anchor x="390" y="-150" name="bottom"/>
  <anchor x="390" y="650" name="top"/>
  <outline>
    <contour>
      <point x="24" y="531" type="line"/>
      <point x="202" y="0" type="line"/>
      <point x="228" y="0" type="line"/>
      <point x="387" y="508" type="line"/>
      <point x="546" y="0" type="line"/>
      <point x="572" y="0" type="line"/>
      <point x="750" y="531" type="line"/>
      <point x="726" y="531" type="line"/>
      <point x="559" y="23" type="line"/>
      <point x="400" y="531" type="line"/>
      <point x="374" y="531" type="line"/>
      <point x="215" y="23" type="line"/>
      <point x="48" y="531" type="line"/>
    </contour>
  </outline>
</glyph>
<glyph name="x" format="2">
  <advance width="480"/>
  <unicode hex="0078"/>
  <note>
GF Latin Plus glyph
</note>
  <outline>
    <contour>
      <point x="32" y="0" type="line"/>
      <point x="57" y="0" type="line"/>
      <point x="240" y="251" type="line"/>
      <point x="228" y="268" type="line"/>
    </contour>
    <contour>
      <point x="239" y="276" type="line"/>
      <point x="251" y="261" type="line"/>
      <point x="448.0" y="531.0" type="line"/>
      <point x="422" y="530" type="line"/>
    </contour>
    <contour>
      <point x="32" y="531" type="line"/>
      <point x="421" y="0" type="line"/>
      <point x="448" y="0" type="line"/>
      <point x="59" y="531" type="line"/>
    </contour>
  </outline>
</glyph>
<glyph name="y" format="2">
  <advance width="519"/>
  <unicode hex="0079"/>
  <note>
GF Latin Plus glyph
</note>
  <anchor x="260" y="650" name="top"/>
  <anchor x="410" y="-150" name="bottom"/>
  <outline>
    <contour>
      <point x="24" y="531" type="line"/>
      <point x="174" y="110" type="line" smooth="yes"/>
      <point x="209" y="10"/>
      <point x="270" y="1"/>
      <point x="291" y="0" type="curve"/>
      <point x="215" y="-237" type="line"/>
      <point x="227" y="-237" type="line"/>
      <point x="272" y="-138" type="line"/>
      <point x="495" y="531" type="line"/>
      <point x="470" y="531" type="line"/>
      <point x="299" y="25" type="line"/>
      <point x="299" y="25"/>
      <point x="235" y="13"/>
      <point x="198" y="116" type="curve" smooth="yes"/>
      <point x="50" y="531" type="line"/>
    </contour>
  </outline>
</glyph>
<glyph name="z" format="2">
  <advance width="486"/>
  <unicode hex="007A"/>
  <note>
GF Latin Plus glyph
</note>
  <anchor x="230" y="650" name="top"/>
  <anchor x="230" y="-150" name="bottom"/>
  <outline>
    <contour>
      <point x="50" y="509" type="line"/>
      <point x="407" y="509" type="line"/>
      <point x="56" y="22" type="line"/>
      <point x="56" y="0" type="line"/>
      <point x="436" y="0" type="line"/>
      <point x="436" y="22" type="line"/>
      <point x="83" y="22" type="line"/>
      <point x="436" y="509" type="line"/>
      <point x="436" y="531" type="line"/>
      <point x="50" y="531" type="line"/>
    </contour>
  </outline>
</glyph>
<glyph name="bar" format="2">
  <advance width="254"/>
  <unicode hex="007C"/>
  <note>
GF Latin Plus glyph
</note>
  <outline>
    <contour>
      <point x="115" y="-72" type="line"/>
      <point x="139" y="-72" type="line"/>
      <point x="139" y="770" type="line"/>
      <point x="115" y="770" type="line"/>
    </contour>
  </outline>
</glyph>
<glyph name="braceright" format="2">
  <advance width="304"/>
  <unicode hex="007D"/>
  <note>
GF Latin Plus glyph
</note>
  <outline>
    <contour>
      <point x="27" y="-188" type="curve"/>
      <point x="27" y="-210" type="line"/>
      <point x="176" y="-210"/>
      <point x="188" y="-116"/>
      <point x="188" y="-38" type="curve" smooth="yes"/>
      <point x="188" y="247" type="line" smooth="yes"/>
      <point x="188" y="295"/>
      <point x="237" y="323"/>
      <point x="277" y="320" type="curve"/>
      <point x="277" y="347" type="line"/>
      <point x="244" y="350"/>
      <point x="187" y="362"/>
      <point x="187" y="420" type="curve" smooth="yes"/>
      <point x="187" y="656" type="line" smooth="yes"/>
      <point x="187" y="752"/>
      <point x="160" y="842"/>
      <point x="27" y="842" type="curve"/>
      <point x="27" y="820" type="line"/>
      <point x="115.0" y="820.0"/>
      <point x="163" y="779.5061728395062"/>
      <point x="163" y="656" type="curve" smooth="yes"/>
      <point x="163" y="420" type="line" smooth="yes"/>
      <point x="163" y="372"/>
      <point x="200" y="340"/>
      <point x="243" y="334" type="curve"/>
      <point x="200" y="328"/>
      <point x="164" y="293"/>
      <point x="164" y="251" type="curve" smooth="yes"/>
      <point x="164" y="-38" type="line" smooth="yes"/>
      <point x="164" y="-153.54054054054055"/>
      <point x="118.0" y="-188.0"/>
    </contour>
  </outline>
</glyph>
<glyph name="asciitilde" format="2">
  <advance width="473"/>
  <unicode hex="007E"/>
  <note>
GF Latin Plus glyph
</note>
  <outline>
    <contour>
      <point x="68" y="572" type="curve"/>
      <point x="72" y="564" type="line"/>
      <point x="108" y="590"/>
      <point x="136" y="614"/>
      <point x="174" y="614" type="curve" smooth="yes"/>
      <point x="207" y="614"/>
      <point x="254" y="541"/>
      <point x="300" y="541" type="curve" smooth="yes"/>
      <point x="342" y="541"/>
      <point x="373" y="570"/>
      <point x="406" y="603" type="curve"/>
      <point x="400" y="610" type="line"/>
      <point x="377" y="591"/>
      <point x="339" y="557"/>
      <point x="300" y="557" type="curve" smooth="yes"/>
      <point x="268" y="557"/>
      <point x="217" y="630"/>
      <point x="174" y="630" type="curve" smooth="yes"/>
      <point x="135" y="630"/>
      <point x="102" y="602"/>
    </contour>
  </outline>
</glyph>
<glyph name="cent" format="2">
  <advance width="488"/>
  <unicode hex="00A2"/>
  <note>
GF Latin Plus glyph
</note>
  <outline>
    <contour>
      <point x="54" y="266" type="curve" smooth="yes"/>
      <point x="54.0" y="30.0"/>
      <point x="142.6875" y="-5.0"/>
      <point x="252" y="-5" type="curve"/>
      <point x="252" y="-82" type="line"/>
      <point x="270" y="-82" type="line"/>
      <point x="270" y="-4" type="line"/>
      <point x="329" y="0"/>
      <point x="367.2433722157451" y="4.650252816158005"/>
      <point x="434" y="24" type="curve"/>
      <point x="434" y="40" type="line"/>
      <point x="365" y="26"/>
      <point x="323" y="17"/>
      <point x="246" y="17" type="curve" smooth="yes"/>
      <point x="145" y="17"/>
      <point x="78" y="56"/>
      <point x="78" y="262" type="curve" smooth="yes"/>
      <point x="78" y="478"/>
      <point x="138" y="514"/>
      <point x="240" y="514" type="curve" smooth="yes"/>
      <point x="316" y="514"/>
      <point x="371" y="507"/>
      <point x="427" y="496" type="curve"/>
      <point x="427" y="510" type="line"/>
      <point x="379.6997901961489" y="521.5837248499228"/>
      <point x="318" y="532"/>
      <point x="270" y="535" type="curve"/>
      <point x="270" y="618" type="line"/>
      <point x="252" y="618" type="line"/>
      <point x="252" y="536" type="line"/>
      <point x="134.4375" y="536.0"/>
      <point x="54.0" y="502.0"/>
    </contour>
  </outline>
</glyph>
<glyph name="sterling" format="2">
  <advance width="609"/>
  <unicode hex="00A3"/>
  <note>
GF Latin Plus glyph
</note>
  <outline>
    <contour>
      <point x="68" y="0" type="line"/>
      <point x="532" y="0" type="line"/>
      <point x="532" y="22" type="line"/>
      <point x="214" y="22" type="line"/>
      <point x="214" y="348" type="line"/>
      <point x="454" y="351" type="line"/>
      <point x="454" y="367" type="line"/>
      <point x="214" y="370" type="line"/>
      <point x="214" y="535" type="line" smooth="yes"/>
      <point x="214" y="683"/>
      <point x="272.47727272727275" y="710"/>
      <point x="380" y="710" type="curve" smooth="yes"/>
      <point x="514" y="710" type="line"/>
      <point x="514" y="726" type="line"/>
      <point x="480" y="728"/>
      <point x="425" y="732"/>
      <point x="378" y="732" type="curve" smooth="yes"/>
      <point x="270.70707070707067" y="732.0"/>
      <point x="190" y="701"/>
      <point x="190" y="535" type="curve" smooth="yes"/>
      <point x="190" y="370" type="line"/>
      <point x="68" y="367" type="line"/>
      <point x="68" y="351" type="line"/>
      <point x="190" y="348" type="line"/>
      <point x="190" y="22" type="line"/>
      <point x="68" y="16" type="line"/>
    </contour>
  </outline>
</glyph>
<glyph name="currency" format="2">
  <advance width="609"/>
  <unicode hex="00A4"/>
  <note>
GF Latin Plus glyph
</note>
  <outline>
    <contour>
      <point x="304" y="511" type="curve" smooth="yes"/>
      <point x="219" y="511"/>
      <point x="150" y="441"/>
      <point x="150" y="356" type="curve" smooth="yes"/>
      <point x="150" y="271"/>
      <point x="219" y="201"/>
      <point x="304" y="201" type="curve" smooth="yes"/>
      <point x="389" y="201"/>
      <point x="459" y="271"/>
      <point x="459" y="356" type="curve" smooth="yes"/>
      <point x="459" y="441"/>
      <point x="389" y="511"/>
    </contour>
    <contour>
      <point x="208" y="469" type="line"/>
      <point x="104" y="573" type="line"/>
      <point x="87" y="556" type="line"/>
      <point x="191" y="452" type="line"/>
    </contour>
    <contour>
      <point x="415" y="450" type="line"/>
      <point x="521" y="556" type="line"/>
      <point x="504" y="573" type="line"/>
      <point x="398" y="467" type="line"/>
    </contour>
    <contour>
      <point x="521" y="156" type="line"/>
      <point x="415" y="262" type="line"/>
      <point x="398" y="245" type="line"/>
      <point x="504" y="139" type="line"/>
    </contour>
    <contour>
      <point x="104" y="139" type="line"/>
      <point x="212" y="247" type="line"/>
      <point x="195" y="264" type="line"/>
      <point x="87" y="156" type="line"/>
    </contour>
    <contour>
      <point x="304" y="487" type="curve" smooth="yes"/>
      <point x="376" y="487"/>
      <point x="435" y="428"/>
      <point x="435" y="356" type="curve" smooth="yes"/>
      <point x="435" y="285"/>
      <point x="376" y="225"/>
      <point x="304" y="225" type="curve" smooth="yes"/>
      <point x="233" y="225"/>
      <point x="175" y="285"/>
      <point x="175" y="356" type="curve" smooth="yes"/>
      <point x="175" y="428"/>
      <point x="233" y="487"/>
    </contour>
  </outline>
</glyph>
<glyph name="yen" format="2">
  <advance width="609"/>
  <unicode hex="00A5"/>
  <note>
GF Latin Plus glyph
</note>
  <outline>
    <contour>
      <point x="80" y="144" type="line"/>
      <point x="529" y="144" type="line"/>
      <point x="529" y="168" type="line"/>
      <point x="80" y="168" type="line"/>
    </contour>
    <contour>
      <point x="80" y="260" type="line"/>
      <point x="529" y="260" type="line"/>
      <point x="529" y="284" type="line"/>
      <point x="80" y="284" type="line"/>
    </contour>
    <component base="Y" xOffset="-11"/>
  </outline>
</glyph>
<glyph name="dieresis" format="1">
  <advance width="424"/>
  <unicode hex="00A8"/>
  <note>
    GF Latin Plus glyph
  </note>
  <outline>
    <contour>
      <point x="98" y="678" type="line" smooth="yes"/>
      <point x="98" y="671"/>
      <point x="103" y="666"/>
      <point x="110" y="666" type="curve" smooth="yes"/>
      <point x="121" y="666" type="line" smooth="yes"/>
      <point x="128" y="666"/>
      <point x="133" y="670"/>
      <point x="133" y="678" type="curve" smooth="yes"/>
      <point x="133" y="740" type="line" smooth="yes"/>
      <point x="133" y="747"/>
      <point x="129" y="752"/>
      <point x="121" y="752" type="curve" smooth="yes"/>
      <point x="110" y="752" type="line" smooth="yes"/>
      <point x="102" y="752"/>
      <point x="98" y="748"/>
      <point x="98" y="740" type="curve" smooth="yes"/>
    </contour>
    <contour>
      <point x="292" y="678" type="line" smooth="yes"/>
      <point x="292" y="671"/>
      <point x="297" y="666"/>
      <point x="304" y="666" type="curve" smooth="yes"/>
      <point x="315" y="666" type="line" smooth="yes"/>
      <point x="322" y="666"/>
      <point x="327" y="670"/>
      <point x="327" y="678" type="curve" smooth="yes"/>
      <point x="327" y="740" type="line" smooth="yes"/>
      <point x="327" y="747"/>
      <point x="323" y="752"/>
      <point x="315" y="752" type="curve" smooth="yes"/>
      <point x="304" y="752" type="line" smooth="yes"/>
      <point x="296" y="752"/>
      <point x="292" y="748"/>
      <point x="292" y="740" type="curve" smooth="yes"/>
    </contour>
  </outline>
</glyph>
<glyph name="macron" format="2">
  <advance width="387"/>
  <unicode hex="00AF"/>
  <note>
GF Latin Plus glyph
</note>
  <outline>
    <contour>
      <point x="68" y="691" type="line"/>
      <point x="320" y="691" type="line"/>
      <point x="320" y="706" type="line"/>
      <point x="68" y="706" type="line"/>
    </contour>
  </outline>
</glyph>
<glyph name="paragraph" format="2">
  <advance width="572"/>
  <unicode hex="00B6"/>
  <note>
GF Latin Plus glyph
</note>
  <outline>
    <contour>
      <point x="68" y="471" type="curve" smooth="yes"/>
      <point x="68" y="590" type="line" smooth="yes"/>
      <point x="68" y="656"/>
      <point x="118.56060606060606" y="708"/>
      <point x="210" y="708" type="curve" smooth="yes"/>
      <point x="294" y="708" type="line"/>
      <point x="294" y="339" type="line"/>
      <point x="210" y="339" type="line" smooth="yes"/>
      <point x="180.0" y="339"/>
      <point x="68" y="352.8518518518519"/>
    </contour>
    <contour>
      <point x="44" y="469" type="line" smooth="yes"/>
      <point x="44" y="385.304347826087"/>
      <point x="100.0" y="315.0"/>
      <point x="210" y="315" type="curve"/>
      <point x="255" y="313"/>
      <point x="284" y="318"/>
      <point x="294" y="325" type="curve"/>
      <point x="294" y="-270" type="line"/>
      <point x="318" y="-270" type="line"/>
      <point x="318" y="708" type="line"/>
      <point x="432" y="708" type="line"/>
      <point x="432" y="0" type="line"/>
      <point x="456" y="0" type="line"/>
      <point x="456" y="706" type="line"/>
      <point x="545" y="706" type="line"/>
      <point x="545" y="732" type="line"/>
      <point x="210" y="732" type="line" smooth="yes"/>
      <point x="128.06410256410254" y="732"/>
      <point x="44" y="687"/>
      <point x="44" y="592" type="curve" smooth="yes"/>
    </contour>
  </outline>
</glyph>
<glyph name="periodcentered" format="2">
  <advance width="264"/>
  <unicode hex="00B7"/>
  <note>
GF Latin Plus glyph
</note>
  <outline>
    <contour>
      <point x="115" y="376" type="line" smooth="yes"/>
      <point x="115" y="369"/>
      <point x="120" y="364"/>
      <point x="127" y="364" type="curve" smooth="yes"/>
      <point x="138" y="364" type="line" smooth="yes"/>
      <point x="145" y="364"/>
      <point x="150" y="368"/>
      <point x="150" y="376" type="curve" smooth="yes"/>
      <point x="150" y="388" type="line" smooth="yes"/>
      <point x="150" y="395"/>
      <point x="146" y="400"/>
      <point x="138" y="400" type="curve" smooth="yes"/>
      <point x="127" y="400" type="line" smooth="yes"/>
      <point x="119" y="400"/>
      <point x="115" y="396"/>
      <point x="115" y="388" type="curve" smooth="yes"/>
    </contour>
  </outline>
</glyph>
<glyph name="cedilla" format="2">
  <advance width="267"/>
  <unicode hex="00B8"/>
  <note>
GF Latin Plus glyph
</note>
  <outline>
    <contour>
      <point x="68" y="-173" type="line"/>
      <point x="68" y="-183" type="line"/>
      <point x="88" y="-183" type="line" smooth="yes"/>
      <point x="143" y="-183"/>
      <point x="176" y="-160"/>
      <point x="176" y="-119" type="curve" smooth="yes"/>
      <point x="176" y="-81"/>
      <point x="156" y="-58"/>
      <point x="92" y="-58" type="curve"/>
      <point x="78" y="-68" type="line"/>
      <point x="147" y="-68"/>
      <point x="161" y="-91"/>
      <point x="161" y="-117" type="curve" smooth="yes"/>
      <point x="161" y="-153"/>
      <point x="137" y="-168"/>
      <point x="94" y="-171" type="curve" smooth="yes"/>
    </contour>
    <contour>
      <point x="145" y="10" type="line"/>
      <point x="131" y="10" type="line"/>
      <point x="78" y="-68" type="line"/>
      <point x="92" y="-68" type="line"/>
    </contour>
  </outline>
</glyph>
<glyph name="AE" format="2">
  <advance width="950"/>
  <unicode hex="00C6"/>
  <note>
GF Latin Plus glyph
</note>
  <anchor x="528" y="810" name="top"/>
  <outline>
    <contour>
      <point x="246" y="275" type="line"/>
      <point x="488" y="657" type="line"/>
      <point x="488" y="275" type="line"/>
    </contour>
    <contour>
      <point x="48" y="0" type="line"/>
      <point x="74" y="0" type="line"/>
      <point x="233" y="253" type="line"/>
      <point x="488" y="253" type="line"/>
      <point x="488" y="121" type="line" smooth="yes"/>
      <point x="488" y="28"/>
      <point x="540" y="-5"/>
      <point x="624" y="-3" type="curve" smooth="yes"/>
      <point x="653" y="-2"/>
      <point x="796.086" y="1.0019999999999998"/>
      <point x="882" y="3" type="curve"/>
      <point x="882" y="19" type="line"/>
      <point x="624" y="19" type="line" smooth="yes"/>
      <point x="549" y="19"/>
      <point x="512" y="51"/>
      <point x="512" y="123" type="curve" smooth="yes"/>
      <point x="512" y="352" type="line"/>
      <point x="842" y="355" type="line"/>
      <point x="842" y="371" type="line"/>
      <point x="512" y="374" type="line"/>
      <point x="512" y="635" type="line" smooth="yes"/>
      <point x="512" y="687"/>
      <point x="533" y="710"/>
      <point x="594" y="710" type="curve" smooth="yes"/>
      <point x="882" y="710" type="line"/>
      <point x="882" y="726" type="line"/>
      <point x="788.094" y="727.998"/>
      <point x="630" y="731"/>
      <point x="600" y="732" type="curve" smooth="yes"/>
      <point x="523" y="735"/>
      <point x="482" y="695"/>
      <point x="449" y="643" type="curve" smooth="yes"/>
    </contour>
  </outline>
</glyph>
<glyph name="Eth" format="2">
  <advance width="660"/>
  <unicode hex="00D0"/>
  <note>
GF Latin Plus glyph
</note>
  <outline>
    <contour>
      <point x="17" y="361" type="line"/>
      <point x="321" y="361" type="line"/>
      <point x="321" y="383" type="line"/>
      <point x="17" y="383" type="line"/>
    </contour>
    <component base="D"/>
  </outline>
</glyph>
<glyph name="Oslash" format="2">
  <advance width="676"/>
  <unicode hex="00D8"/>
  <note>
GF Latin Plus glyph
</note>
  <anchor x="338" y="810" name="top"/>
  <outline>
    <contour>
      <point x="566" y="732" type="line"/>
      <point x="85" y="0" type="line"/>
      <point x="110" y="0" type="line"/>
      <point x="591" y="732" type="line"/>
    </contour>
    <component base="O"/>
  </outline>
</glyph>
<glyph name="Thorn" format="2">
  <advance width="540"/>
  <unicode hex="00DE"/>
  <note>
GF Latin Plus glyph
</note>
  <outline>
    <contour>
      <point x="88" y="0" type="line"/>
      <point x="112" y="0" type="line"/>
      <point x="112" y="184" type="line"/>
      <point x="147.7231892225199" y="182.41230270122134"/>
      <point x="273.8512396694215" y="178.0"/>
      <point x="304" y="178" type="curve" smooth="yes"/>
      <point x="382" y="178"/>
      <point x="490" y="213"/>
      <point x="490" y="385" type="curve" smooth="yes"/>
      <point x="490" y="554"/>
      <point x="393" y="585"/>
      <point x="314" y="585" type="curve" smooth="yes"/>
      <point x="112" y="585" type="line"/>
      <point x="112" y="732" type="line"/>
      <point x="88" y="732" type="line"/>
    </contour>
    <contour>
      <point x="112" y="200" type="line"/>
      <point x="112" y="563" type="line"/>
      <point x="314" y="563" type="line" smooth="yes"/>
      <point x="390" y="563"/>
      <point x="465" y="532"/>
      <point x="465" y="385" type="curve" smooth="yes"/>
      <point x="465" y="236"/>
      <point x="388" y="200"/>
      <point x="304" y="200" type="curve" smooth="yes"/>
    </contour>
  </outline>
</glyph>
<glyph name="germandbls" format="2">
  <advance width="566"/>
  <unicode hex="00DF"/>
  <note>
GF Latin Plus glyph
</note>
  <outline>
    <contour>
      <point x="81" y="0" type="line"/>
      <point x="105" y="0" type="line"/>
      <point x="105" y="558" type="line" smooth="yes"/>
      <point x="105" y="678"/>
      <point x="174" y="745"/>
      <point x="289" y="745" type="curve" smooth="yes"/>
      <point x="403.494623655914" y="745.0"/>
      <point x="465.0" y="701.4601769911504"/>
      <point x="465" y="622" type="curve" smooth="yes"/>
      <point x="465.0" y="497.5422535211268"/>
      <point x="278.0" y="468.1095890410959"/>
      <point x="278" y="348" type="curve" smooth="yes"/>
      <point x="278.0" y="208.0"/>
      <point x="517" y="286.0"/>
      <point x="517" y="163" type="curve" smooth="yes"/>
      <point x="517" y="132" type="line" smooth="yes"/>
      <point x="517" y="89"/>
      <point x="497" y="16"/>
      <point x="383" y="16" type="curve" smooth="yes"/>
      <point x="314" y="16"/>
      <point x="248" y="19"/>
      <point x="210" y="21" type="curve"/>
      <point x="210" y="7" type="line"/>
      <point x="245" y="0"/>
      <point x="315" y="-8"/>
      <point x="383" y="-8" type="curve" smooth="yes"/>
      <point x="478" y="-8"/>
      <point x="541" y="41"/>
      <point x="541" y="132" type="curve" smooth="yes"/>
      <point x="541" y="163" type="line" smooth="yes"/>
      <point x="541" y="309.0"/>
      <point x="302.0" y="234.0"/>
      <point x="302" y="348" type="curve" smooth="yes"/>
      <point x="302.0" y="456.8737201365188"/>
      <point x="488.0" y="481.1578947368421"/>
      <point x="488" y="623" type="curve" smooth="yes"/>
      <point x="488.0" y="700.2941176470588"/>
      <point x="437.53588516746413" y="769.0"/>
      <point x="289" y="769" type="curve" smooth="yes"/>
      <point x="147" y="769"/>
      <point x="81" y="674"/>
      <point x="81" y="558" type="curve" smooth="yes"/>
    </contour>
  </outline>
</glyph>
<glyph name="eth" format="2">
  <advance width="578"/>
  <unicode hex="00F0"/>
  <note>
GF Latin Plus glyph
</note>
  <outline>
    <contour>
      <point x="70" y="266" type="curve" smooth="yes"/>
      <point x="70" y="36"/>
      <point x="151" y="-6"/>
      <point x="288" y="-6" type="curve" smooth="yes"/>
      <point x="425" y="-6"/>
      <point x="508" y="36"/>
      <point x="508" y="266" type="curve" smooth="yes"/>
      <point x="508" y="333"/>
      <point x="492" y="379"/>
      <point x="479" y="417" type="curve"/>
      <point x="448" y="515"/>
      <point x="385" y="537"/>
      <point x="288" y="537" type="curve" smooth="yes"/>
      <point x="151" y="537"/>
      <point x="70" y="496"/>
    </contour>
    <contour>
      <point x="94" y="266" type="curve" smooth="yes"/>
      <point x="94" y="486"/>
      <point x="165" y="515"/>
      <point x="288" y="515" type="curve" smooth="yes"/>
      <point x="411" y="515"/>
      <point x="484" y="486"/>
      <point x="484" y="266" type="curve" smooth="yes"/>
      <point x="484" y="46"/>
      <point x="411" y="16"/>
      <point x="288" y="16" type="curve" smooth="yes"/>
      <point x="165" y="16"/>
      <point x="94" y="46"/>
    </contour>
    <contour>
      <point x="164" y="749" type="line"/>
      <point x="353" y="725"/>
      <point x="486" y="623"/>
      <point x="486" y="264" type="curve"/>
      <point x="508" y="264" type="line"/>
      <point x="508" y="636"/>
      <point x="358" y="745"/>
      <point x="164" y="769" type="curve"/>
    </contour>
    <contour>
      <point x="205" y="605" type="line"/>
      <point x="512" y="726" type="line"/>
      <point x="506" y="741" type="line"/>
      <point x="200" y="620" type="line"/>
    </contour>
  </outline>
</glyph>
<glyph name="divide" format="2">
  <advance width="609"/>
  <unicode hex="00F7"/>
  <note>
GF Latin Plus glyph
</note>
  <outline>
    <contour>
      <point x="274" y="536" type="line" smooth="yes"/>
      <point x="274" y="522"/>
      <point x="284" y="513"/>
      <point x="298" y="513" type="curve" smooth="yes"/>
      <point x="310" y="513" type="line" smooth="yes"/>
      <point x="324" y="513"/>
      <point x="335" y="518"/>
      <point x="335" y="536" type="curve" smooth="yes"/>
      <point x="335" y="563" type="line" smooth="yes"/>
      <point x="335" y="579"/>
      <point x="328" y="588"/>
      <point x="310" y="588" type="curve" smooth="yes"/>
      <point x="298" y="588" type="line" smooth="yes"/>
      <point x="282" y="588"/>
      <point x="274" y="578"/>
      <point x="274" y="563" type="curve" smooth="yes"/>
    </contour>
    <contour>
      <point x="274" y="147" type="line" smooth="yes"/>
      <point x="274" y="133"/>
      <point x="284" y="124"/>
      <point x="298" y="124" type="curve" smooth="yes"/>
      <point x="310" y="124" type="line" smooth="yes"/>
      <point x="324" y="124"/>
      <point x="335" y="129"/>
      <point x="335" y="147" type="curve" smooth="yes"/>
      <point x="335" y="174" type="line" smooth="yes"/>
      <point x="335" y="190"/>
      <point x="328" y="199"/>
      <point x="310" y="199" type="curve" smooth="yes"/>
      <point x="298" y="199" type="line" smooth="yes"/>
      <point x="282" y="199"/>
      <point x="274" y="189"/>
      <point x="274" y="174" type="curve" smooth="yes"/>
    </contour>
    <component base="minus"/>
  </outline>
</glyph>
<glyph name="oslash" format="2">
  <advance width="578"/>
  <unicode hex="00F8"/>
  <note>
GF Latin Plus glyph
</note>
  <anchor x="288" y="650" name="top"/>
  <outline>
    <contour>
      <point x="486" y="531" type="line"/>
      <point x="70" y="0" type="line"/>
      <point x="92" y="0" type="line"/>
      <point x="508" y="531" type="line"/>
    </contour>
    <component base="o"/>
  </outline>
</glyph>
<glyph name="thorn" format="2">
  <advance width="572"/>
  <unicode hex="00FE"/>
  <note>
GF Latin Plus glyph
</note>
  <outline>
    <contour>
      <point x="115" y="73" type="curve"/>
      <point x="115" y="458" type="line"/>
      <point x="168" y="485"/>
      <point x="231" y="515"/>
      <point x="310" y="515" type="curve" smooth="yes"/>
      <point x="395" y="515"/>
      <point x="478" y="442"/>
      <point x="478" y="268" type="curve" smooth="yes"/>
      <point x="478" y="82"/>
      <point x="409" y="16"/>
      <point x="310" y="16" type="curve" smooth="yes"/>
      <point x="244" y="16"/>
      <point x="177" y="39"/>
    </contour>
    <contour>
      <point x="91" y="-237" type="line"/>
      <point x="115" y="-237" type="line"/>
      <point x="115" y="57" type="line"/>
      <point x="174" y="21"/>
      <point x="245" y="-6"/>
      <point x="310" y="-6" type="curve" smooth="yes"/>
      <point x="433" y="-6"/>
      <point x="502" y="82"/>
      <point x="502" y="268" type="curve" smooth="yes"/>
      <point x="502" y="390"/>
      <point x="455" y="537"/>
      <point x="310" y="537" type="curve" smooth="yes"/>
      <point x="242" y="537"/>
      <point x="149" y="496"/>
      <point x="115" y="474" type="curve"/>
      <point x="115" y="763" type="line"/>
      <point x="91" y="763" type="line"/>
    </contour>
  </outline>
</glyph>
<glyph name="hbar" format="2">
  <advance width="582"/>
  <unicode hex="0127"/>
  <note>
GF Latin Plus glyph
</note>
  <outline>
    <contour>
      <point x="10" y="640" type="line"/>
      <point x="268" y="640" type="line"/>
      <point x="268" y="656" type="line"/>
      <point x="10" y="656" type="line"/>
    </contour>
    <component base="h"/>
  </outline>
</glyph>
<glyph name="Lslash" format="2">
  <advance width="529"/>
  <unicode hex="0141"/>
  <note>
GF Latin Plus glyph
</note>
  <outline>
    <contour>
      <point x="6" y="322" type="line"/>
      <point x="93" y="359" type="line"/>
      <point x="109" y="364" type="line"/>
      <point x="254" y="427" type="line"/>
      <point x="254" y="447" type="line"/>
      <point x="109" y="384" type="line"/>
      <point x="93" y="380" type="line"/>
      <point x="6" y="343" type="line"/>
    </contour>
    <component base="L"/>
  </outline>
</glyph>
<glyph name="Eng" format="2">
  <advance width="665"/>
  <unicode hex="014A"/>
  <note>
GF Latin Plus glyph
</note>
  <outline>
    <contour>
      <point x="325" y="-218" type="line"/>
      <point x="352" y="-232"/>
      <point x="398" y="-243"/>
      <point x="432" y="-243" type="curve" smooth="yes"/>
      <point x="536.3877551020408" y="-243.0"/>
      <point x="597" y="-211.0"/>
      <point x="597" y="-92" type="curve" smooth="yes"/>
      <point x="597" y="22" type="line"/>
      <point x="573" y="22" type="line"/>
      <point x="573" y="-92" type="line" smooth="yes"/>
      <point x="573" y="-200.0"/>
      <point x="513.390243902439" y="-221.0"/>
      <point x="432" y="-221" type="curve" smooth="yes"/>
      <point x="401" y="-221"/>
      <point x="354" y="-211"/>
      <point x="325" y="-202" type="curve"/>
    </contour>
    <component base="N"/>
  </outline>
</glyph>
<glyph name="eng" format="2">
  <advance width="582"/>
  <unicode hex="014B"/>
  <note>
GF Latin Plus glyph
</note>
  <outline>
    <contour>
      <point x="331" y="-237" type="curve"/>
      <point x="353" y="-237" type="line"/>
      <point x="434" y="-193"/>
      <point x="495" y="-120"/>
      <point x="495" y="20" type="curve" smooth="yes"/>
      <point x="495" y="211" type="line"/>
      <point x="471" y="211" type="line"/>
      <point x="471" y="20" type="line" smooth="yes"/>
      <point x="471" y="-104"/>
      <point x="417" y="-178"/>
    </contour>
    <component base="n"/>
  </outline>
</glyph>
<glyph name="oe" format="2">
  <advance width="956"/>
  <unicode hex="0153"/>
  <note>
GF Latin Plus glyph
</note>
  <outline>
    <contour>
      <point x="506" y="273" type="line"/>
      <point x="506" y="440"/>
      <point x="545" y="515"/>
      <point x="684" y="515" type="curve" smooth="yes"/>
      <point x="802" y="515"/>
      <point x="862" y="498"/>
      <point x="862" y="367" type="curve" smooth="yes"/>
      <point x="862" y="288"/>
      <point x="815" y="273"/>
      <point x="750" y="273" type="curve" smooth="yes"/>
    </contour>
    <contour>
      <point x="486" y="268" type="curve" smooth="yes"/>
      <point x="486.0" y="63.0"/>
      <point x="553.2989690721649" y="-6.0"/>
      <point x="690" y="-6" type="curve" smooth="yes"/>
      <point x="759.2755102040817" y="-6.0"/>
      <point x="813.3546936258144" y="-3.7966852347991216"/>
      <point x="876" y="0" type="curve"/>
      <point x="876" y="16" type="line"/>
      <point x="692" y="16" type="line" smooth="yes"/>
      <point x="562.0113636363636" y="16"/>
      <point x="506.0" y="85.0"/>
      <point x="506" y="251" type="curve"/>
      <point x="753" y="251" type="line" smooth="yes"/>
      <point x="835" y="251"/>
      <point x="886" y="284"/>
      <point x="886" y="367" type="curve" smooth="yes"/>
      <point x="886" y="511"/>
      <point x="805" y="537"/>
      <point x="684" y="537" type="curve" smooth="yes"/>
      <point x="538.9306930693069" y="537.0"/>
      <point x="486.0" y="460.0"/>
    </contour>
    <contour>
      <point x="94" y="266" type="curve" smooth="yes"/>
      <point x="94" y="486"/>
      <point x="165" y="515"/>
      <point x="288" y="515" type="curve" smooth="yes"/>
      <point x="411" y="515"/>
      <point x="484" y="486"/>
      <point x="484" y="266" type="curve" smooth="yes"/>
      <point x="484" y="46"/>
      <point x="411" y="16"/>
      <point x="288" y="16" type="curve" smooth="yes"/>
      <point x="165" y="16"/>
      <point x="94" y="46"/>
    </contour>
    <contour>
      <point x="70" y="266" type="curve" smooth="yes"/>
      <point x="70.0" y="36.0"/>
      <point x="149.88532110091742" y="-6.0"/>
      <point x="285" y="-6" type="curve" smooth="yes"/>
      <point x="421.3772727272727" y="-6.0"/>
      <point x="504.0" y="36.0"/>
      <point x="504" y="266" type="curve" smooth="yes"/>
      <point x="504.0" y="496.0"/>
      <point x="422.5090909090909" y="537.0"/>
      <point x="288" y="537" type="curve" smooth="yes"/>
      <point x="151" y="537"/>
      <point x="70" y="496"/>
    </contour>
  </outline>
</glyph>
<glyph name="tbar" format="2">
  <advance width="350"/>
  <unicode hex="0167"/>
  <note>
GF Latin Plus glyph
</note>
  <outline>
    <contour>
      <point x="27" y="318" type="line"/>
      <point x="290" y="318" type="line"/>
      <point x="290" y="334" type="line"/>
      <point x="27" y="334" type="line"/>
    </contour>
    <component base="t"/>
  </outline>
</glyph>
<glyph name="Schwa" format="2">
  <advance width="599"/>
  <unicode hex="018F"/>
  <note>
GF Latin Plus glyph
</note>
  <outline>
    <contour>
      <point x="299" y="-6" type="curve" smooth="yes"/>
      <point x="442" y="-6"/>
      <point x="529" y="70"/>
      <point x="529" y="370" type="curve" smooth="yes"/>
      <point x="529" y="680"/>
      <point x="458" y="738"/>
      <point x="269" y="738" type="curve" smooth="yes"/>
      <point x="202" y="738"/>
      <point x="145" y="727"/>
      <point x="102" y="718" type="curve"/>
      <point x="102" y="702" type="line"/>
      <point x="131" y="706"/>
      <point x="177" y="716"/>
      <point x="254" y="716" type="curve" smooth="yes"/>
      <point x="456" y="716"/>
      <point x="504" y="655"/>
      <point x="504" y="364" type="curve"/>
      <point x="78" y="364" type="line"/>
      <point x="78" y="337" type="line" smooth="yes"/>
      <point x="78" y="87"/>
      <point x="138" y="-6"/>
    </contour>
    <contour>
      <point x="296" y="16" type="curve" smooth="yes"/>
      <point x="147" y="16"/>
      <point x="101" y="102"/>
      <point x="101" y="342" type="curve"/>
      <point x="503" y="342" type="line"/>
      <point x="502" y="78"/>
      <point x="430" y="16"/>
    </contour>
  </outline>
</glyph>
<glyph name="florin" format="2">
  <advance width="609"/>
  <unicode hex="0192"/>
  <note>
GF Latin Plus glyph
</note>
  <outline>
    <contour>
      <point x="26" y="-198" type="line"/>
      <point x="45" y="-202"/>
      <point x="76" y="-204"/>
      <point x="100" y="-204" type="curve" smooth="yes"/>
      <point x="207" y="-204"/>
      <point x="246" y="-128"/>
      <point x="280" y="88" type="curve" smooth="yes"/>
      <point x="333" y="423" type="line"/>
      <point x="477" y="423" type="line"/>
      <point x="480" y="445" type="line"/>
      <point x="336" y="445" type="line"/>
      <point x="355" y="562" type="line" smooth="yes"/>
      <point x="381" y="723"/>
      <point x="408" y="776"/>
      <point x="493" y="776" type="curve" smooth="yes"/>
      <point x="571" y="776" type="line"/>
      <point x="574" y="792" type="line"/>
      <point x="562.3935549342696" y="793.7856069331893"/>
      <point x="537" y="798"/>
      <point x="493" y="798" type="curve" smooth="yes"/>
      <point x="391" y="798"/>
      <point x="360" y="740"/>
      <point x="330" y="556" type="curve" smooth="yes"/>
      <point x="312" y="446" type="line"/>
      <point x="210" y="446" type="line"/>
      <point x="207" y="423" type="line"/>
      <point x="309" y="423" type="line"/>
      <point x="256" y="88" type="line" smooth="yes"/>
      <point x="223" y="-121"/>
      <point x="184" y="-182"/>
      <point x="105" y="-182" type="curve" smooth="yes"/>
      <point x="30" y="-182" type="line"/>
    </contour>
  </outline>
</glyph>
<glyph name="Uhorn" format="2">
  <advance width="668"/>
  <unicode hex="01AF"/>
  <note>
GF Latin Plus glyph
</note>
  <anchor x="334" y="810" name="top"/>
  <anchor x="334" y="-150" name="bottom"/>
  <outline>
    <contour>
      <point x="570" y="716" type="line"/>
      <point x="587" y="716" type="line" smooth="yes"/>
      <point x="637" y="716"/>
      <point x="693" y="740"/>
      <point x="693" y="848" type="curve"/>
      <point x="671" y="848" type="line"/>
      <point x="671" y="761"/>
      <point x="635" y="732"/>
      <point x="587" y="732" type="curve" smooth="yes"/>
      <point x="570" y="732" type="line"/>
    </contour>
    <component base="U"/>
  </outline>
</glyph>
<glyph name="circumflex" format="2">
  <advance width="407"/>
  <unicode hex="02C6"/>
  <note>
GF Latin Plus glyph
</note>
  <outline>
    <contour>
      <point x="200" y="761" type="line"/>
      <point x="68" y="631" type="line"/>
      <point x="86" y="631" type="line"/>
      <point x="210" y="746" type="line"/>
      <point x="322" y="631" type="line"/>
      <point x="340" y="631" type="line"/>
      <point x="220" y="761" type="line"/>
    </contour>
  </outline>
</glyph>
<glyph name="caron" format="2">
  <advance width="407"/>
  <unicode hex="02C7"/>
  <note>
GF Latin Plus glyph
</note>
  <outline>
    <contour>
      <point x="208" y="631" type="line"/>
      <point x="340" y="761" type="line"/>
      <point x="322" y="761" type="line"/>
      <point x="198" y="646" type="line"/>
      <point x="86" y="761" type="line"/>
      <point x="68" y="761" type="line"/>
      <point x="188" y="631" type="line"/>
    </contour>
  </outline>
</glyph>
<glyph name="breve" format="2">
  <advance width="363"/>
  <unicode hex="02D8"/>
  <note>
GF Latin Plus glyph
</note>
  <outline>
    <contour>
      <point x="58" y="767" type="line"/>
      <point x="58" y="662"/>
      <point x="122.17543859649123" y="633.0"/>
      <point x="182" y="633" type="curve" smooth="yes"/>
      <point x="241.74137931034483" y="633.0"/>
      <point x="308" y="658"/>
      <point x="308" y="767" type="curve"/>
      <point x="294" y="767" type="line"/>
      <point x="294" y="677"/>
      <point x="246.7868196406336" y="648.0980816888243"/>
      <point x="182" y="647" type="curve" smooth="yes"/>
      <point x="122.59728745410722" y="645.8999497676687"/>
      <point x="72" y="679"/>
      <point x="72" y="767" type="curve"/>
    </contour>
  </outline>
</glyph>
<glyph name="dotaccent" format="2">
  <advance width="170"/>
  <unicode hex="02D9"/>
  <note>
GF Latin Plus glyph
</note>
  <outline>
    <contour>
      <point x="62" y="678" type="line" smooth="yes"/>
      <point x="62" y="671"/>
      <point x="67" y="666"/>
      <point x="74" y="666" type="curve" smooth="yes"/>
      <point x="85" y="666" type="line" smooth="yes"/>
      <point x="92" y="666"/>
      <point x="97" y="670"/>
      <point x="97" y="678" type="curve" smooth="yes"/>
      <point x="97" y="740" type="line" smooth="yes"/>
      <point x="97" y="747"/>
      <point x="93" y="752"/>
      <point x="85" y="752" type="curve" smooth="yes"/>
      <point x="74" y="752" type="line" smooth="yes"/>
      <point x="66" y="752"/>
      <point x="62" y="748"/>
      <point x="62" y="740" type="curve" smooth="yes"/>
    </contour>
  </outline>
</glyph>
<glyph name="ring" format="2">
  <advance width="338"/>
  <unicode hex="02DA"/>
  <note>
GF Latin Plus glyph
</note>
  <outline>
    <contour>
      <point x="84" y="702" type="curve" smooth="yes"/>
      <point x="84" y="770"/>
      <point x="112" y="789"/>
      <point x="170" y="789" type="curve" smooth="yes"/>
      <point x="228" y="789"/>
      <point x="254" y="770"/>
      <point x="254" y="702" type="curve" smooth="yes"/>
      <point x="254" y="634"/>
      <point x="228" y="616"/>
      <point x="170" y="616" type="curve" smooth="yes"/>
      <point x="112" y="616"/>
      <point x="84" y="634"/>
    </contour>
    <contour>
      <point x="68" y="702" type="curve" smooth="yes"/>
      <point x="68" y="625"/>
      <point x="104" y="600"/>
      <point x="170" y="600" type="curve" smooth="yes"/>
      <point x="236" y="600"/>
      <point x="270" y="625"/>
      <point x="270" y="702" type="curve" smooth="yes"/>
      <point x="270" y="779"/>
      <point x="236" y="805"/>
      <point x="170" y="805" type="curve" smooth="yes"/>
      <point x="104" y="805"/>
      <point x="68" y="779"/>
    </contour>
  </outline>
</glyph>
<glyph name="ogonek" format="2">
  <advance width="258"/>
  <unicode hex="02DB"/>
  <note>
GF Latin Plus glyph
</note>
  <outline>
    <contour>
      <point x="147" y="0" type="line"/>
      <point x="88" y="-26"/>
      <point x="65" y="-62"/>
      <point x="65" y="-95" type="curve" smooth="yes"/>
      <point x="65" y="-149"/>
      <point x="109" y="-182"/>
      <point x="170" y="-182" type="curve" smooth="yes"/>
      <point x="176" y="-182"/>
      <point x="183" y="-182"/>
      <point x="191" y="-181" type="curve"/>
      <point x="191" y="-167" type="line"/>
      <point x="186" y="-167" type="line" smooth="yes"/>
      <point x="118" y="-167"/>
      <point x="84" y="-139"/>
      <point x="84" y="-91" type="curve" smooth="yes"/>
      <point x="84" y="-57"/>
      <point x="111" y="-24"/>
      <point x="159" y="0" type="curve"/>
    </contour>
  </outline>
</glyph>
<glyph name="hungarumlaut" format="2">
  <advance width="344"/>
  <unicode hex="02DD"/>
  <note>
GF Latin Plus glyph
</note>
  <outline>
    <contour>
      <point x="287" y="764" type="line"/>
      <point x="166" y="631" type="line"/>
      <point x="180" y="631" type="line"/>
      <point x="313" y="764" type="line"/>
    </contour>
    <contour>
      <point x="148" y="764" type="line"/>
      <point x="27" y="631" type="line"/>
      <point x="41" y="631" type="line"/>
      <point x="174" y="764" type="line"/>
    </contour>
  </outline>
</glyph>
<glyph name="pi" format="2">
  <advance width="603"/>
  <unicode hex="03C0"/>
  <outline>
    <contour>
      <point x="27" y="507" type="line"/>
      <point x="143" y="507" type="line"/>
      <point x="143" y="0" type="line"/>
      <point x="167" y="0" type="line"/>
      <point x="167" y="507" type="line"/>
      <point x="374" y="507" type="line"/>
      <point x="374" y="116" type="line" smooth="yes"/>
      <point x="374" y="25"/>
      <point x="408" y="-6"/>
      <point x="472" y="-6" type="curve" smooth="yes"/>
      <point x="496" y="-6"/>
      <point x="519" y="-1"/>
      <point x="535" y="6" type="curve"/>
      <point x="535" y="20" type="line"/>
      <point x="472" y="20" type="line" smooth="yes"/>
      <point x="422" y="20"/>
      <point x="398" y="46.95890410958904"/>
      <point x="398" y="116" type="curve" smooth="yes"/>
      <point x="398" y="507" type="line"/>
      <point x="527" y="507" type="line"/>
      <point x="527" y="531" type="line"/>
      <point x="27" y="531" type="line"/>
    </contour>
  </outline>
</glyph>
<glyph name="endash" format="2">
  <advance width="527"/>
  <unicode hex="2013"/>
  <note>
GF Latin Plus glyph
</note>
  <outline>
    <contour>
      <point x="27" y="277" type="line"/>
      <point x="500" y="277" type="line"/>
      <point x="500" y="302" type="line"/>
      <point x="27" y="302" type="line"/>
    </contour>
  </outline>
</glyph>
<glyph name="quoteleft" format="2">
  <advance width="155"/>
  <unicode hex="2018"/>
  <note>
GF Latin Plus glyph
</note>
  <outline>
    <contour>
      <point x="60" y="567" type="line" smooth="yes"/>
      <point x="60" y="558"/>
      <point x="62" y="551"/>
      <point x="69" y="551" type="curve" smooth="yes"/>
      <point x="81" y="551" type="line" smooth="yes"/>
      <point x="91" y="551"/>
      <point x="95" y="556"/>
      <point x="95" y="567" type="curve" smooth="yes"/>
      <point x="95" y="630" type="line" smooth="yes"/>
      <point x="95" y="640"/>
      <point x="89" y="646"/>
      <point x="81" y="646" type="curve" smooth="yes"/>
      <point x="74" y="646" type="line"/>
      <point x="74" y="713" type="line" smooth="yes"/>
      <point x="74" y="727"/>
      <point x="80" y="732"/>
      <point x="93" y="732" type="curve"/>
      <point x="93" y="739" type="line"/>
      <point x="89" y="740"/>
      <point x="87" y="740"/>
      <point x="85" y="740" type="curve" smooth="yes"/>
      <point x="76" y="740"/>
      <point x="60" y="735"/>
      <point x="60" y="701" type="curve" smooth="yes"/>
    </contour>
  </outline>
</glyph>
<glyph name="quoteright" format="2">
  <advance width="155"/>
  <unicode hex="2019"/>
  <note>
GF Latin Plus glyph
</note>
  <outline>
    <contour>
      <point x="60" y="661" type="line" smooth="yes"/>
      <point x="60" y="651"/>
      <point x="66" y="645"/>
      <point x="74" y="645" type="curve" smooth="yes"/>
      <point x="81" y="645" type="line"/>
      <point x="81" y="578" type="line" smooth="yes"/>
      <point x="81" y="564"/>
      <point x="75" y="559"/>
      <point x="62" y="559" type="curve"/>
      <point x="62" y="552" type="line"/>
      <point x="66" y="551"/>
      <point x="68" y="551"/>
      <point x="70" y="551" type="curve" smooth="yes"/>
      <point x="79" y="551"/>
      <point x="95" y="556"/>
      <point x="95" y="590" type="curve" smooth="yes"/>
      <point x="95" y="724" type="line" smooth="yes"/>
      <point x="95" y="733"/>
      <point x="93" y="740"/>
      <point x="86" y="740" type="curve" smooth="yes"/>
      <point x="74" y="740" type="line" smooth="yes"/>
      <point x="64" y="740"/>
      <point x="60" y="735"/>
      <point x="60" y="724" type="curve" smooth="yes"/>
    </contour>
  </outline>
</glyph>
<glyph name="quotesinglbase" format="2">
  <advance width="155"/>
  <unicode hex="201A"/>
  <note>
GF Latin Plus glyph
</note>
  <outline>
    <contour>
      <point x="60" y="10" type="line" smooth="yes"/>
      <point x="60" y="0"/>
      <point x="66" y="-6"/>
      <point x="74" y="-6" type="curve" smooth="yes"/>
      <point x="81" y="-6" type="line"/>
      <point x="81" y="-73" type="line" smooth="yes"/>
      <point x="81" y="-87"/>
      <point x="75" y="-92"/>
      <point x="62" y="-92" type="curve"/>
      <point x="62" y="-99" type="line"/>
      <point x="66" y="-100"/>
      <point x="68" y="-100"/>
      <point x="70" y="-100" type="curve" smooth="yes"/>
      <point x="79" y="-100"/>
      <point x="95" y="-95"/>
      <point x="95" y="-61" type="curve" smooth="yes"/>
      <point x="95" y="73" type="line" smooth="yes"/>
      <point x="95" y="82"/>
      <point x="93" y="89"/>
      <point x="86" y="89" type="curve" smooth="yes"/>
      <point x="74" y="89" type="line" smooth="yes"/>
      <point x="64" y="89"/>
      <point x="60" y="84"/>
      <point x="60" y="73" type="curve" smooth="yes"/>
    </contour>
  </outline>
</glyph>
<glyph name="ellipsis" format="2">
  <advance width="816"/>
  <unicode hex="2026"/>
  <note>
GF Latin Plus glyph
</note>
  <outline>
    <contour>
      <point x="119" y="12" type="line" smooth="yes"/>
      <point x="119" y="5"/>
      <point x="124" y="0"/>
      <point x="131" y="0" type="curve" smooth="yes"/>
      <point x="141" y="0" type="line" smooth="yes"/>
      <point x="148" y="0"/>
      <point x="153" y="4"/>
      <point x="153" y="12" type="curve" smooth="yes"/>
      <point x="153" y="74" type="line" smooth="yes"/>
      <point x="153" y="81"/>
      <point x="149" y="86"/>
      <point x="141" y="86" type="curve" smooth="yes"/>
      <point x="131" y="86" type="line" smooth="yes"/>
      <point x="123" y="86"/>
      <point x="119" y="82"/>
      <point x="119" y="74" type="curve" smooth="yes"/>
    </contour>
    <contour>
      <point x="391" y="12" type="line" smooth="yes"/>
      <point x="391" y="5"/>
      <point x="396" y="0"/>
      <point x="403" y="0" type="curve" smooth="yes"/>
      <point x="413" y="0" type="line" smooth="yes"/>
      <point x="420" y="0"/>
      <point x="425" y="4"/>
      <point x="425" y="12" type="curve" smooth="yes"/>
      <point x="425" y="74" type="line" smooth="yes"/>
      <point x="425" y="81"/>
      <point x="421" y="86"/>
      <point x="413" y="86" type="curve" smooth="yes"/>
      <point x="403" y="86" type="line" smooth="yes"/>
      <point x="395" y="86"/>
      <point x="391" y="82"/>
      <point x="391" y="74" type="curve" smooth="yes"/>
    </contour>
    <contour>
      <point x="663" y="12" type="line" smooth="yes"/>
      <point x="663" y="5"/>
      <point x="668" y="0"/>
      <point x="675" y="0" type="curve" smooth="yes"/>
      <point x="685" y="0" type="line" smooth="yes"/>
      <point x="692" y="0"/>
      <point x="697" y="4"/>
      <point x="697" y="12" type="curve" smooth="yes"/>
      <point x="697" y="74" type="line" smooth="yes"/>
      <point x="697" y="81"/>
      <point x="693" y="86"/>
      <point x="685" y="86" type="curve" smooth="yes"/>
      <point x="675" y="86" type="line" smooth="yes"/>
      <point x="667" y="86"/>
      <point x="663" y="82"/>
      <point x="663" y="74" type="curve" smooth="yes"/>
    </contour>
  </outline>
</glyph>
<glyph name="guilsinglleft" format="2">
  <advance width="354"/>
  <unicode hex="2039"/>
  <note>
GF Latin Plus glyph
</note>
  <outline>
    <contour>
      <point x="68" y="278" type="line"/>
      <point x="278" y="70" type="line"/>
      <point x="296" y="87" type="line"/>
      <point x="100" y="278" type="line"/>
      <point x="290" y="465" type="line"/>
      <point x="274" y="481" type="line"/>
    </contour>
  </outline>
</glyph>
<glyph name="fraction" format="2">
  <advance width="161"/>
  <unicode hex="2044"/>
  <note>
GF Latin Plus glyph
</note>
  <outline>
    <contour>
      <point x="-122" y="0" type="line"/>
      <point x="-98" y="0" type="line"/>
      <point x="282" y="770" type="line"/>
      <point x="258" y="770" type="line"/>
    </contour>
  </outline>
</glyph>
<glyph name="zerosuperior" format="2">
  <advance width="458"/>
  <unicode hex="2070"/>
  <outline>
    <contour>
      <point x="76.0" y="401" type="curve" smooth="yes"/>
      <point x="76.0" y="703" type="line" smooth="yes"/>
      <point x="76.0" y="767"/>
      <point x="119.0" y="804"/>
      <point x="185.0" y="804" type="curve" smooth="yes"/>
      <point x="277.0" y="804" type="line" smooth="yes"/>
      <point x="347.0" y="804"/>
      <point x="383.0" y="768"/>
      <point x="383.0" y="703" type="curve" smooth="yes"/>
      <point x="383.0" y="401" type="line" smooth="yes"/>
      <point x="383.0" y="340"/>
      <point x="353.0" y="300"/>
      <point x="277.0" y="300" type="curve" smooth="yes"/>
      <point x="185.0" y="300" type="line" smooth="yes"/>
      <point x="119.0" y="300"/>
      <point x="76.0" y="335"/>
    </contour>
    <contour>
      <point x="54.0" y="400" type="line" smooth="yes"/>
      <point x="54.0" y="312"/>
      <point x="115.0" y="280"/>
      <point x="184.0" y="280" type="curve" smooth="yes"/>
      <point x="278.0" y="280" type="line" smooth="yes"/>
      <point x="353.0" y="280"/>
      <point x="405.0" y="312"/>
      <point x="405.0" y="400" type="curve" smooth="yes"/>
      <point x="405.0" y="704" type="line" smooth="yes"/>
      <point x="405.0" y="772"/>
      <point x="370.0" y="824"/>
      <point x="278.0" y="824" type="curve" smooth="yes"/>
      <point x="184.0" y="824" type="line" smooth="yes"/>
      <point x="112.0" y="824"/>
      <point x="54.0" y="784"/>
      <point x="54.0" y="704" type="curve" smooth="yes"/>
    </contour>
  </outline>
</glyph>
<glyph name="i.superior" format="2">
  <advance width="157"/>
  <unicode hex="2071"/>
  <anchor x="82.0" y="280" name="ogonek"/>
  <anchor x="78.0" y="169" name="bottom"/>
  <outline>
    <contour>
      <point x="64.0" y="760" type="line" smooth="yes"/>
      <point x="64.0" y="755"/>
      <point x="68.0" y="751"/>
      <point x="73.0" y="751" type="curve" smooth="yes"/>
      <point x="85.0" y="751" type="line" smooth="yes"/>
      <point x="90.0" y="751"/>
      <point x="93.0" y="754"/>
      <point x="93.0" y="760" type="curve" smooth="yes"/>
      <point x="93.0" y="807" type="line" smooth="yes"/>
      <point x="93.0" y="812"/>
      <point x="91.0" y="816"/>
      <point x="85.0" y="816" type="curve" smooth="yes"/>
      <point x="73.0" y="816" type="line" smooth="yes"/>
      <point x="67.0" y="816"/>
      <point x="64.0" y="813"/>
      <point x="64.0" y="807" type="curve" smooth="yes"/>
    </contour>
    <contour>
      <point x="67" y="280" type="line"/>
      <point x="89" y="280" type="line"/>
      <point x="89" y="672" type="line"/>
      <point x="67" y="672" type="line"/>
    </contour>
  </outline>
</glyph>
<glyph name="foursuperior" format="2">
  <advance width="458"/>
  <unicode hex="2074"/>
  <note>
GF Latin Plus glyph
</note>
  <outline>
    <contour>
      <point x="43.0" y="453" type="line"/>
      <point x="51.0" y="434" type="line"/>
      <point x="324.0" y="434" type="line"/>
      <point x="324.0" y="281" type="line"/>
      <point x="346.0" y="281" type="line"/>
      <point x="346.0" y="434" type="line"/>
      <point x="435.0" y="439" type="line"/>
      <point x="435.0" y="454" type="line"/>
      <point x="346.0" y="454" type="line"/>
      <point x="346.0" y="668" type="line"/>
      <point x="331.0" y="668" type="line"/>
      <point x="324.0" y="626" type="line"/>
      <point x="324.0" y="454" type="line"/>
      <point x="67.0" y="454" type="line"/>
      <point x="295.0" y="820" type="line"/>
      <point x="272.0" y="820" type="line"/>
    </contour>
  </outline>
</glyph>
<glyph name="ninesuperior" format="1">
  <advance width="458"/>
  <unicode hex="2079"/>
  <note>
  </note>
  <outline>
    <contour>
      <point x="391.0" y="551" type="curve"/>
      <point x="219.0" y="551" type="line" smooth="yes"/>
      <point x="135.0" y="551"/>
      <point x="81.0" y="564"/>
      <point x="81.0" y="638" type="curve" smooth="yes"/>
      <point x="81.0" y="712" type="line" smooth="yes"/>
      <point x="81.0" y="787"/>
      <point x="130.0" y="802"/>
      <point x="183.0" y="802" type="curve" smooth="yes"/>
      <point x="270.0" y="802" type="line" smooth="yes"/>
      <point x="345.0" y="802"/>
      <point x="391.0" y="752"/>
    </contour>
    <contour>
      <point x="413.0" y="546" type="curve" smooth="yes"/>
      <point x="413.0" y="769"/>
      <point x="354.0" y="822"/>
      <point x="271.0" y="822" type="curve" smooth="yes"/>
      <point x="182.0" y="822" type="line" smooth="yes"/>
      <point x="118.0" y="822"/>
      <point x="60.0" y="795"/>
      <point x="60.0" y="712" type="curve" smooth="yes"/>
      <point x="60.0" y="637" type="line" smooth="yes"/>
      <point x="60.0" y="550"/>
      <point x="126.0" y="531"/>
      <point x="219.0" y="531" type="curve" smooth="yes"/>
      <point x="255.0" y="531"/>
      <point x="339.0" y="533"/>
      <point x="391.0" y="536" type="curve"/>
      <point x="391.0" y="374"/>
      <point x="328.0" y="297"/>
      <point x="234.0" y="297" type="curve" smooth="yes"/>
      <point x="93.0" y="297" type="line"/>
      <point x="93.0" y="282" type="line"/>
      <point x="132.0" y="280"/>
      <point x="190.0" y="277"/>
      <point x="228.0" y="277" type="curve" smooth="yes"/>
      <point x="344.0" y="277"/>
      <point x="413.0" y="365"/>
    </contour>
  </outline>
</glyph>
<glyph name="n.superior" format="2">
  <advance width="438"/>
  <unicode hex="207F"/>
  <anchor x="218.0" y="759" name="top"/>
  <anchor x="218.0" y="169" name="bottom"/>
  <outline>
    <contour>
      <point x="67.0" y="280" type="line"/>
      <point x="89.0" y="280" type="line"/>
      <point x="89.0" y="613" type="line"/>
      <point x="144.0" y="642"/>
      <point x="184.0" y="658"/>
      <point x="248.0" y="658" type="curve" smooth="yes"/>
      <point x="314.0" y="658"/>
      <point x="352.0" y="610"/>
      <point x="352.0" y="552" type="curve" smooth="yes"/>
      <point x="352.0" y="280" type="line"/>
      <point x="374.0" y="280" type="line"/>
      <point x="374.0" y="552" type="line" smooth="yes"/>
      <point x="374.0" y="618"/>
      <point x="331.0" y="678"/>
      <point x="250.0" y="678" type="curve" smooth="yes"/>
      <point x="190.0" y="678"/>
      <point x="132.0" y="654"/>
      <point x="89.0" y="626" type="curve"/>
      <point x="81.0" y="672" type="line"/>
      <point x="67.0" y="672" type="line"/>
    </contour>
  </outline>
</glyph>
<glyph name="franc" format="2">
  <advance width="609"/>
  <unicode hex="20A3"/>
  <note>
GF Latin Plus glyph
</note>
  <outline>
    <contour>
      <point x="158" y="0" type="line"/>
      <point x="182" y="0" type="line"/>
      <point x="182" y="378" type="line"/>
      <point x="481" y="381" type="line"/>
      <point x="481" y="397" type="line"/>
      <point x="182" y="400" type="line"/>
      <point x="182" y="602" type="line" smooth="yes"/>
      <point x="182" y="677"/>
      <point x="222" y="710"/>
      <point x="284" y="710" type="curve" smooth="yes"/>
      <point x="521" y="710" type="line"/>
      <point x="521" y="726" type="line"/>
      <point x="442.079" y="727.998"/>
      <point x="316" y="731"/>
      <point x="284" y="732" type="curve" smooth="yes"/>
      <point x="220" y="734"/>
      <point x="158" y="700"/>
      <point x="158" y="602" type="curve" smooth="yes"/>
    </contour>
    <contour>
      <point x="65" y="163" type="line"/>
      <point x="158" y="160" type="line"/>
      <point x="182" y="160" type="line"/>
      <point x="488" y="163" type="line"/>
      <point x="488" y="179" type="line"/>
      <point x="182" y="182" type="line"/>
      <point x="158" y="182" type="line"/>
      <point x="65" y="179" type="line"/>
    </contour>
  </outline>
</glyph>
<glyph name="naira" format="2">
  <advance width="609"/>
  <unicode hex="20A6"/>
  <note>
GF Latin Plus glyph
</note>
  <outline>
    <contour>
      <point x="105" y="0" type="line"/>
      <point x="129" y="0" type="line"/>
      <point x="129" y="694" type="line"/>
      <point x="480" y="0" type="line"/>
      <point x="504" y="0" type="line"/>
      <point x="504" y="743" type="line"/>
      <point x="480" y="743" type="line"/>
      <point x="480" y="49" type="line"/>
      <point x="129" y="743" type="line"/>
      <point x="105" y="743" type="line"/>
    </contour>
    <contour>
      <point x="30.0" y="464.0" type="line"/>
      <point x="115" y="464" type="line"/>
      <point x="115" y="488" type="line"/>
      <point x="30.0" y="488.0" type="line"/>
    </contour>
    <contour>
      <point x="258" y="464" type="line"/>
      <point x="579.0" y="464.0" type="line"/>
      <point x="579.0" y="488.0" type="line"/>
      <point x="248" y="488" type="line"/>
    </contour>
    <contour>
      <point x="30.0" y="255.0" type="line"/>
      <point x="363" y="255" type="line"/>
      <point x="352" y="279" type="line"/>
      <point x="30.0" y="279.0" type="line"/>
    </contour>
    <contour>
      <point x="491" y="255" type="line"/>
      <point x="579.0" y="255.0" type="line"/>
      <point x="579.0" y="279.0" type="line"/>
      <point x="491" y="279" type="line"/>
    </contour>
  </outline>
</glyph>
<glyph name="peseta" format="2">
  <advance width="609"/>
  <unicode hex="20A7"/>
  <note>
GF Latin Plus glyph
</note>
  <outline>
    <contour>
      <point x="132" y="247" type="line"/>
      <point x="132" y="710" type="line"/>
      <point x="344" y="710" type="line" smooth="yes"/>
      <point x="420" y="710"/>
      <point x="495" y="671"/>
      <point x="495" y="482" type="curve" smooth="yes"/>
      <point x="495" y="293"/>
      <point x="418" y="247"/>
      <point x="334" y="247" type="curve" smooth="yes"/>
    </contour>
    <contour>
      <point x="108" y="0" type="line"/>
      <point x="132" y="0" type="line"/>
      <point x="132" y="231" type="line"/>
      <point x="169.31507495946167" y="229.17975244100188"/>
      <point x="302.1531531531532" y="225.0"/>
      <point x="334" y="225" type="curve" smooth="yes"/>
      <point x="412" y="225"/>
      <point x="520" y="268"/>
      <point x="520" y="482" type="curve" smooth="yes"/>
      <point x="520" y="693"/>
      <point x="423" y="732"/>
      <point x="344" y="732" type="curve" smooth="yes"/>
      <point x="108" y="732" type="line"/>
    </contour>
    <contour>
      <point x="122" y="464" type="line"/>
      <point x="599" y="464" type="line"/>
      <point x="599" y="486" type="line"/>
      <point x="122" y="486" type="line"/>
    </contour>
    <contour>
      <point x="20" y="464" type="line"/>
      <point x="118" y="464" type="line"/>
      <point x="118" y="486" type="line"/>
      <point x="20" y="486" type="line"/>
    </contour>
  </outline>
</glyph>
<glyph name="won" format="2">
  <advance width="609"/>
  <unicode hex="20A9"/>
  <note>
GF Latin Plus glyph
</note>
  <outline>
    <contour>
      <point x="55" y="732" type="line"/>
      <point x="145" y="0" type="line"/>
      <point x="166" y="0" type="line"/>
      <point x="303" y="555" type="line"/>
      <point x="434" y="0" type="line"/>
      <point x="454" y="0" type="line"/>
      <point x="549" y="732" type="line"/>
      <point x="524" y="732" type="line"/>
      <point x="440" y="79" type="line"/>
      <point x="314" y="603" type="line"/>
      <point x="291" y="603" type="line"/>
      <point x="160" y="79" type="line"/>
      <point x="80" y="732" type="line"/>
    </contour>
    <contour>
      <point x="5" y="464" type="line"/>
      <point x="102" y="464" type="line"/>
      <point x="102" y="488" type="line"/>
      <point x="5" y="488" type="line"/>
    </contour>
    <contour>
      <point x="510" y="464" type="line"/>
      <point x="594" y="464" type="line"/>
      <point x="594" y="488" type="line"/>
      <point x="510" y="488" type="line"/>
    </contour>
    <contour>
      <point x="5" y="255" type="line"/>
      <point x="131" y="255" type="line"/>
      <point x="126" y="279" type="line"/>
      <point x="5" y="279" type="line"/>
    </contour>
    <contour>
      <point x="477" y="255" type="line"/>
      <point x="594" y="255" type="line"/>
      <point x="594" y="279" type="line"/>
      <point x="477" y="279" type="line"/>
    </contour>
  </outline>
</glyph>
<glyph name="dong" format="2">
  <advance width="609"/>
  <unicode hex="20AB"/>
  <note>
GF Latin Plus glyph
</note>
  <outline>
    <contour>
      <point x="80" y="-26" type="line"/>
      <point x="548" y="-26" type="line"/>
      <point x="548" y="-2" type="line"/>
      <point x="80" y="-2" type="line"/>
    </contour>
    <contour>
      <point x="320" y="680" type="line"/>
      <point x="578" y="680" type="line"/>
      <point x="578" y="696" type="line"/>
      <point x="320" y="696" type="line"/>
    </contour>
    <contour>
      <point x="114" y="343" type="curve" smooth="yes"/>
      <point x="114.0" y="501.1587301587301"/>
      <point x="165.0" y="555.0"/>
      <point x="292" y="555" type="curve" smooth="yes"/>
      <point x="365" y="555"/>
      <point x="411" y="542"/>
      <point x="477" y="525" type="curve"/>
      <point x="477" y="193" type="line"/>
      <point x="424" y="166"/>
      <point x="361" y="136"/>
      <point x="282" y="136" type="curve" smooth="yes"/>
      <point x="162.0" y="136.0"/>
      <point x="114.0" y="201.3684210526316"/>
    </contour>
    <contour>
      <point x="90" y="343" type="curve" smooth="yes"/>
      <point x="90.0" y="191.46840148698885"/>
      <point x="146.0" y="114.0"/>
      <point x="282" y="114" type="curve" smooth="yes"/>
      <point x="349" y="114"/>
      <point x="451" y="153"/>
      <point x="477" y="177" type="curve"/>
      <point x="485" y="120" type="line"/>
      <point x="501" y="120" type="line"/>
      <point x="501" y="783" type="line"/>
      <point x="477" y="783" type="line"/>
      <point x="477" y="541" type="line"/>
      <point x="429" y="558"/>
      <point x="360" y="577"/>
      <point x="292" y="577" type="curve" smooth="yes"/>
      <point x="150.0" y="577.0"/>
      <point x="90.0" y="512.094890510949"/>
    </contour>
  </outline>
</glyph>
<glyph name="euro" format="2">
  <advance width="609"/>
  <unicode hex="20AC"/>
  <note>
GF Latin Plus glyph
</note>
  <outline>
    <contour>
      <point x="27" y="432" type="line"/>
      <point x="105" y="429" type="line"/>
      <point x="120" y="429" type="line"/>
      <point x="423" y="432" type="line"/>
      <point x="423" y="448" type="line"/>
      <point x="120" y="451" type="line"/>
      <point x="105" y="451" type="line"/>
      <point x="27" y="447" type="line"/>
    </contour>
    <contour>
      <point x="27" y="271" type="line"/>
      <point x="105" y="267" type="line"/>
      <point x="120" y="267" type="line"/>
      <point x="423" y="270" type="line"/>
      <point x="423" y="286" type="line"/>
      <point x="120" y="289" type="line"/>
      <point x="105" y="289" type="line"/>
      <point x="27" y="287" type="line"/>
    </contour>
    <component base="C" xOffset="30"/>
  </outline>
</glyph>
<glyph name="kip" format="2">
  <advance width="609"/>
  <unicode hex="20AD"/>
  <note>
GF Latin Plus glyph
</note>
  <outline>
    <contour>
      <point x="30" y="356" type="line"/>
      <point x="539" y="356" type="line"/>
      <point x="539" y="378" type="line"/>
      <point x="30" y="378" type="line"/>
    </contour>
    <contour>
      <point x="108" y="0" type="line"/>
      <point x="132" y="0" type="line"/>
      <point x="132" y="356" type="line"/>
      <point x="286" y="356" type="line"/>
      <point x="527" y="0" type="line"/>
      <point x="554" y="0" type="line"/>
      <point x="306" y="367" type="line"/>
      <point x="554" y="732" type="line"/>
      <point x="528" y="732" type="line"/>
      <point x="287" y="378" type="line"/>
      <point x="132" y="378" type="line"/>
      <point x="132" y="732" type="line"/>
      <point x="108" y="732" type="line"/>
    </contour>
  </outline>
</glyph>
<glyph name="peso" format="2">
  <advance width="609"/>
  <unicode hex="20B1"/>
  <note>
GF Latin Plus glyph
</note>
  <outline>
    <contour>
      <point x="497" y="559" type="line"/>
      <point x="599" y="559" type="line"/>
      <point x="599" y="581" type="line"/>
      <point x="497" y="581" type="line"/>
    </contour>
    <contour>
      <point x="10" y="559" type="line"/>
      <point x="150" y="559" type="line"/>
      <point x="150" y="581" type="line"/>
      <point x="10" y="581" type="line"/>
    </contour>
    <contour>
      <point x="476" y="392" type="line"/>
      <point x="599" y="392" type="line"/>
      <point x="599" y="414" type="line"/>
      <point x="486" y="414" type="line"/>
    </contour>
    <contour>
      <point x="10" y="392" type="line"/>
      <point x="153" y="392" type="line"/>
      <point x="153" y="414" type="line"/>
      <point x="10" y="414" type="line"/>
    </contour>
    <contour>
      <point x="162" y="307" type="line"/>
      <point x="162" y="710" type="line"/>
      <point x="334" y="710" type="line" smooth="yes"/>
      <point x="410" y="710"/>
      <point x="485" y="676"/>
      <point x="485" y="512" type="curve" smooth="yes"/>
      <point x="485" y="347"/>
      <point x="408" y="307"/>
      <point x="324" y="307" type="curve" smooth="yes"/>
    </contour>
    <contour>
      <point x="138" y="0" type="line"/>
      <point x="162" y="0" type="line"/>
      <point x="162" y="291" type="line"/>
      <point x="207" y="289"/>
      <point x="286" y="285"/>
      <point x="324" y="285" type="curve" smooth="yes"/>
      <point x="402" y="285"/>
      <point x="510" y="323"/>
      <point x="510" y="512" type="curve" smooth="yes"/>
      <point x="510" y="698"/>
      <point x="413" y="732"/>
      <point x="334" y="732" type="curve" smooth="yes"/>
      <point x="138" y="732" type="line"/>
    </contour>
  </outline>
</glyph>
<glyph name="manat" format="2">
  <advance width="609"/>
  <unicode hex="20BC"/>
  <note>
GF Latin Plus glyph
</note>
  <outline>
    <contour>
      <point x="316" y="80" type="line"/>
      <point x="316" y="783" type="line"/>
      <point x="293" y="783" type="line"/>
      <point x="293" y="80" type="line"/>
    </contour>
    <contour>
      <point x="304" y="669" type="curve" smooth="yes"/>
      <point x="102" y="669"/>
      <point x="64.30501238623407" y="384.2970115514669"/>
      <point x="55" y="0" type="curve"/>
      <point x="79" y="0" type="line"/>
      <point x="89" y="199" type="line" smooth="yes"/>
      <point x="99" y="402"/>
      <point x="137" y="647"/>
      <point x="304" y="647" type="curve" smooth="yes"/>
      <point x="471" y="647"/>
      <point x="509.8191512389574" y="401.59889034474793"/>
      <point x="520" y="199" type="curve" smooth="yes"/>
      <point x="530" y="0" type="line"/>
      <point x="554" y="0" type="line"/>
      <point x="544.694987613766" y="384.2970115514669"/>
      <point x="506" y="669"/>
    </contour>
  </outline>
</glyph>
<glyph name="ruble" format="2">
  <advance width="609"/>
  <unicode hex="20BD"/>
  <note>
GF Latin Plus glyph
</note>
  <outline>
    <contour>
      <point x="151" y="132" type="line"/>
      <point x="479" y="132" type="line"/>
      <point x="479" y="154" type="line"/>
      <point x="151" y="154" type="line"/>
    </contour>
    <contour>
      <point x="20" y="132" type="line"/>
      <point x="147" y="132" type="line"/>
      <point x="147" y="154" type="line"/>
      <point x="20" y="154" type="line"/>
    </contour>
    <contour>
      <point x="159" y="316" type="line"/>
      <point x="159" y="710" type="line"/>
      <point x="331" y="710" type="line" smooth="yes"/>
      <point x="460.0" y="710"/>
      <point x="513.0" y="662.439024390244"/>
      <point x="513" y="515" type="curve" smooth="yes"/>
      <point x="513.0" y="382.33333333333337"/>
      <point x="463.0" y="316"/>
      <point x="331" y="316" type="curve" smooth="yes"/>
    </contour>
    <contour>
      <point x="135" y="0" type="line"/>
      <point x="159" y="0" type="line"/>
      <point x="159" y="294" type="line"/>
      <point x="217" y="294.0"/>
      <point x="274" y="294.0"/>
      <point x="332" y="294" type="curve" smooth="yes"/>
      <point x="470.0" y="294"/>
      <point x="537.0" y="373.6018957345972"/>
      <point x="537" y="515" type="curve" smooth="yes"/>
      <point x="537.0" y="680.3788546255507"/>
      <point x="457.0" y="732"/>
      <point x="351" y="732" type="curve" smooth="yes"/>
      <point x="135" y="732" type="line"/>
    </contour>
    <contour>
      <point x="20" y="294" type="line"/>
      <point x="141" y="294" type="line"/>
      <point x="141" y="316" type="line"/>
      <point x="20" y="316" type="line"/>
    </contour>
  </outline>
</glyph>
<glyph name="literSign" format="1">
  <advance width="417"/>
  <unicode hex="2113"/>
  <note>
  </note>
  <outline>
    <contour>
      <point x="121" y="321" type="curve"/>
      <point x="121" y="626" type="line" smooth="yes"/>
      <point x="121" y="684"/>
      <point x="164" y="717"/>
      <point x="208" y="717" type="curve" smooth="yes"/>
      <point x="273" y="717"/>
      <point x="312" y="666"/>
      <point x="312" y="605" type="curve" smooth="yes"/>
      <point x="312" y="490"/>
      <point x="217" y="409"/>
    </contour>
    <contour>
      <point x="40" y="248" type="curve"/>
      <point x="48" y="236" type="line"/>
      <point x="58" y="241"/>
      <point x="86" y="260"/>
      <point x="98" y="273" type="curve"/>
      <point x="98" y="188" type="line" smooth="yes"/>
      <point x="98" y="47"/>
      <point x="139" y="0"/>
      <point x="216" y="0" type="curve" smooth="yes"/>
      <point x="288" y="0" type="line"/>
      <point x="288" y="16" type="line"/>
      <point x="214" y="24" type="line" smooth="yes"/>
      <point x="160" y="30"/>
      <point x="121" y="53"/>
      <point x="121" y="188" type="curve" smooth="yes"/>
      <point x="121" y="294" type="line"/>
      <point x="239" y="398"/>
      <point x="334" y="492"/>
      <point x="334" y="605" type="curve" smooth="yes"/>
      <point x="334" y="677"/>
      <point x="288" y="739"/>
      <point x="210" y="739" type="curve" smooth="yes"/>
      <point x="149" y="739"/>
      <point x="98" y="699"/>
      <point x="98" y="625" type="curve" smooth="yes"/>
      <point x="98" y="302" type="line"/>
      <point x="79" y="282"/>
      <point x="59" y="265"/>
    </contour>
  </outline>
</glyph>
<glyph name="numero" format="2">
  <advance width="1101"/>
  <unicode hex="2116"/>
  <note>
GF Latin Plus glyph
</note>
  <outline>
    <contour>
      <point x="108" y="0" type="line"/>
      <point x="132" y="0" type="line"/>
      <point x="132" y="645" type="line" smooth="yes"/>
      <point x="132" y="697"/>
      <point x="154" y="715"/>
      <point x="185" y="715" type="curve" smooth="yes"/>
      <point x="213" y="715"/>
      <point x="232" y="701"/>
      <point x="244" y="668" type="curve" smooth="yes"/>
      <point x="465" y="49" type="line" smooth="yes"/>
      <point x="479" y="10"/>
      <point x="508" y="-6"/>
      <point x="538" y="-6" type="curve" smooth="yes"/>
      <point x="589" y="-6"/>
      <point x="623" y="27"/>
      <point x="623" y="79" type="curve" smooth="yes"/>
      <point x="623" y="544" type="line" smooth="yes"/>
      <point x="623" y="689"/>
      <point x="700" y="720"/>
      <point x="784" y="720" type="curve" smooth="yes"/>
      <point x="899" y="720" type="line" smooth="yes"/>
      <point x="963" y="720"/>
      <point x="1025" y="684"/>
      <point x="1025" y="557" type="curve" smooth="yes"/>
      <point x="1025" y="458"/>
      <point x="987" y="407"/>
      <point x="904" y="407" type="curve" smooth="yes"/>
      <point x="869" y="407" type="line" smooth="yes"/>
      <point x="797.5" y="407"/>
      <point x="759.0" y="458.653465347"/>
      <point x="759" y="629" type="curve"/>
      <point x="737" y="629" type="line"/>
      <point x="737.0" y="446.0"/>
      <point x="780.278688525" y="385"/>
      <point x="869" y="385" type="curve" smooth="yes"/>
      <point x="905" y="385" type="line" smooth="yes"/>
      <point x="999" y="385"/>
      <point x="1047" y="448"/>
      <point x="1047" y="557" type="curve" smooth="yes"/>
      <point x="1047" y="698"/>
      <point x="972" y="742"/>
      <point x="900" y="742" type="curve" smooth="yes"/>
      <point x="786" y="742" type="line" smooth="yes"/>
      <point x="691" y="742"/>
      <point x="599" y="697"/>
      <point x="599" y="542" type="curve" smooth="yes"/>
      <point x="599" y="86" type="line" smooth="yes"/>
      <point x="599" y="42"/>
      <point x="578" y="16"/>
      <point x="539" y="16" type="curve" smooth="yes"/>
      <point x="517" y="16"/>
      <point x="495" y="31"/>
      <point x="486" y="57" type="curve" smooth="yes"/>
      <point x="264" y="680" type="line" smooth="yes"/>
      <point x="250" y="719"/>
      <point x="226" y="737"/>
      <point x="186" y="737" type="curve" smooth="yes"/>
      <point x="140" y="737"/>
      <point x="108" y="707"/>
      <point x="108" y="650" type="curve" smooth="yes"/>
    </contour>
  </outline>
</glyph>
<glyph name="increment" format="2">
  <advance width="706"/>
  <unicode hex="2206"/>
  <outline>
    <contour>
      <point x="80" y="22" type="line"/>
      <point x="333" y="708" type="line"/>
      <point x="583" y="22" type="line"/>
    </contour>
    <contour>
      <point x="48" y="0" type="line"/>
      <point x="618" y="0" type="line"/>
      <point x="350" y="732" type="line"/>
      <point x="316" y="732" type="line"/>
    </contour>
  </outline>
</glyph>
<glyph name="product" format="1">
  <advance width="588"/>
  <unicode hex="220F"/>
  <note>
  </note>
  <outline>
    <contour>
      <point x="27" y="710" type="line"/>
      <point x="113" y="710" type="line"/>
      <point x="113" y="0" type="line"/>
      <point x="137" y="0" type="line"/>
      <point x="137" y="710" type="line"/>
      <point x="450" y="710" type="line"/>
      <point x="450" y="0" type="line"/>
      <point x="474" y="0" type="line"/>
      <point x="474" y="710" type="line"/>
      <point x="561" y="710" type="line"/>
      <point x="561" y="732" type="line"/>
      <point x="27" y="732" type="line"/>
    </contour>
  </outline>
</glyph>
<glyph name="summation" format="2">
  <advance width="567"/>
  <unicode hex="2211"/>
  <outline>
    <contour>
      <point x="54" y="-173" type="line"/>
      <point x="54" y="-200" type="line"/>
      <point x="540" y="-200" type="line"/>
      <point x="540" y="-176" type="line"/>
      <point x="80" y="-176" type="line"/>
      <point x="294" y="270" type="line"/>
      <point x="81" y="708" type="line"/>
      <point x="540" y="708" type="line"/>
      <point x="540" y="732" type="line"/>
      <point x="54" y="732" type="line"/>
      <point x="54" y="708" type="line"/>
      <point x="268" y="270" type="line"/>
    </contour>
  </outline>
</glyph>
<glyph name="bulletoperator" format="2">
  <advance width="609"/>
  <unicode hex="2219"/>
  <note>
GF Latin Plus glyph
</note>
  <outline>
    <contour>
      <point x="274" y="343" type="line" smooth="yes"/>
      <point x="274" y="329"/>
      <point x="284" y="320"/>
      <point x="298" y="320" type="curve" smooth="yes"/>
      <point x="310" y="320" type="line" smooth="yes"/>
      <point x="324" y="320"/>
      <point x="335" y="325"/>
      <point x="335" y="343" type="curve" smooth="yes"/>
      <point x="335" y="367" type="line" smooth="yes"/>
      <point x="335" y="383"/>
      <point x="328" y="392"/>
      <point x="310" y="392" type="curve" smooth="yes"/>
      <point x="298" y="392" type="line" smooth="yes"/>
      <point x="282" y="392"/>
      <point x="274" y="382"/>
      <point x="274" y="367" type="curve" smooth="yes"/>
    </contour>
  </outline>
</glyph>
<glyph name="radical" format="2">
  <advance width="592"/>
  <unicode hex="221A"/>
  <outline>
    <contour>
      <point x="27" y="334" type="line"/>
      <point x="115" y="334" type="line"/>
      <point x="262" y="0" type="line"/>
      <point x="280" y="0" type="line"/>
      <point x="565" y="800" type="line"/>
      <point x="541" y="800" type="line"/>
      <point x="269" y="41" type="line"/>
      <point x="130" y="358" type="line"/>
      <point x="27" y="358" type="line"/>
    </contour>
  </outline>
</glyph>
<glyph name="infinity" format="2">
  <advance width="821"/>
  <unicode hex="221E"/>
  <outline>
    <contour>
      <point x="422" y="343" type="curve"/>
      <point x="463" y="407"/>
      <point x="549" y="490"/>
      <point x="617" y="490" type="curve" smooth="yes"/>
      <point x="713" y="490"/>
      <point x="730" y="430"/>
      <point x="730" y="341" type="curve" smooth="yes"/>
      <point x="730" y="256"/>
      <point x="712" y="193"/>
      <point x="608" y="193" type="curve" smooth="yes"/>
      <point x="535" y="193"/>
      <point x="465" y="267"/>
    </contour>
    <contour>
      <point x="92" y="341" type="curve" smooth="yes"/>
      <point x="92" y="450"/>
      <point x="118" y="490"/>
      <point x="209" y="490" type="curve" smooth="yes"/>
      <point x="273" y="490"/>
      <point x="350" y="414"/>
      <point x="398" y="343" type="curve"/>
      <point x="370" y="295"/>
      <point x="301" y="193"/>
      <point x="207" y="193" type="curve" smooth="yes"/>
      <point x="123" y="193"/>
      <point x="92" y="239"/>
    </contour>
    <contour>
      <point x="68" y="341" type="curve" smooth="yes"/>
      <point x="68" y="249"/>
      <point x="87" y="169"/>
      <point x="208" y="169" type="curve" smooth="yes"/>
      <point x="304" y="169"/>
      <point x="374" y="251"/>
      <point x="410" y="322" type="curve"/>
      <point x="444" y="261"/>
      <point x="518" y="169"/>
      <point x="608" y="169" type="curve" smooth="yes"/>
      <point x="735" y="169"/>
      <point x="754" y="249"/>
      <point x="754" y="341" type="curve" smooth="yes"/>
      <point x="754" y="418"/>
      <point x="746" y="514"/>
      <point x="622" y="514" type="curve" smooth="yes"/>
      <point x="532" y="514"/>
      <point x="444" y="419"/>
      <point x="410" y="364" type="curve"/>
      <point x="372" y="422"/>
      <point x="290" y="514"/>
      <point x="209" y="514" type="curve" smooth="yes"/>
      <point x="76" y="514"/>
      <point x="68" y="428"/>
    </contour>
  </outline>
</glyph>
<glyph name="integral" format="1">
  <advance width="455"/>
  <unicode hex="222B"/>
  <note>
  </note>
  <outline>
    <contour>
      <point x="27" y="-180" type="line"/>
      <point x="27" y="-196" type="line"/>
      <point x="45" y="-200"/>
      <point x="81" y="-202"/>
      <point x="116" y="-202" type="curve" smooth="yes"/>
      <point x="194" y="-202"/>
      <point x="239" y="-142"/>
      <point x="239" y="-32" type="curve" smooth="yes"/>
      <point x="239" y="636" type="line" smooth="yes"/>
      <point x="239" y="720"/>
      <point x="260.0" y="776"/>
      <point x="340" y="776" type="curve" smooth="yes"/>
      <point x="428" y="776" type="line"/>
      <point x="428" y="792" type="line"/>
      <point x="412.6924321229273" y="793.8008903384791"/>
      <point x="394" y="798"/>
      <point x="339" y="798" type="curve" smooth="yes"/>
      <point x="252.0" y="798.0"/>
      <point x="215" y="742"/>
      <point x="215" y="636" type="curve" smooth="yes"/>
      <point x="215" y="-32" type="line" smooth="yes"/>
      <point x="215" y="-142"/>
      <point x="164" y="-180"/>
      <point x="113" y="-180" type="curve" smooth="yes"/>
    </contour>
  </outline>
</glyph>
<glyph name="approxequal" format="2">
  <advance width="609"/>
  <unicode hex="2248"/>
  <note>
GF Latin Plus glyph
</note>
  <outline>
    <contour>
      <point x="80" y="434" type="line"/>
      <point x="110" y="460"/>
      <point x="150" y="474"/>
      <point x="190" y="474" type="curve" smooth="yes"/>
      <point x="259.1276595744681" y="474.0"/>
      <point x="337.9807692307692" y="434.0"/>
      <point x="418" y="434" type="curve" smooth="yes"/>
      <point x="475" y="434"/>
      <point x="509" y="456"/>
      <point x="528" y="474" type="curve"/>
      <point x="528" y="498" type="line"/>
      <point x="507" y="478"/>
      <point x="473" y="458"/>
      <point x="418" y="458" type="curve" smooth="yes"/>
      <point x="337.9807692307692" y="458.0"/>
      <point x="267.6170212765958" y="498.0"/>
      <point x="190" y="498" type="curve" smooth="yes"/>
      <point x="150" y="498"/>
      <point x="108" y="482"/>
      <point x="80" y="458" type="curve"/>
    </contour>
    <contour>
      <point x="80" y="194" type="line"/>
      <point x="110" y="220"/>
      <point x="150" y="234"/>
      <point x="190" y="234" type="curve" smooth="yes"/>
      <point x="259.1276595744681" y="234.0"/>
      <point x="337.9807692307692" y="194.0"/>
      <point x="418" y="194" type="curve" smooth="yes"/>
      <point x="475" y="194"/>
      <point x="509" y="216"/>
      <point x="528" y="234" type="curve"/>
      <point x="528" y="258" type="line"/>
      <point x="507" y="238"/>
      <point x="473" y="218"/>
      <point x="418" y="218" type="curve" smooth="yes"/>
      <point x="337.9807692307692" y="218.0"/>
      <point x="267.6170212765958" y="258.0"/>
      <point x="190" y="258" type="curve" smooth="yes"/>
      <point x="150" y="258"/>
      <point x="108" y="242"/>
      <point x="80" y="218" type="curve"/>
    </contour>
  </outline>
</glyph>
<glyph name="notequal" format="2">
  <advance width="609"/>
  <unicode hex="2260"/>
  <note>
GF Latin Plus glyph
</note>
  <outline>
    <contour>
      <point x="462" y="633" type="line"/>
      <point x="120" y="79" type="line"/>
      <point x="146" y="79" type="line"/>
      <point x="488" y="633" type="line"/>
    </contour>
    <component base="equal"/>
  </outline>
</glyph>
<glyph name="lessequal" format="2">
  <advance width="609"/>
  <unicode hex="2264"/>
  <note>
GF Latin Plus glyph
</note>
  <outline>
    <contour>
      <point x="96" y="386" type="line"/>
      <point x="511" y="250" type="line"/>
      <point x="511" y="270" type="line"/>
      <point x="116" y="399" type="line"/>
      <point x="511" y="526" type="line"/>
      <point x="511" y="546" type="line"/>
      <point x="96" y="410" type="line"/>
    </contour>
    <component base="minus" xOffset="1" yOffset="-250"/>
  </outline>
</glyph>
<glyph name="lozenge" format="2">
  <advance width="536"/>
  <unicode hex="25CA"/>
  <outline>
    <contour>
      <point x="54" y="373" type="line"/>
      <point x="271" y="711" type="line"/>
      <point x="483" y="373" type="line"/>
      <point x="271" y="26" type="line"/>
    </contour>
    <contour>
      <point x="27" y="373" type="line"/>
      <point x="259" y="0" type="line"/>
      <point x="283" y="0" type="line"/>
      <point x="509" y="373" type="line"/>
      <point x="283" y="732" type="line"/>
      <point x="259" y="732" type="line"/>
    </contour>
  </outline>
</glyph>
<glyph name="f_f" format="1">
  <advance width="748"/>
  <unicode hex="FB00"/>
  <note>
    GF Latin Plus glyph
  </note>
  <outline>
    <contour>
      <point x="27" y="509" type="line"/>
      <point x="114" y="509" type="line"/>
      <point x="114" y="0" type="line"/>
      <point x="138" y="0" type="line"/>
      <point x="138" y="509" type="line"/>
      <point x="501" y="509" type="line"/>
      <point x="501" y="531" type="line"/>
      <point x="138" y="531" type="line"/>
      <point x="138" y="613" type="line" smooth="yes"/>
      <point x="138" y="699"/>
      <point x="154" y="747"/>
      <point x="248" y="747" type="curve" smooth="yes"/>
      <point x="278" y="747"/>
      <point x="311" y="744"/>
      <point x="343" y="740" type="curve"/>
      <point x="343" y="756" type="line"/>
      <point x="316" y="763"/>
      <point x="293" y="769"/>
      <point x="247" y="769" type="curve" smooth="yes"/>
      <point x="137" y="769"/>
      <point x="114" y="707"/>
      <point x="114" y="613" type="curve" smooth="yes"/>
      <point x="114" y="531" type="line"/>
      <point x="27" y="525" type="line"/>
    </contour>
    <component base="f" xOffset="374"/>
  </outline>
</glyph>
<glyph name="fi" format="2">
  <advance width="580"/>
  <unicode hex="FB01"/>
  <note>
GF Latin Plus glyph
</note>
  <outline>
    <contour>
      <point x="27" y="509" type="line"/>
      <point x="114" y="509" type="line"/>
      <point x="114" y="0" type="line"/>
      <point x="138" y="0" type="line"/>
      <point x="138" y="509" type="line"/>
      <point x="477" y="509" type="line"/>
      <point x="477" y="531" type="line"/>
      <point x="138" y="531" type="line"/>
      <point x="138" y="613" type="line" smooth="yes"/>
      <point x="138" y="699"/>
      <point x="154" y="747"/>
      <point x="248" y="747" type="curve" smooth="yes"/>
      <point x="278" y="747"/>
      <point x="311" y="744"/>
      <point x="343" y="740" type="curve"/>
      <point x="343" y="756" type="line"/>
      <point x="316" y="763"/>
      <point x="293" y="769"/>
      <point x="247" y="769" type="curve" smooth="yes"/>
      <point x="137" y="769"/>
      <point x="114" y="707"/>
      <point x="114" y="613" type="curve" smooth="yes"/>
      <point x="114" y="531" type="line"/>
      <point x="27" y="525" type="line"/>
    </contour>
    <component base="i" xOffset="374"/>
  </outline>
</glyph>
<glyph name="fl" format="2">
  <advance width="652"/>
  <unicode hex="FB02"/>
  <note>
GF Latin Plus glyph
</note>
  <outline>
    <contour>
      <point x="27" y="509" type="line"/>
      <point x="114" y="509" type="line"/>
      <point x="114" y="0" type="line"/>
      <point x="138" y="0" type="line"/>
      <point x="138" y="509" type="line"/>
      <point x="326" y="509" type="line"/>
      <point x="326" y="531" type="line"/>
      <point x="138" y="531" type="line"/>
      <point x="138" y="613" type="line" smooth="yes"/>
      <point x="138" y="699"/>
      <point x="159" y="747"/>
      <point x="278" y="747" type="curve" smooth="yes"/>
      <point x="344.0" y="747.0"/>
      <point x="420" y="743"/>
      <point x="489" y="737" type="curve"/>
      <point x="489" y="753" type="line"/>
      <point x="429" y="757"/>
      <point x="367.0" y="769.0"/>
      <point x="277" y="769" type="curve" smooth="yes"/>
      <point x="142" y="769"/>
      <point x="114" y="707"/>
      <point x="114" y="613" type="curve" smooth="yes"/>
      <point x="114" y="531" type="line"/>
      <point x="27" y="525" type="line"/>
    </contour>
    <contour>
      <point x="465" y="169" type="line" smooth="yes"/>
      <point x="465" y="35"/>
      <point x="509" y="0"/>
      <point x="583" y="0" type="curve" smooth="yes"/>
      <point x="643" y="0" type="line"/>
      <point x="643" y="16" type="line"/>
      <point x="579" y="23" type="line" smooth="yes"/>
      <point x="524" y="29"/>
      <point x="489" y="48"/>
      <point x="489" y="169" type="curve" smooth="yes"/>
      <point x="489" y="753" type="line"/>
      <point x="465" y="753" type="line"/>
    </contour>
  </outline>
</glyph>
<glyph name="B.smcp" format="2">
  <advance width="499"/>
  <anchor x="250" y="650" name="top"/>
  <outline>
    <contour>
      <point x="106" y="300" type="line"/>
      <point x="106" y="539" type="line"/>
      <point x="283" y="539" type="line" smooth="yes"/>
      <point x="355" y="539"/>
      <point x="405" y="508"/>
      <point x="401" y="418" type="curve" smooth="yes"/>
      <point x="399" y="345"/>
      <point x="352" y="300"/>
      <point x="289" y="300" type="curve" smooth="yes"/>
    </contour>
    <contour>
      <point x="106" y="21" type="line"/>
      <point x="106" y="280" type="line"/>
      <point x="289" y="280" type="line" smooth="yes"/>
      <point x="362" y="280"/>
      <point x="423" y="236"/>
      <point x="423" y="158" type="curve" smooth="yes"/>
      <point x="423" y="45"/>
      <point x="368" y="21"/>
      <point x="289" y="21" type="curve" smooth="yes"/>
    </contour>
    <contour>
      <point x="82" y="0" type="line"/>
      <point x="289" y="0" type="line" smooth="yes"/>
      <point x="383" y="0"/>
      <point x="447" y="32"/>
      <point x="447" y="156" type="curve" smooth="yes"/>
      <point x="447" y="250"/>
      <point x="376" y="283"/>
      <point x="340" y="291" type="curve"/>
      <point x="382" y="302"/>
      <point x="425" y="347"/>
      <point x="425" y="419" type="curve" smooth="yes"/>
      <point x="425" y="517"/>
      <point x="374" y="560"/>
      <point x="283" y="560" type="curve" smooth="yes"/>
      <point x="82" y="560" type="line"/>
    </contour>
  </outline>
</glyph>
<glyph name="C.smcp" format="2">
  <advance width="492"/>
  <anchor x="279" y="660" name="top"/>
  <anchor x="280" y="-150" name="bottom"/>
  <outline>
    <contour>
      <point x="68" y="282" type="curve" smooth="yes"/>
      <point x="68" y="41"/>
      <point x="126" y="-5"/>
      <point x="273" y="-5" type="curve" smooth="yes"/>
      <point x="316" y="-5"/>
      <point x="386" y="2"/>
      <point x="440" y="11" type="curve"/>
      <point x="440" y="27" type="line"/>
      <point x="407" y="21"/>
      <point x="356" y="16"/>
      <point x="275" y="16" type="curve" smooth="yes"/>
      <point x="143" y="16"/>
      <point x="92" y="54"/>
      <point x="92" y="281" type="curve" smooth="yes"/>
      <point x="92" y="495"/>
      <point x="144" y="544"/>
      <point x="279" y="544" type="curve" smooth="yes"/>
      <point x="341" y="544"/>
      <point x="415" y="537"/>
      <point x="440" y="533" type="curve"/>
      <point x="440" y="549" type="line"/>
      <point x="384" y="559"/>
      <point x="310" y="565"/>
      <point x="280" y="565" type="curve" smooth="yes"/>
      <point x="126" y="565"/>
      <point x="68" y="506"/>
    </contour>
  </outline>
</glyph>
<glyph name="D.smcp" format="1">
  <advance width="560"/>
  <note>
  </note>
  <outline>
    <contour>
      <point x="106" y="21" type="line"/>
      <point x="106" y="539" type="line"/>
      <point x="305" y="539" type="line" smooth="yes"/>
      <point x="421" y="539"/>
      <point x="468" y="462"/>
      <point x="468" y="280" type="curve" smooth="yes"/>
      <point x="468" y="128"/>
      <point x="416" y="21"/>
      <point x="305" y="21" type="curve" smooth="yes"/>
    </contour>
    <contour>
      <point x="82" y="0" type="line"/>
      <point x="305" y="0" type="line" smooth="yes"/>
      <point x="428" y="0"/>
      <point x="492" y="114"/>
      <point x="492" y="280" type="curve" smooth="yes"/>
      <point x="492" y="470"/>
      <point x="436" y="560"/>
      <point x="305" y="560" type="curve" smooth="yes"/>
      <point x="82" y="560" type="line"/>
    </contour>
    <contour>
      <point x="264" y="650" type="move" name="top"/>
    </contour>
    <contour>
      <point x="263" y="-150" type="move" name="bottom"/>
    </contour>
  </outline>
</glyph>
<glyph name="Eng.smcp" format="2">
  <advance width="564"/>
  <outline>
    <contour>
      <point x="290" y="-162" type="line"/>
      <point x="312" y="-173"/>
      <point x="349" y="-181"/>
      <point x="377" y="-181" type="curve" smooth="yes"/>
      <point x="454" y="-181"/>
      <point x="498" y="-156"/>
      <point x="498" y="-64" type="curve" smooth="yes"/>
      <point x="498" y="18" type="line"/>
      <point x="474" y="18" type="line"/>
      <point x="474" y="-64" type="line" smooth="yes"/>
      <point x="474" y="-144"/>
      <point x="433" y="-161"/>
      <point x="376" y="-161" type="curve" smooth="yes"/>
      <point x="352" y="-161"/>
      <point x="312" y="-153"/>
      <point x="290" y="-147" type="curve"/>
    </contour>
    <component base="N.smcp"/>
  </outline>
</glyph>
<glyph name="F.smcp" format="2">
  <advance width="475"/>
  <anchor x="263" y="650" name="top"/>
  <outline>
    <contour>
      <point x="82" y="0" type="line"/>
      <point x="106" y="0" type="line"/>
      <point x="106" y="257" type="line"/>
      <point x="395" y="259" type="line"/>
      <point x="395" y="275" type="line"/>
      <point x="106" y="277" type="line"/>
      <point x="106" y="458" type="line" smooth="yes"/>
      <point x="106" y="514"/>
      <point x="138" y="539"/>
      <point x="188" y="539" type="curve" smooth="yes"/>
      <point x="428" y="539" type="line"/>
      <point x="428" y="555" type="line"/>
      <point x="425" y="556"/>
      <point x="188" y="560"/>
      <point x="186" y="560" type="curve" smooth="yes"/>
      <point x="134" y="561"/>
      <point x="82" y="535"/>
      <point x="82" y="459" type="curve" smooth="yes"/>
    </contour>
  </outline>
</glyph>
<glyph name="G.smcp" format="2">
  <advance width="545"/>
  <anchor x="279" y="650" name="top"/>
  <anchor x="280" y="-150" name="bottom"/>
  <outline>
    <contour>
      <point x="68" y="283" type="curve" smooth="yes"/>
      <point x="68" y="68"/>
      <point x="110" y="-5"/>
      <point x="264" y="-4" type="curve" smooth="yes"/>
      <point x="331" y="-3"/>
      <point x="397" y="21"/>
      <point x="441" y="40" type="curve"/>
      <point x="446" y="0" type="line"/>
      <point x="463" y="0" type="line"/>
      <point x="463" y="280" type="line"/>
      <point x="447" y="282"/>
      <point x="423" y="283"/>
      <point x="399" y="283" type="curve" smooth="yes"/>
      <point x="345" y="283"/>
      <point x="298" y="280"/>
      <point x="269" y="276" type="curve"/>
      <point x="269" y="261" type="line"/>
      <point x="439" y="261" type="line"/>
      <point x="439" y="56" type="line"/>
      <point x="391" y="37"/>
      <point x="323" y="17"/>
      <point x="266" y="17" type="curve" smooth="yes"/>
      <point x="127" y="17"/>
      <point x="92" y="80"/>
      <point x="92" y="281" type="curve" smooth="yes"/>
      <point x="92" y="467"/>
      <point x="129" y="544"/>
      <point x="257" y="544" type="curve" smooth="yes"/>
      <point x="327" y="544"/>
      <point x="409" y="536"/>
      <point x="441" y="533" type="curve"/>
      <point x="441" y="549" type="line"/>
      <point x="389" y="558"/>
      <point x="305" y="565"/>
      <point x="256" y="565" type="curve" smooth="yes"/>
      <point x="113" y="565"/>
      <point x="68" y="480"/>
    </contour>
  </outline>
</glyph>
<glyph name="I.smcp" format="2">
  <advance width="189"/>
  <anchor x="94" y="660" name="top"/>
  <anchor x="96" y="0" name="ogonek"/>
  <anchor x="94" y="-150" name="bottom"/>
  <outline>
    <contour>
      <point x="82" y="0" type="line"/>
      <point x="106" y="0" type="line"/>
      <point x="106" y="560" type="line"/>
      <point x="82" y="560" type="line"/>
    </contour>
  </outline>
</glyph>
<glyph name="Lslash.smcp" format="1">
  <advance width="453"/>
  <note>
  </note>
  <outline>
    <contour>
      <point x="17" y="246" type="line"/>
      <point x="87" y="274" type="line"/>
      <point x="104" y="279" type="line"/>
      <point x="221" y="327" type="line"/>
      <point x="221" y="344" type="line"/>
      <point x="104" y="296" type="line"/>
      <point x="87" y="292" type="line"/>
      <point x="17" y="264" type="line"/>
    </contour>
    <component base="L.smcp"/>
  </outline>
</glyph>
<glyph name="M.salt" format="2">
  <advance width="809"/>
  <anchor x="398" y="810" name="top"/>
  <anchor x="398" y="-150" name="bottom"/>
  <outline>
    <contour>
      <point x="68" y="0" type="line"/>
      <point x="91" y="0" type="line"/>
      <point x="143" y="662" type="line" smooth="yes"/>
      <point x="146" y="695"/>
      <point x="167" y="717"/>
      <point x="190" y="717" type="curve" smooth="yes"/>
      <point x="208" y="717"/>
      <point x="226" y="702"/>
      <point x="235" y="672" type="curve" smooth="yes"/>
      <point x="356" y="263" type="line" smooth="yes"/>
      <point x="366" y="231"/>
      <point x="386" y="215"/>
      <point x="412" y="215" type="curve" smooth="yes"/>
      <point x="439" y="215"/>
      <point x="460" y="232"/>
      <point x="468" y="263" type="curve" smooth="yes"/>
      <point x="577" y="673" type="line" smooth="yes"/>
      <point x="585" y="701"/>
      <point x="599" y="717"/>
      <point x="614" y="717" type="curve" smooth="yes"/>
      <point x="630" y="717"/>
      <point x="646" y="696"/>
      <point x="649" y="662" type="curve" smooth="yes"/>
      <point x="705" y="0" type="line"/>
      <point x="729" y="0" type="line"/>
      <point x="674" y="654" type="line" smooth="yes"/>
      <point x="669" y="710"/>
      <point x="648" y="739"/>
      <point x="613" y="739" type="curve" smooth="yes"/>
      <point x="585" y="739"/>
      <point x="564" y="720"/>
      <point x="554" y="681" type="curve" smooth="yes"/>
      <point x="445" y="270" type="line" smooth="yes"/>
      <point x="440" y="250"/>
      <point x="428" y="240"/>
      <point x="412" y="240" type="curve" smooth="yes"/>
      <point x="396.53125" y="240.0"/>
      <point x="385.24381837684405" y="249.01667594667174"/>
      <point x="379" y="270" type="curve" smooth="yes"/>
      <point x="257" y="680" type="line" smooth="yes"/>
      <point x="245.10439219661637" y="719.9770426179286"/>
      <point x="224" y="739"/>
      <point x="192" y="739" type="curve" smooth="yes"/>
      <point x="154" y="739"/>
      <point x="124" y="709"/>
      <point x="120" y="652" type="curve" smooth="yes"/>
    </contour>
  </outline>
</glyph>
<glyph name="M.salt.smcp" format="2">
  <advance width="682"/>
  <anchor x="347" y="650" name="top"/>
  <anchor x="347" y="-150" name="bottom"/>
  <outline>
    <contour>
      <point x="66" y="0" type="line"/>
      <point x="89" y="0" type="line"/>
      <point x="131" y="503" type="line" smooth="yes"/>
      <point x="133" y="528"/>
      <point x="150" y="544"/>
      <point x="168" y="544" type="curve" smooth="yes"/>
      <point x="182" y="544"/>
      <point x="196" y="533"/>
      <point x="204" y="511" type="curve" smooth="yes"/>
      <point x="299" y="201" type="line" smooth="yes"/>
      <point x="308" y="175"/>
      <point x="325" y="162"/>
      <point x="347" y="162" type="curve" smooth="yes"/>
      <point x="370" y="162"/>
      <point x="388" y="176"/>
      <point x="395" y="201" type="curve" smooth="yes"/>
      <point x="481" y="511" type="line" smooth="yes"/>
      <point x="488" y="532"/>
      <point x="499" y="544"/>
      <point x="511" y="544" type="curve" smooth="yes"/>
      <point x="523" y="544"/>
      <point x="536" y="529"/>
      <point x="538" y="503" type="curve" smooth="yes"/>
      <point x="583" y="0" type="line"/>
      <point x="607" y="0" type="line"/>
      <point x="563" y="499" type="line" smooth="yes"/>
      <point x="559" y="543"/>
      <point x="540" y="566"/>
      <point x="511" y="566" type="curve" smooth="yes"/>
      <point x="487" y="566"/>
      <point x="468" y="551"/>
      <point x="460" y="519" type="curve" smooth="yes"/>
      <point x="374" y="210" type="line" smooth="yes"/>
      <point x="370" y="195"/>
      <point x="360" y="187"/>
      <point x="347" y="187" type="curve" smooth="yes"/>
      <point x="335" y="187"/>
      <point x="326" y="194"/>
      <point x="321" y="210" type="curve" smooth="yes"/>
      <point x="225" y="518" type="line" smooth="yes"/>
      <point x="215" y="551"/>
      <point x="196" y="566"/>
      <point x="169" y="566" type="curve" smooth="yes"/>
      <point x="137" y="566"/>
      <point x="111" y="542"/>
      <point x="108" y="497" type="curve" smooth="yes"/>
    </contour>
  </outline>
</glyph>
<glyph name="N.salt" format="2">
  <advance width="691"/>
  <anchor x="357" y="810" name="top"/>
  <anchor x="357" y="-150" name="bottom"/>
  <outline>
    <contour>
      <point x="108" y="0" type="line"/>
      <point x="132" y="0" type="line"/>
      <point x="132" y="650" type="line" smooth="yes"/>
      <point x="132" y="702"/>
      <point x="155" y="717"/>
      <point x="189" y="717" type="curve" smooth="yes"/>
      <point x="215" y="717"/>
      <point x="233" y="700"/>
      <point x="243" y="672" type="curve" smooth="yes"/>
      <point x="464" y="51" type="line" smooth="yes"/>
      <point x="478" y="11"/>
      <point x="503" y="-6"/>
      <point x="543" y="-6" type="curve" smooth="yes"/>
      <point x="586" y="-6"/>
      <point x="623" y="14"/>
      <point x="623" y="79" type="curve" smooth="yes"/>
      <point x="623" y="732" type="line"/>
      <point x="599" y="732" type="line"/>
      <point x="599" y="77" type="line" smooth="yes"/>
      <point x="599" y="29"/>
      <point x="573" y="16"/>
      <point x="544" y="16" type="curve" smooth="yes"/>
      <point x="512" y="16"/>
      <point x="495" y="30"/>
      <point x="485" y="59" type="curve" smooth="yes"/>
      <point x="264" y="680" type="line" smooth="yes"/>
      <point x="250" y="720"/>
      <point x="227" y="739"/>
      <point x="188" y="739" type="curve" smooth="yes"/>
      <point x="146" y="739"/>
      <point x="108" y="719"/>
      <point x="108" y="652" type="curve" smooth="yes"/>
    </contour>
  </outline>
</glyph>
<glyph name="O.smcp" format="2">
  <advance width="573"/>
  <anchor x="286" y="660" name="top"/>
  <anchor x="335" y="0" name="ogonek"/>
  <anchor x="286" y="-150" name="bottom"/>
  <outline>
    <contour>
      <point x="92" y="276" type="curve" smooth="yes"/>
      <point x="92" y="515"/>
      <point x="160" y="544"/>
      <point x="286" y="544" type="curve" smooth="yes"/>
      <point x="422" y="544"/>
      <point x="481" y="515"/>
      <point x="481" y="276" type="curve" smooth="yes"/>
      <point x="481" y="49"/>
      <point x="423" y="16"/>
      <point x="286" y="16" type="curve" smooth="yes"/>
      <point x="143" y="16"/>
      <point x="92" y="49"/>
    </contour>
    <contour>
      <point x="68" y="276" type="curve" smooth="yes"/>
      <point x="68" y="29"/>
      <point x="140" y="-5"/>
      <point x="286" y="-5" type="curve" smooth="yes"/>
      <point x="433" y="-5"/>
      <point x="505" y="29"/>
      <point x="505" y="276" type="curve" smooth="yes"/>
      <point x="505" y="524"/>
      <point x="435" y="565"/>
      <point x="286" y="565" type="curve" smooth="yes"/>
      <point x="144" y="565"/>
      <point x="68" y="524"/>
    </contour>
  </outline>
</glyph>
<glyph name="Oslash.smcp" format="2">
  <advance width="573"/>
  <anchor x="286" y="650" name="top"/>
  <outline>
    <contour>
      <point x="470" y="560" type="line"/>
      <point x="80" y="0" type="line"/>
      <point x="103" y="0" type="line"/>
      <point x="493" y="560" type="line"/>
    </contour>
    <component base="O.smcp"/>
  </outline>
</glyph>
<glyph name="P.smcp" format="1">
  <advance width="503"/>
  <note>
  </note>
  <outline>
    <contour>
      <point x="106" y="237" type="line"/>
      <point x="106" y="539" type="line"/>
      <point x="307" y="539" type="line" smooth="yes"/>
      <point x="368" y="539"/>
      <point x="427" y="513"/>
      <point x="427" y="391" type="curve" smooth="yes"/>
      <point x="427" y="267"/>
      <point x="366" y="237"/>
      <point x="299" y="237" type="curve" smooth="yes"/>
    </contour>
    <contour>
      <point x="82" y="0" type="line"/>
      <point x="106" y="0" type="line"/>
      <point x="106" y="221" type="line"/>
      <point x="143" y="219"/>
      <point x="269" y="216"/>
      <point x="300" y="216" type="curve" smooth="yes"/>
      <point x="364" y="216"/>
      <point x="451" y="245"/>
      <point x="451" y="391" type="curve" smooth="yes"/>
      <point x="451" y="534"/>
      <point x="372" y="560"/>
      <point x="307" y="560" type="curve" smooth="yes"/>
      <point x="82" y="560" type="line"/>
    </contour>
    <contour>
      <point x="238" y="650" type="move" name="top"/>
    </contour>
  </outline>
</glyph>
<glyph name="R.smcp" format="2">
  <advance width="524"/>
  <anchor x="238" y="650" name="top"/>
  <anchor x="238" y="-150" name="bottom"/>
  <outline>
    <contour>
      <point x="82" y="0" type="line"/>
      <point x="106" y="0" type="line"/>
      <point x="106" y="239" type="line"/>
      <point x="171" y="236"/>
      <point x="243" y="234"/>
      <point x="296" y="233" type="curve"/>
      <point x="458" y="0" type="line"/>
      <point x="482" y="0" type="line"/>
      <point x="321" y="234" type="line"/>
      <point x="386" y="240"/>
      <point x="460" y="274"/>
      <point x="460" y="392" type="curve" smooth="yes"/>
      <point x="460" y="511"/>
      <point x="393" y="560"/>
      <point x="314" y="560" type="curve" smooth="yes"/>
      <point x="82" y="560" type="line"/>
    </contour>
    <contour>
      <point x="106" y="255" type="line"/>
      <point x="106" y="539" type="line"/>
      <point x="314" y="539" type="line" smooth="yes"/>
      <point x="390" y="539"/>
      <point x="436" y="486"/>
      <point x="436" y="392" type="curve" smooth="yes"/>
      <point x="436" y="290"/>
      <point x="383" y="255"/>
      <point x="304" y="255" type="curve" smooth="yes"/>
    </contour>
  </outline>
</glyph>
<glyph name="S.smcp" format="2">
  <advance width="486"/>
  <anchor x="238" y="650" name="top"/>
  <anchor x="238" y="-150" name="bottom"/>
  <outline>
    <contour>
      <point x="69" y="393" type="line" smooth="yes"/>
      <point x="69" y="301"/>
      <point x="125" y="271"/>
      <point x="211" y="271" type="curve" smooth="yes"/>
      <point x="285" y="271" type="line" smooth="yes"/>
      <point x="364" y="271"/>
      <point x="394" y="235"/>
      <point x="394" y="171" type="curve" smooth="yes"/>
      <point x="394" y="121" type="line" smooth="yes"/>
      <point x="394" y="33"/>
      <point x="324" y="16"/>
      <point x="243" y="16" type="curve" smooth="yes"/>
      <point x="174" y="16"/>
      <point x="101" y="18"/>
      <point x="68" y="21" type="curve"/>
      <point x="68" y="6" type="line"/>
      <point x="103" y="0"/>
      <point x="205" y="-5"/>
      <point x="243" y="-5" type="curve" smooth="yes"/>
      <point x="333" y="-5"/>
      <point x="418" y="22"/>
      <point x="418" y="121" type="curve" smooth="yes"/>
      <point x="418" y="172" type="line" smooth="yes"/>
      <point x="418" y="243"/>
      <point x="378" y="293"/>
      <point x="286" y="293" type="curve" smooth="yes"/>
      <point x="210" y="293" type="line" smooth="yes"/>
      <point x="138" y="293"/>
      <point x="93" y="315"/>
      <point x="93" y="393" type="curve" smooth="yes"/>
      <point x="93" y="427" type="line" smooth="yes"/>
      <point x="93" y="519"/>
      <point x="143" y="544"/>
      <point x="228" y="544" type="curve" smooth="yes"/>
      <point x="282" y="544"/>
      <point x="345" y="539"/>
      <point x="392" y="536" type="curve"/>
      <point x="392" y="552" type="line"/>
      <point x="355" y="558"/>
      <point x="268" y="565"/>
      <point x="228" y="565" type="curve" smooth="yes"/>
      <point x="127" y="565"/>
      <point x="69" y="531"/>
      <point x="69" y="427" type="curve" smooth="yes"/>
    </contour>
  </outline>
</glyph>
<glyph name="T.smcp" format="1">
  <advance width="471"/>
  <note>
  </note>
  <outline>
    <contour>
      <point x="25" y="539" type="line"/>
      <point x="224" y="539" type="line"/>
      <point x="224" y="0" type="line"/>
      <point x="248" y="0" type="line"/>
      <point x="248" y="539" type="line"/>
      <point x="446" y="539" type="line"/>
      <point x="446" y="560" type="line"/>
      <point x="25" y="560" type="line"/>
    </contour>
    <contour>
      <point x="236" y="650" type="move" name="top"/>
    </contour>
    <contour>
      <point x="236" y="-150" type="move" name="bottom"/>
    </contour>
  </outline>
</glyph>
<glyph name="U.smcp" format="2">
  <advance width="566"/>
  <anchor x="283" y="650" name="top"/>
  <anchor x="344" y="0" name="ogonek"/>
  <anchor x="283" y="-150" name="bottom"/>
  <outline>
    <contour>
      <point x="74" y="169" type="line" smooth="yes"/>
      <point x="74" y="37"/>
      <point x="149" y="-5"/>
      <point x="283" y="-5" type="curve" smooth="yes"/>
      <point x="418" y="-5"/>
      <point x="492" y="37"/>
      <point x="492" y="169" type="curve" smooth="yes"/>
      <point x="492" y="560" type="line"/>
      <point x="468" y="560" type="line"/>
      <point x="468" y="169" type="line" smooth="yes"/>
      <point x="468" y="48"/>
      <point x="399" y="16"/>
      <point x="283" y="16" type="curve" smooth="yes"/>
      <point x="167" y="16"/>
      <point x="98" y="48"/>
      <point x="98" y="169" type="curve" smooth="yes"/>
      <point x="98" y="560" type="line"/>
      <point x="74" y="560" type="line"/>
    </contour>
  </outline>
</glyph>
<glyph name="Uhorn.smcp" format="2">
  <advance width="566"/>
  <anchor x="283" y="650" name="top"/>
  <anchor x="283" y="-150" name="bottom"/>
  <outline>
    <contour>
      <point x="473" y="544" type="line"/>
      <point x="496" y="544" type="line" smooth="yes"/>
      <point x="546" y="544"/>
      <point x="602" y="568"/>
      <point x="602" y="676" type="curve"/>
      <point x="580" y="676" type="line"/>
      <point x="580" y="589"/>
      <point x="544" y="560"/>
      <point x="496" y="560" type="curve" smooth="yes"/>
      <point x="473" y="560" type="line"/>
    </contour>
    <component base="U.smcp"/>
  </outline>
</glyph>
<glyph name="W.salt.smcp" format="2">
  <advance width="829"/>
  <anchor x="439" y="650" name="top"/>
  <anchor x="419" y="-150" name="bottom"/>
  <outline>
    <contour>
      <point x="50" y="560" type="line"/>
      <point x="257" y="0" type="line"/>
      <point x="290" y="0" type="line"/>
      <point x="412" y="329" type="line"/>
      <point x="539" y="0" type="line"/>
      <point x="572" y="0" type="line"/>
      <point x="779" y="560" type="line"/>
      <point x="755" y="560" type="line"/>
      <point x="555" y="23" type="line"/>
      <point x="424" y="361" type="line"/>
      <point x="493" y="560" type="line"/>
      <point x="467" y="560" type="line"/>
      <point x="274" y="23" type="line"/>
      <point x="76" y="560" type="line"/>
    </contour>
  </outline>
</glyph>
<glyph name="X.salt" format="2">
  <advance width="591"/>
  <anchor x="295" y="810" name="top"/>
  <anchor x="295" y="-150" name="bottom"/>
  <outline>
    <contour>
      <point x="53" y="0" type="line"/>
      <point x="79" y="0" type="line"/>
      <point x="239" y="254" type="line" smooth="yes"/>
      <point x="262" y="291"/>
      <point x="275" y="327"/>
      <point x="275" y="366" type="curve" smooth="yes"/>
      <point x="275" y="412"/>
      <point x="252" y="456"/>
      <point x="227" y="495" type="curve" smooth="yes"/>
      <point x="76" y="732" type="line"/>
      <point x="50" y="732" type="line"/>
      <point x="210" y="481" type="line" smooth="yes"/>
      <point x="234" y="444"/>
      <point x="253" y="406"/>
      <point x="253" y="366" type="curve" smooth="yes"/>
      <point x="253" y="330"/>
      <point x="240" y="298"/>
      <point x="219" y="265" type="curve" smooth="yes"/>
    </contour>
    <contour>
      <point x="515" y="0" type="line"/>
      <point x="541" y="0" type="line"/>
      <point x="373" y="265" type="line" smooth="yes"/>
      <point x="352.1399767980172" y="297.9042032650324"/>
      <point x="343.0" y="330.0"/>
      <point x="343" y="366" type="curve" smooth="yes"/>
      <point x="343.0" y="406.0"/>
      <point x="363.3683148467989" y="444.3512711390098"/>
      <point x="386" y="481" type="curve" smooth="yes"/>
      <point x="541" y="732" type="line"/>
      <point x="515" y="732" type="line"/>
      <point x="369" y="495" type="line" smooth="yes"/>
      <point x="344.5313840360013" y="455.280397373509"/>
      <point x="321.0" y="412.0"/>
      <point x="321" y="366" type="curve" smooth="yes"/>
      <point x="321.0" y="328.0"/>
      <point x="331.06473073360274" y="290.8476445274907"/>
      <point x="355" y="253" type="curve" smooth="yes"/>
    </contour>
  </outline>
</glyph>
<glyph name="X.salt.smcp" format="1">
  <advance width="507"/>
  <note>
  </note>
  <outline>
    <contour>
      <point x="54" y="0" type="line"/>
      <point x="80" y="0" type="line"/>
      <point x="208" y="194" type="line" smooth="yes"/>
      <point x="226" y="222"/>
      <point x="237" y="250"/>
      <point x="237" y="280" type="curve" smooth="yes"/>
      <point x="237" y="315"/>
      <point x="219" y="349"/>
      <point x="199" y="379" type="curve" smooth="yes"/>
      <point x="77" y="560" type="line"/>
      <point x="51" y="560" type="line"/>
      <point x="180" y="367" type="line" smooth="yes"/>
      <point x="199" y="339"/>
      <point x="214" y="310"/>
      <point x="214" y="280" type="curve" smooth="yes"/>
      <point x="214" y="253"/>
      <point x="204" y="228"/>
      <point x="187" y="203" type="curve" smooth="yes"/>
    </contour>
    <contour>
      <point x="429" y="0" type="line"/>
      <point x="455" y="0" type="line"/>
      <point x="320" y="203" type="line" smooth="yes"/>
      <point x="303" y="228"/>
      <point x="296" y="253"/>
      <point x="296" y="280" type="curve" smooth="yes"/>
      <point x="296" y="310"/>
      <point x="312" y="339"/>
      <point x="330" y="367" type="curve" smooth="yes"/>
      <point x="455" y="560" type="line"/>
      <point x="430" y="560" type="line"/>
      <point x="312" y="379" type="line" smooth="yes"/>
      <point x="292" y="348"/>
      <point x="274" y="315"/>
      <point x="274" y="280" type="curve" smooth="yes"/>
      <point x="274" y="251"/>
      <point x="282" y="222"/>
      <point x="301" y="193" type="curve" smooth="yes"/>
    </contour>
    <contour>
      <point x="252" y="650" type="move" name="top"/>
    </contour>
    <contour>
      <point x="252" y="-150" type="move" name="bottom"/>
    </contour>
  </outline>
</glyph>
<glyph name="X.smcp" format="2">
  <advance width="506"/>
  <anchor x="252" y="650" name="top"/>
  <anchor x="252" y="-150" name="bottom"/>
  <outline>
    <contour>
      <point x="54" y="0" type="line"/>
      <point x="80" y="0" type="line"/>
      <point x="255" y="264" type="line"/>
      <point x="243" y="284" type="line"/>
    </contour>
    <contour>
      <point x="254" y="294" type="line"/>
      <point x="263" y="268" type="line"/>
      <point x="454" y="560" type="line"/>
      <point x="428" y="560" type="line"/>
    </contour>
    <contour>
      <point x="51" y="560" type="line"/>
      <point x="428" y="0" type="line"/>
      <point x="454" y="0" type="line"/>
      <point x="77" y="560" type="line"/>
    </contour>
  </outline>
</glyph>
<glyph name="Y.smcp" format="2">
  <advance width="519"/>
  <anchor x="260" y="650" name="top"/>
  <anchor x="260" y="-150" name="bottom"/>
  <anchor x="265" y="0" name="ogonek"/>
  <outline>
    <contour>
      <point x="51" y="560" type="line"/>
      <point x="248" y="198" type="line"/>
      <point x="248" y="0" type="line"/>
      <point x="272" y="0" type="line"/>
      <point x="272" y="198" type="line"/>
      <point x="468" y="560" type="line"/>
      <point x="442" y="560" type="line"/>
      <point x="260" y="220" type="line"/>
      <point x="77" y="560" type="line"/>
    </contour>
  </outline>
</glyph>
<glyph name="Z.smcp" format="1">
  <advance width="470"/>
  <note>
  </note>
  <outline>
    <contour>
      <point x="50" y="0" type="line"/>
      <point x="426" y="0" type="line"/>
      <point x="426" y="21" type="line"/>
      <point x="79" y="21" type="line"/>
      <point x="426" y="540" type="line"/>
      <point x="426" y="560" type="line"/>
      <point x="50" y="560" type="line"/>
      <point x="50" y="539" type="line"/>
      <point x="397" y="539" type="line"/>
      <point x="50" y="20" type="line"/>
    </contour>
    <contour>
      <point x="235" y="650" type="move" name="top"/>
    </contour>
    <contour>
      <point x="235" y="-150" type="move" name="bottom"/>
    </contour>
  </outline>
</glyph>
<glyph name="a.salt" format="2">
  <advance width="523"/>
  <anchor x="280" y="650" name="top"/>
  <anchor x="270" y="-150" name="bottom"/>
  <anchor x="259" y="0" name="ogonek"/>
  <outline>
    <contour>
      <point x="78" y="131" type="curve" smooth="yes"/>
      <point x="78" y="157" type="line" smooth="yes"/>
      <point x="78" y="222"/>
      <point x="112" y="272"/>
      <point x="207" y="275" type="curve" smooth="yes"/>
      <point x="429" y="282" type="line"/>
      <point x="429" y="80" type="line"/>
      <point x="355" y="36"/>
      <point x="266.9892980604857" y="16.00026754848786"/>
      <point x="187" y="18" type="curve" smooth="yes"/>
      <point x="138" y="19"/>
      <point x="78" y="46"/>
    </contour>
    <contour>
      <point x="54" y="126" type="line" smooth="yes"/>
      <point x="54" y="41"/>
      <point x="111" y="-6"/>
      <point x="187" y="-6" type="curve" smooth="yes"/>
      <point x="208" y="-6" type="line" smooth="yes"/>
      <point x="287" y="-6"/>
      <point x="390" y="30"/>
      <point x="453" y="71" type="curve"/>
      <point x="453" y="387" type="line" smooth="yes"/>
      <point x="453" y="487"/>
      <point x="404" y="542"/>
      <point x="276" y="541" type="curve" smooth="yes"/>
      <point x="203" y="540"/>
      <point x="146" y="537"/>
      <point x="104" y="535" type="curve"/>
      <point x="104" y="519" type="line"/>
      <point x="274" y="519" type="line" smooth="yes"/>
      <point x="396" y="519"/>
      <point x="429" y="466"/>
      <point x="429" y="387" type="curve" smooth="yes"/>
      <point x="429" y="298" type="line"/>
      <point x="213" y="298" type="line" smooth="yes"/>
      <point x="109" y="298"/>
      <point x="54" y="242"/>
      <point x="54" y="157" type="curve" smooth="yes"/>
    </contour>
  </outline>
</glyph>
<glyph name="a.superior" format="2">
  <advance width="406"/>
  <anchor x="203.0" y="759" name="top"/>
  <anchor x="335.0" y="280" name="ogonek"/>
  <anchor x="203.0" y="169" name="bottom"/>
  <outline>
    <contour>
      <point x="62.0" y="378" type="curve" smooth="yes"/>
      <point x="62.0" y="396" type="line" smooth="yes"/>
      <point x="62.0" y="443"/>
      <point x="87.0" y="479"/>
      <point x="157.0" y="481" type="curve" smooth="yes"/>
      <point x="320.0" y="487" type="line"/>
      <point x="320.0" y="341" type="line"/>
      <point x="320.0" y="340"/>
      <point x="201.0" y="295"/>
      <point x="143.0" y="296" type="curve" smooth="yes"/>
      <point x="106.0" y="297"/>
      <point x="62.0" y="316"/>
    </contour>
    <contour>
      <point x="40.0" y="373" type="line" smooth="yes"/>
      <point x="40.0" y="310"/>
      <point x="83.0" y="276"/>
      <point x="140.0" y="276" type="curve" smooth="yes"/>
      <point x="214.0" y="276"/>
      <point x="318.0" y="326"/>
      <point x="320.0" y="327" type="curve"/>
      <point x="327.0" y="280" type="line"/>
      <point x="342.0" y="280" type="line"/>
      <point x="342.0" y="565" type="line" smooth="yes"/>
      <point x="342.0" y="640"/>
      <point x="304.0" y="680"/>
      <point x="208.0" y="679" type="curve" smooth="yes"/>
      <point x="152.0" y="678"/>
      <point x="109.0" y="676"/>
      <point x="77.0" y="674" type="curve"/>
      <point x="77.0" y="659" type="line"/>
      <point x="205.0" y="659" type="line" smooth="yes"/>
      <point x="296.0" y="659"/>
      <point x="320.0" y="621"/>
      <point x="320.0" y="564" type="curve" smooth="yes"/>
      <point x="320.0" y="500" type="line"/>
      <point x="160.0" y="500" type="line" smooth="yes"/>
      <point x="81.0" y="500"/>
      <point x="40.0" y="459"/>
      <point x="40.0" y="397" type="curve" smooth="yes"/>
    </contour>
  </outline>
</glyph>
<glyph name="ampersand.salt" format="2">
  <advance width="938"/>
  <outline>
    <contour>
      <point x="244" y="199" type="line"/>
      <point x="244" y="333"/>
      <point x="296" y="370"/>
      <point x="368" y="370" type="curve" smooth="yes"/>
      <point x="477" y="370" type="line" smooth="yes"/>
      <point x="549" y="370"/>
      <point x="582" y="358"/>
      <point x="582" y="286" type="curve" smooth="yes"/>
      <point x="582" y="214"/>
      <point x="556" y="199"/>
      <point x="477" y="199" type="curve" smooth="yes"/>
    </contour>
    <contour>
      <point x="81" y="306" type="curve" smooth="yes"/>
      <point x="81" y="375" type="line" smooth="yes"/>
      <point x="81" y="495.0"/>
      <point x="144.0" y="509"/>
      <point x="270" y="509" type="curve" smooth="yes"/>
      <point x="731" y="509" type="line"/>
      <point x="731" y="187" type="line" smooth="yes"/>
      <point x="731" y="46"/>
      <point x="618" y="22"/>
      <point x="522" y="22" type="curve" smooth="yes"/>
      <point x="408" y="22" type="line" smooth="yes"/>
      <point x="302" y="22"/>
      <point x="244" y="46"/>
      <point x="244" y="177" type="curve"/>
      <point x="477" y="177" type="line" smooth="yes"/>
      <point x="562" y="177"/>
      <point x="604" y="198"/>
      <point x="604" y="286" type="curve" smooth="yes"/>
      <point x="604" y="368"/>
      <point x="560" y="392"/>
      <point x="477" y="392" type="curve" smooth="yes"/>
      <point x="368" y="392" type="line" smooth="yes"/>
      <point x="257" y="392"/>
      <point x="220" y="315"/>
      <point x="220" y="199" type="curve"/>
      <point x="147.58234706505357" y="200.16802666024108"/>
      <point x="81" y="214.0"/>
    </contour>
    <contour>
      <point x="59" y="306" type="line" smooth="yes"/>
      <point x="59" y="194.0"/>
      <point x="140.0709219858156" y="177.0"/>
      <point x="220" y="177" type="curve"/>
      <point x="220" y="22"/>
      <point x="297" y="0"/>
      <point x="408" y="0" type="curve" smooth="yes"/>
      <point x="522" y="0" type="line" smooth="yes"/>
      <point x="634" y="0"/>
      <point x="755" y="37"/>
      <point x="755" y="187" type="curve" smooth="yes"/>
      <point x="755" y="509" type="line"/>
      <point x="910" y="515" type="line"/>
      <point x="910" y="531" type="line"/>
      <point x="755" y="531" type="line"/>
      <point x="755" y="680" type="line"/>
      <point x="739" y="680" type="line"/>
      <point x="731" y="531" type="line"/>
      <point x="270" y="531" type="line" smooth="yes"/>
      <point x="136.0" y="531"/>
      <point x="59" y="509"/>
      <point x="59" y="375" type="curve" smooth="yes"/>
    </contour>
  </outline>
</glyph>
